<svg width="103" height="67" viewBox="0 0 103 67" fill="none" xmlns="http://www.w3.org/2000/svg">
<path d="M82.0489 42.1448V37.6794H87.4133V42.1448H82.0489ZM82.0489 66V43.5234H87.4133V66H82.0489ZM96.0743 66.2398C91.599 66.2398 89.3613 63.9172 89.3613 59.272V50.2514C89.3613 48.1336 89.9557 46.4453 91.1445 45.1866C92.3332 43.9179 93.9765 43.2836 96.0743 43.2836C98.1821 43.2836 99.8304 43.9179 101.019 45.1866C102.208 46.4453 102.802 48.1336 102.802 50.2514V59.272C102.802 63.9172 100.56 66.2398 96.0743 66.2398ZM96.0743 62.104C96.5239 62.104 96.8435 61.9442 97.0333 61.6245C97.2331 61.2949 97.333 60.8803 97.333 60.3808V49.3973C97.333 48.0886 96.9135 47.4343 96.0743 47.4343C95.2352 47.4343 94.8156 48.0886 94.8156 49.3973V60.3808C94.8156 60.8803 94.9105 61.2949 95.1003 61.6245C95.3001 61.9442 95.6248 62.104 96.0743 62.104Z" fill="white"/>
<circle cx="71" cy="61" r="5" fill="white"/>
<path d="M0.10643 31.2986V0H6.27938V12.5372L9.18847 0H15.4678L11.9734 14.3334L16.1951 31.2986H9.72062L6.31486 16.1473V31.2986H0.10643Z" fill="#7A04EB"/>
<path d="M22.0133 31.5832C20.5351 31.5832 19.4058 31.2394 18.6253 30.5518C17.8566 29.8641 17.3304 28.9216 17.0466 27.7242C16.7628 26.5268 16.6208 25.1693 16.6208 23.6518C16.6208 22.0276 16.7805 20.6998 17.0998 19.6684C17.4191 18.6251 17.963 17.7715 18.7317 17.1076C19.5122 16.4436 20.5824 15.8805 21.9424 15.4181L25.8803 14.0666V11.328C25.8803 9.89346 25.4132 9.1762 24.4789 9.1762C23.6275 9.1762 23.2018 9.75712 23.2018 10.919V12.5195H17.0288C17.017 12.4246 17.0111 12.3061 17.0111 12.1638C17.0111 12.0097 17.0111 11.8378 17.0111 11.6481C17.0111 8.99243 17.6319 7.11333 18.8736 6.01076C20.1271 4.89634 22.1079 4.33913 24.816 4.33913C26.235 4.33913 27.5063 4.59403 28.6297 5.10381C29.7531 5.60175 30.6401 6.34272 31.2905 7.32673C31.9527 8.31074 32.2838 9.52593 32.2838 10.9723V31.2986H25.969V28.1332C25.6615 29.2476 25.153 30.1012 24.4435 30.694C23.7339 31.2868 22.9239 31.5832 22.0133 31.5832ZM24.5144 26.6394C25.0347 26.6394 25.3895 26.4201 25.5787 25.9814C25.7679 25.5428 25.8625 25.0686 25.8625 24.5588V17.1253C24.9874 17.481 24.3075 17.9315 23.8226 18.4769C23.3378 19.0104 23.0953 19.7988 23.0953 20.8421V24.2742C23.0953 25.851 23.5684 26.6394 24.5144 26.6394Z" fill="#7A04EB"/>
<path d="M34.7317 31.2986V0H41.1885V31.2986H34.7317Z" fill="#7A04EB"/>
<path d="M48.5854 31.5832C47.1072 31.5832 45.9778 31.2394 45.1973 30.5518C44.4287 29.8641 43.9024 28.9216 43.6186 27.7242C43.3348 26.5268 43.1929 25.1693 43.1929 23.6518C43.1929 22.0276 43.3526 20.6998 43.6718 19.6684C43.9911 18.6251 44.5351 17.7715 45.3038 17.1076C46.0843 16.4436 47.1545 15.8805 48.5144 15.4181L52.4523 14.0666V11.328C52.4523 9.89346 51.9852 9.1762 51.051 9.1762C50.1996 9.1762 49.7738 9.75712 49.7738 10.919V12.5195H43.6009C43.5891 12.4246 43.5831 12.3061 43.5831 12.1638C43.5831 12.0097 43.5831 11.8378 43.5831 11.6481C43.5831 8.99243 44.204 7.11333 45.4457 6.01076C46.6992 4.89634 48.68 4.33913 51.388 4.33913C52.8071 4.33913 54.0783 4.59403 55.2018 5.10381C56.3252 5.60175 57.2121 6.34272 57.8625 7.32673C58.5248 8.31074 58.8559 9.52593 58.8559 10.9723V31.2986H52.541V28.1332C52.2336 29.2476 51.7251 30.1012 51.0155 30.694C50.306 31.2868 49.4959 31.5832 48.5854 31.5832ZM51.0865 26.6394C51.6068 26.6394 51.9616 26.4201 52.1508 25.9814C52.34 25.5428 52.4346 25.0686 52.4346 24.5588V17.1253C51.5595 17.481 50.8795 17.9315 50.3947 18.4769C49.9098 19.0104 49.6674 19.7988 49.6674 20.8421V24.2742C49.6674 25.851 50.1404 26.6394 51.0865 26.6394Z" fill="#7A04EB"/>
<path d="M0 65.7155V34.4168H6.27938V48.2345L9.33038 39.0405H15.9113L11.9202 50.6352L16.9933 65.7155H10.235L6.27938 53.1427V65.7155H0Z" fill="#7A04EB"/>
<path d="M22.6874 66C21.2092 66 20.0798 65.6562 19.2993 64.9686C18.5307 64.2809 18.0044 63.3384 17.7206 62.141C17.4368 60.9436 17.2949 59.5861 17.2949 58.0686C17.2949 56.4444 17.4545 55.1166 17.7738 54.0852C18.0931 53.0419 18.6371 52.1883 19.4058 51.5244C20.1863 50.8605 21.2565 50.2973 22.6164 49.835L26.5543 48.4834V45.7448C26.5543 44.3103 26.0872 43.593 25.153 43.593C24.3016 43.593 23.8758 44.1739 23.8758 45.3358V46.9363H17.7029C17.6911 46.8414 17.6851 46.7229 17.6851 46.5806C17.6851 46.4265 17.6851 46.2546 17.6851 46.0649C17.6851 43.4093 18.306 41.5301 19.5477 40.4276C20.8012 39.3132 22.782 38.7559 25.49 38.7559C26.9091 38.7559 28.1803 39.0108 29.3038 39.5206C30.4272 40.0186 31.3141 40.7595 31.9645 41.7435C32.6268 42.7276 32.9579 43.9427 32.9579 45.3891V65.7155H26.643V62.55C26.3356 63.6645 25.8271 64.5181 25.1175 65.1108C24.408 65.7036 23.5979 66 22.6874 66ZM25.1885 61.0562C25.7088 61.0562 26.0636 60.8369 26.2528 60.3983C26.442 59.9596 26.5366 59.4854 26.5366 58.9756V51.5422C25.6615 51.8978 24.9815 52.3483 24.4967 52.8937C24.0118 53.4272 23.7694 54.2156 23.7694 55.2589V58.6911C23.7694 60.2678 24.2424 61.0562 25.1885 61.0562Z" fill="#7A04EB"/>
<path d="M40.2483 66C38.7701 66 37.6408 65.6562 36.8603 64.9686C36.0916 64.2809 35.5654 63.3384 35.2816 62.141C34.9978 60.9436 34.8559 59.5861 34.8559 58.0686C34.8559 56.4444 35.0155 55.1166 35.3348 54.0852C35.6541 53.0419 36.1981 52.1883 36.9667 51.5244C37.7472 50.8605 38.8174 50.2973 40.1774 49.835L44.1153 48.4834V45.7448C44.1153 44.3103 43.6482 43.593 42.714 43.593C41.8625 43.593 41.4368 44.1739 41.4368 45.3358V46.9363H35.2639C35.252 46.8414 35.2461 46.7229 35.2461 46.5806C35.2461 46.4265 35.2461 46.2546 35.2461 46.0649C35.2461 43.4093 35.867 41.5301 37.1087 40.4276C38.3622 39.3132 40.3429 38.7559 43.051 38.7559C44.4701 38.7559 45.7413 39.0108 46.8647 39.5206C47.9882 40.0186 48.8751 40.7595 49.5255 41.7435C50.1877 42.7276 50.5188 43.9427 50.5188 45.3891V65.7155H44.204V62.55C43.8965 63.6645 43.388 64.5181 42.6785 65.1108C41.969 65.7036 41.1589 66 40.2483 66ZM42.7494 61.0562C43.2698 61.0562 43.6245 60.8369 43.8137 60.3983C44.003 59.9596 44.0976 59.4854 44.0976 58.9756V51.5422C43.2225 51.8978 42.5425 52.3483 42.0577 52.8937C41.5728 53.4272 41.3304 54.2156 41.3304 55.2589V58.6911C41.3304 60.2678 41.8034 61.0562 42.7494 61.0562Z" fill="#7A04EB"/>
<path d="M52.9667 65.7155V39.0405H59.4235V42.0103C59.731 40.9789 60.2749 40.1727 61.0554 39.5918C61.8359 39.0108 62.8174 38.7204 64 38.7204V44.0376C63.4797 44.0376 62.8588 44.0969 62.1375 44.2154C61.4161 44.3221 60.7834 44.4762 60.2395 44.6778C59.6955 44.8675 59.4235 45.0809 59.4235 45.318V65.7155H52.9667Z" fill="#7A04EB"/>
</svg>
