<svg width="134" height="42" viewBox="0 0 134 42" fill="none" xmlns="http://www.w3.org/2000/svg">
<path d="M0.5 0.5H110.887L133.5 11.3151V41.5H0.5V0.5Z" fill="url(#paint0_linear_328_40)"/>
<path d="M0.5 0.5H110.887L133.5 11.3151V41.5H0.5V0.5Z" stroke="black"/>
<path d="M0.5 0.5H110.887L133.5 11.3151V41.5H0.5V0.5Z" stroke="url(#paint1_linear_328_40)"/>
<path d="M13.16 27V12.6H26.38V15.02H15.58V18.6H24.28V21H15.58V24.58H26.38V27H13.16ZM28.2325 27V26.46L32.6325 21.1L28.2325 15.94V15.4H30.9125L34.1925 19.26L37.4525 15.4H40.1325V15.94L35.7325 21.1L40.1525 26.46V27H37.4725L34.1925 22.98L30.9125 27H28.2325ZM44.8602 27C44.3668 27 43.9202 26.88 43.5202 26.64C43.1202 26.3867 42.7935 26.06 42.5402 25.66C42.3002 25.26 42.1802 24.8133 42.1802 24.32V18.08C42.1802 17.5867 42.3002 17.14 42.5402 16.74C42.7935 16.34 43.1202 16.02 43.5202 15.78C43.9202 15.5267 44.3668 15.4 44.8602 15.4H53.9402V17.78H44.9402C44.8335 17.78 44.7402 17.82 44.6602 17.9C44.5935 17.9667 44.5602 18.0533 44.5602 18.16V24.24C44.5602 24.3467 44.5935 24.44 44.6602 24.52C44.7402 24.5867 44.8335 24.62 44.9402 24.62H53.9602V27H44.8602ZM58.7864 27C58.2931 27 57.8464 26.88 57.4464 26.64C57.0464 26.3867 56.7197 26.06 56.4664 25.66C56.2264 25.26 56.1064 24.8133 56.1064 24.32V11.58H58.5064V24.24C58.5064 24.3467 58.5397 24.44 58.6064 24.52C58.6864 24.5867 58.7731 24.62 58.8664 24.62H61.0264V27H58.7864ZM65.3298 27C64.8365 27 64.3832 26.88 63.9698 26.64C63.5698 26.3867 63.2498 26.06 63.0098 25.66C62.7698 25.26 62.6498 24.8133 62.6498 24.32V15.4H65.0298V24.24C65.0298 24.3467 65.0632 24.44 65.1298 24.52C65.2098 24.5867 65.3032 24.62 65.4098 24.62H71.6698C71.7765 24.62 71.8632 24.5867 71.9298 24.52C72.0098 24.44 72.0498 24.3467 72.0498 24.24V15.4H74.4298V24.32C74.4298 24.8133 74.3098 25.26 74.0698 25.66C73.8298 26.06 73.5098 26.3867 73.1098 26.64C72.7098 26.88 72.2565 27 71.7498 27H65.3298ZM78.765 27C78.2717 27 77.825 26.88 77.425 26.64C77.025 26.3867 76.6983 26.06 76.445 25.66C76.205 25.26 76.085 24.8133 76.085 24.32V23.94H78.465V24.24C78.465 24.3467 78.4983 24.44 78.565 24.52C78.645 24.5867 78.7383 24.62 78.845 24.62H85.105C85.2117 24.62 85.2983 24.5867 85.365 24.52C85.445 24.44 85.485 24.3467 85.485 24.24V22.76C85.485 22.6667 85.445 22.5867 85.365 22.52C85.2983 22.44 85.2117 22.4 85.105 22.4H78.765C78.2717 22.4 77.825 22.28 77.425 22.04C77.025 21.7867 76.6983 21.46 76.445 21.06C76.205 20.66 76.085 20.2133 76.085 19.72V18.08C76.085 17.5867 76.205 17.14 76.445 16.74C76.6983 16.34 77.025 16.02 77.425 15.78C77.825 15.5267 78.2717 15.4 78.765 15.4H85.185C85.6917 15.4 86.145 15.5267 86.545 15.78C86.945 16.02 87.265 16.34 87.505 16.74C87.7583 17.14 87.885 17.5867 87.885 18.08V18.46H85.485V18.16C85.485 18.0533 85.445 17.9667 85.365 17.9C85.2983 17.82 85.2117 17.78 85.105 17.78H78.845C78.7383 17.78 78.645 17.82 78.565 17.9C78.4983 17.9667 78.465 18.0533 78.465 18.16V19.64C78.465 19.7333 78.4983 19.82 78.565 19.9C78.645 19.9667 78.7383 20 78.845 20H85.185C85.6917 20 86.145 20.1267 86.545 20.38C86.945 20.62 87.265 20.94 87.505 21.34C87.7583 21.74 87.885 22.1867 87.885 22.68V24.32C87.885 24.8133 87.7583 25.26 87.505 25.66C87.265 26.06 86.945 26.3867 86.545 26.64C86.145 26.88 85.6917 27 85.185 27H78.765ZM89.8759 27V15.4H92.2559V27H89.8759ZM89.8759 14V11.6H92.2559V14H89.8759ZM100.07 27L93.6895 15.4H96.4495L101.23 24.18L106.01 15.4H108.77L102.35 27H100.07ZM112.165 27C111.672 27 111.225 26.88 110.825 26.64C110.425 26.3867 110.098 26.06 109.845 25.66C109.605 25.26 109.485 24.8133 109.485 24.32V18.08C109.485 17.5867 109.605 17.14 109.845 16.74C110.098 16.34 110.425 16.02 110.825 15.78C111.225 15.5267 111.672 15.4 112.165 15.4H118.585C119.092 15.4 119.545 15.5267 119.945 15.78C120.345 16.02 120.665 16.34 120.905 16.74C121.145 17.14 121.265 17.5867 121.265 18.08V22.4H111.865V24.24C111.865 24.3467 111.898 24.44 111.965 24.52C112.045 24.5867 112.138 24.62 112.245 24.62H121.265V27H112.165ZM111.865 20.22H118.885V18.16C118.885 18.0533 118.845 17.9667 118.765 17.9C118.698 17.82 118.612 17.78 118.505 17.78H112.245C112.138 17.78 112.045 17.82 111.965 17.9C111.898 17.9667 111.865 18.0533 111.865 18.16V20.22Z" fill="white"/>
<defs>
<linearGradient id="paint0_linear_328_40" x1="-16.5" y1="-13" x2="142" y2="52" gradientUnits="userSpaceOnUse">
<stop stop-color="#02838C"/>
<stop offset="0.280302" stop-color="#025860"/>
<stop offset="0.532986" stop-color="#01FAFF" stop-opacity="0.8"/>
<stop offset="0.76288" stop-color="#004D53"/>
<stop offset="1" stop-color="#02A0A9"/>
</linearGradient>
<linearGradient id="paint1_linear_328_40" x1="67" y1="0" x2="67" y2="42" gradientUnits="userSpaceOnUse">
<stop/>
<stop offset="0.319445" stop-color="#00F0FF"/>
<stop offset="0.590278" stop-color="white"/>
<stop offset="0.77257" stop-color="#00F0FF"/>
<stop offset="1" stop-color="#001F21"/>
</linearGradient>
</defs>
</svg>
