<svg width="390" height="972" viewBox="0 0 390 972" fill="none" xmlns="http://www.w3.org/2000/svg">
<g clip-path="url(#clip0_315_26)">
<circle cx="-96" cy="486" r="486" fill="#7A04EB"/>
</g>
<path d="M146 807.126L88.4 807.126L88.4 754.006L100 754.006L100 795.446L111.36 795.446L111.36 762.086L123.04 762.086L123.04 795.446L134.4 795.446L134.4 754.006L146 754.006L146 807.126ZM146 735.076C146 737.102 145.493 738.996 144.48 740.756C143.413 742.462 142.027 743.822 140.32 744.836C138.613 745.849 136.747 746.356 134.72 746.356L117.04 746.356L117.04 710.676L111.44 710.676C111.333 710.676 111.227 710.729 111.12 710.836C111.013 710.942 110.96 711.049 110.96 711.156L110.96 746.356L99.6 746.356L99.6 710.596C99.6 708.516 100.133 706.622 101.2 704.916C102.213 703.209 103.573 701.849 105.28 700.836C106.987 699.822 108.853 699.316 110.88 699.316L146 699.316L146 735.076ZM134.64 734.516L134.64 710.676L127.2 710.676L127.2 734.996L134.16 734.996C134.267 734.996 134.373 734.942 134.48 734.836C134.587 734.729 134.64 734.622 134.64 734.516ZM146 692.684L110.88 692.684C108.853 692.684 106.987 692.177 105.28 691.164C103.573 690.097 102.213 688.71 101.2 687.004C100.133 685.244 99.6 683.35 99.6 681.324L99.6 655.644L110.96 655.644L110.96 680.844C110.96 680.95 111.013 681.057 111.12 681.164C111.227 681.27 111.333 681.324 111.44 681.324L146 681.324L146 692.684ZM146 649.242L99.6 649.242L99.6 613.482C99.6 611.402 100.133 609.509 101.2 607.802C102.213 606.096 103.573 604.736 105.28 603.722C106.987 602.709 108.853 602.202 110.88 602.202L146 602.202L146 613.562L111.44 613.562C111.333 613.562 111.227 613.616 111.12 613.722C111.013 613.776 110.96 613.882 110.96 614.042L110.96 637.402C110.96 637.509 111.013 637.616 111.12 637.722C111.227 637.829 111.333 637.882 111.44 637.882L146 637.882L146 649.242ZM146 548.865L88.4 569.825L88.4 557.585L124.48 544.385L88.4 531.185L88.4 520.305L124.48 507.025L88.4 493.825L88.4 481.585L146 502.545L146 511.505L107.12 525.745L146 539.905L146 548.865ZM146 476.981L99.6 476.981L99.6 465.621L146 465.621L146 476.981ZM95.84 476.981L84.4 476.981L84.4 465.621L95.84 465.621L95.84 476.981ZM146 446.166C146 448.246 145.493 450.139 144.48 451.846C143.413 453.552 142.027 454.939 140.32 456.006C138.613 457.019 136.747 457.526 134.72 457.526L85.6 457.526L85.6 446.166L99.6 446.166L99.6 428.486L110.96 428.486L110.96 446.166L134.16 446.166C134.267 446.166 134.373 446.112 134.48 446.006C134.587 445.899 134.64 445.792 134.64 445.686L134.64 428.486L146 428.486L146 446.166ZM146 420.414L84.4 420.414L84.4 409.054L99.6 409.054L99.6 384.654C99.6 382.628 100.133 380.761 101.2 379.054C102.213 377.348 103.573 375.988 105.28 374.974C106.987 373.908 108.853 373.374 110.88 373.374L146 373.374L146 384.734L111.44 384.734C111.333 384.734 111.227 384.788 111.12 384.894C111.013 384.948 110.96 385.054 110.96 385.214L110.96 408.574C110.96 408.681 111.013 408.788 111.12 408.894C111.227 409.001 111.333 409.054 111.44 409.054L146 409.054L146 420.414ZM162.88 335.182L151.44 335.182L151.44 307.422C151.44 307.316 151.387 307.209 151.28 307.102C151.173 306.996 151.067 306.942 150.96 306.942L146 306.942L146 331.342C146 333.422 145.493 335.316 144.48 337.022C143.413 338.729 142.027 340.116 140.32 341.182C138.613 342.196 136.747 342.702 134.72 342.702L99.76 342.702L99.76 331.342L134.16 331.342C134.267 331.342 134.373 331.289 134.48 331.182C134.587 331.076 134.64 330.969 134.64 330.862L134.64 307.422C134.64 307.316 134.587 307.209 134.48 307.102C134.373 306.996 134.267 306.942 134.16 306.942L99.76 306.942L99.76 295.582L151.6 295.582C153.68 295.582 155.573 296.089 157.28 297.102C158.987 298.062 160.347 299.422 161.36 301.182C162.373 302.889 162.88 304.782 162.88 306.862L162.88 335.182ZM146 277.968C146 279.995 145.493 281.861 144.48 283.568C143.413 285.275 142.027 286.661 140.32 287.728C138.613 288.741 136.747 289.248 134.72 289.248L110.88 289.248C108.853 289.248 106.987 288.741 105.28 287.728C103.573 286.661 102.213 285.275 101.2 283.568C100.133 281.861 99.6 279.995 99.6 277.968L99.6 253.488C99.6 251.408 100.133 249.515 101.2 247.808C102.213 246.101 103.573 244.741 105.28 243.728C106.987 242.715 108.853 242.208 110.88 242.208L134.72 242.208C136.747 242.208 138.613 242.715 140.32 243.728C142.027 244.741 143.413 246.101 144.48 247.808C145.493 249.515 146 251.408 146 253.488L146 277.968ZM134.64 277.408L134.64 254.048C134.64 253.941 134.587 253.835 134.48 253.728C134.373 253.621 134.267 253.568 134.16 253.568L111.44 253.568C111.333 253.568 111.227 253.621 111.12 253.728C111.013 253.835 110.96 253.941 110.96 254.048L110.96 277.408C110.96 277.515 111.013 277.621 111.12 277.728C111.227 277.835 111.333 277.888 111.44 277.888L134.16 277.888C134.267 277.888 134.373 277.835 134.48 277.728C134.587 277.621 134.64 277.515 134.64 277.408ZM146 224.527C146 226.554 145.493 228.447 144.48 230.207C143.413 231.914 142.027 233.274 140.32 234.287C138.613 235.3 136.747 235.807 134.72 235.807L99.6 235.807L99.6 224.447L134.16 224.447C134.267 224.447 134.373 224.394 134.48 224.287C134.587 224.18 134.64 224.074 134.64 223.967L134.64 200.607C134.64 200.5 134.587 200.394 134.48 200.287C134.373 200.18 134.267 200.127 134.16 200.127L99.6 200.127L99.6 188.767L134.72 188.767C136.747 188.767 138.613 189.274 140.32 190.287C142.027 191.3 143.413 192.66 144.48 194.367C145.493 196.074 146 197.967 146 200.047L146 224.527ZM146 180.262L110.88 180.262C108.853 180.262 106.987 179.755 105.28 178.742C103.573 177.675 102.213 176.289 101.2 174.582C100.133 172.822 99.6 170.929 99.6 168.902L99.6 143.222L110.96 143.222L110.96 168.422C110.96 168.529 111.013 168.635 111.12 168.742C111.227 168.849 111.333 168.902 111.44 168.902L146 168.902L146 180.262ZM246 679.127L195.68 679.127C193.653 679.127 191.787 678.621 190.08 677.607C188.373 676.541 187.013 675.154 186 673.447C184.933 671.741 184.4 669.847 184.4 667.767L184.4 650.087L195.84 650.087L195.84 667.287C195.84 667.394 195.893 667.501 196 667.607C196.107 667.714 196.213 667.767 196.32 667.767L199.6 667.767L199.6 650.087L210.96 650.087L210.96 667.767L246 667.767L246 679.127ZM246 632.458C246 634.485 245.493 636.378 244.48 638.138C243.413 639.845 242.027 641.205 240.32 642.218C238.613 643.232 236.747 643.738 234.72 643.738L217.04 643.738L217.04 608.058L211.44 608.058C211.333 608.058 211.227 608.112 211.12 608.218C211.013 608.325 210.96 608.432 210.96 608.538L210.96 643.738L199.6 643.738L199.6 607.978C199.6 605.898 200.133 604.005 201.2 602.298C202.213 600.592 203.573 599.232 205.28 598.218C206.987 597.205 208.853 596.698 210.88 596.698L246 596.698L246 632.458ZM234.64 631.898L234.64 608.058L227.2 608.058L227.2 632.378L234.16 632.378C234.267 632.378 234.373 632.325 234.48 632.218C234.587 632.112 234.64 632.005 234.64 631.898ZM246 568.042L199.6 593.562L199.6 580.442L231.76 563.002L199.6 545.482L199.6 532.362L246 557.962L246 568.042ZM246 502.485L199.6 502.485L199.6 445.845C199.6 443.711 200.133 441.791 201.2 440.085C202.213 438.378 203.573 437.018 205.28 436.005C206.987 434.991 208.853 434.485 210.88 434.485L246 434.485L246 445.845L211.44 445.845C211.333 445.845 211.227 445.898 211.12 446.005C211.013 446.058 210.96 446.165 210.96 446.325L210.96 462.245C210.96 462.405 211.013 462.538 211.12 462.645C211.227 462.698 211.333 462.725 211.44 462.725L246 462.725L246 474.165L211.44 474.165C211.333 474.165 211.227 474.218 211.12 474.325C211.013 474.431 210.96 474.538 210.96 474.645L210.96 490.645C210.96 490.751 211.013 490.858 211.12 490.965C211.227 491.018 211.333 491.045 211.44 491.045L246 491.045L246 502.485ZM246 413.082C246 415.108 245.493 417.002 244.48 418.762C243.413 420.468 242.027 421.828 240.32 422.842C238.613 423.855 236.747 424.362 234.72 424.362L199.6 424.362L199.6 413.002L234.16 413.002C234.267 413.002 234.373 412.948 234.48 412.842C234.587 412.735 234.64 412.628 234.64 412.522L234.64 389.162C234.64 389.055 234.587 388.948 234.48 388.842C234.373 388.735 234.267 388.682 234.16 388.682L199.6 388.682L199.6 377.322L234.72 377.322C236.747 377.322 238.613 377.828 240.32 378.842C242.027 379.855 243.413 381.215 244.48 382.922C245.493 384.628 246 386.522 246 388.602L246 413.082ZM246 359.575C246 361.602 245.493 363.469 244.48 365.175C243.413 366.882 242.027 368.269 240.32 369.335C238.613 370.349 236.747 370.855 234.72 370.855L232.64 370.855L232.64 359.495L234.16 359.495C234.267 359.495 234.373 359.442 234.48 359.335C234.587 359.229 234.64 359.122 234.64 359.015L234.64 335.655C234.64 335.549 234.587 335.442 234.48 335.335C234.373 335.229 234.267 335.175 234.16 335.175L228.96 335.175C228.853 335.175 228.773 335.229 228.72 335.335C228.613 335.442 228.56 335.549 228.56 335.655L228.56 359.575C228.56 361.602 228.053 363.469 227.04 365.175C225.973 366.882 224.587 368.269 222.88 369.335C221.173 370.349 219.28 370.855 217.2 370.855L210.88 370.855C208.853 370.855 206.987 370.349 205.28 369.335C203.573 368.269 202.213 366.882 201.2 365.175C200.133 363.469 199.6 361.602 199.6 359.575L199.6 335.095C199.6 333.015 200.133 331.122 201.2 329.415C202.213 327.709 203.573 326.349 205.28 325.335C206.987 324.269 208.853 323.735 210.88 323.735L212.96 323.735L212.96 335.175L211.44 335.175C211.333 335.175 211.227 335.229 211.12 335.335C211.013 335.442 210.96 335.549 210.96 335.655L210.96 359.015C210.96 359.122 211.013 359.229 211.12 359.335C211.227 359.442 211.333 359.495 211.44 359.495L216.64 359.495C216.747 359.495 216.853 359.442 216.96 359.335C217.013 359.229 217.04 359.122 217.04 359.015L217.04 335.095C217.04 333.015 217.573 331.122 218.64 329.415C219.653 327.709 221.013 326.349 222.72 325.335C224.427 324.269 226.32 323.735 228.4 323.735L234.72 323.735C236.747 323.735 238.613 324.269 240.32 325.335C242.027 326.349 243.413 327.709 244.48 329.415C245.493 331.122 246 333.015 246 335.095L246 359.575ZM246 315.692L199.6 315.692L199.6 304.332L246 304.332L246 315.692ZM195.84 315.692L184.4 315.692L184.4 304.332L195.84 304.332L195.84 315.692ZM246 285.898C246 287.924 245.493 289.791 244.48 291.498C243.413 293.204 242.027 294.591 240.32 295.658C238.613 296.671 236.747 297.178 234.72 297.178L210.88 297.178C208.853 297.178 206.987 296.671 205.28 295.658C203.573 294.591 202.213 293.204 201.2 291.498C200.133 289.791 199.6 287.924 199.6 285.898L199.6 250.218L210.96 250.218L210.96 285.338C210.96 285.444 211.013 285.551 211.12 285.658C211.227 285.764 211.333 285.818 211.44 285.818L234.16 285.818C234.267 285.818 234.373 285.764 234.48 285.658C234.587 285.551 234.64 285.444 234.64 285.338L234.64 250.138L246 250.138L246 285.898Z" fill="white"/>
<defs>
<clipPath id="clip0_315_26">
<rect width="390" height="972" fill="white"/>
</clipPath>
</defs>
</svg>
