<svg width="720" height="719" viewBox="0 0 720 719" fill="none" xmlns="http://www.w3.org/2000/svg">
<path opacity="0.0714286" d="M540.773 228.883C557.762 237.78 567.825 255.934 566.367 275.055L548.788 505.603C547.103 527.69 530.524 545.756 508.662 549.326L299.112 583.545C279.113 586.811 259.218 577.166 249.394 559.443L131.628 346.988C121.805 329.266 124.168 307.283 137.535 292.054L277.6 132.478C292.212 115.83 316.319 111.344 335.942 121.62L540.773 228.883Z" stroke="url(#paint0_linear_317_4341)" stroke-width="4"/>
<path opacity="0.142857" d="M577.397 310.036C589.558 324.863 591.728 345.506 582.915 362.537L476.651 567.889C466.47 587.562 444.15 597.714 422.631 592.458L216.368 542.079C196.684 537.271 182.139 520.62 180.02 500.467L154.629 258.887C152.511 238.734 163.276 219.422 181.531 210.627L372.813 118.464C392.768 108.849 416.712 114.139 430.76 131.265L577.397 310.036Z" stroke="url(#paint1_linear_317_4341)" stroke-width="4"/>
<path opacity="0.214286" d="M579.399 399.049C584.801 417.449 578.732 437.299 563.965 449.533L385.911 597.039C368.853 611.171 344.34 611.794 326.586 598.548L156.404 471.581C140.163 459.464 133.281 438.453 139.205 419.075L210.225 186.778C216.15 167.4 233.605 153.829 253.846 152.866L465.931 142.769C488.058 141.716 508.031 155.94 514.27 177.194L579.399 399.049Z" stroke="url(#paint2_linear_317_4341)" stroke-width="4"/>
<path opacity="0.285714" d="M546.463 481.768C544.245 500.816 530.903 516.717 512.529 522.208L290.995 588.417C269.771 594.76 246.963 585.756 235.796 566.626L128.753 383.257C118.538 365.757 120.412 343.727 133.437 328.204L289.577 142.123C302.603 126.601 323.972 120.929 342.98 127.951L542.152 201.526C562.93 209.201 575.758 230.099 573.197 252.102L546.463 481.768Z" stroke="url(#paint3_linear_317_4341)" stroke-width="4"/>
<path opacity="0.357143" d="M483.824 545.041C474.34 561.708 455.845 571.132 436.787 569.007L206.993 543.393C184.978 540.939 167.502 523.739 164.697 501.766L137.812 291.149C135.246 271.049 145.579 251.502 163.634 242.303L380.069 132.023C398.124 122.824 420.011 125.953 434.765 139.844L589.355 285.392C605.482 300.576 609.125 324.825 598.17 344.078L483.824 545.041Z" stroke="url(#paint4_linear_317_4341)" stroke-width="4"/>
<path opacity="0.428571" d="M401.441 578.809C386.199 590.446 365.493 591.894 348.779 582.492L147.261 469.126C127.955 458.265 118.589 435.604 124.592 414.282L182.139 209.903C187.631 190.398 204.78 176.443 224.994 175.029L467.313 158.085C487.527 156.671 506.452 168.104 514.605 186.655L600.036 381.036C608.948 401.315 602.827 425.059 585.22 438.501L401.441 578.809Z" stroke="url(#paint5_linear_317_4341)" stroke-width="4"/>
<path opacity="0.5" d="M312.413 577.704C293.835 582.46 274.21 575.703 262.498 560.517L121.296 377.424C107.768 359.883 108.001 335.364 121.858 318.082L254.688 152.436C267.364 136.627 288.603 130.482 307.762 137.079L537.439 216.164C556.599 222.761 569.551 240.679 569.808 260.941L572.497 473.25C572.777 495.399 557.865 514.864 536.406 520.358L312.413 577.704Z" stroke="url(#paint6_linear_317_4341)" stroke-width="4"/>
<path opacity="0.571429" d="M230.894 541.901C211.935 539.021 196.51 525.132 191.663 506.577L133.226 282.867C127.627 261.435 137.422 238.955 156.93 228.463L343.923 127.885C361.769 118.286 383.72 120.928 398.779 134.487L579.297 297.026C594.356 310.585 599.278 332.14 591.597 350.891L511.116 547.373C502.72 567.871 481.387 579.962 459.488 576.635L230.894 541.901Z" stroke="url(#paint7_linear_317_4341)" stroke-width="4"/>
<path opacity="0.642857" d="M169.845 477.092C153.519 467.032 144.747 448.22 147.535 429.247L181.154 200.487C184.374 178.571 202.174 161.706 224.231 159.669L435.658 140.151C455.836 138.288 475.01 149.297 483.573 167.662L586.232 387.815C594.796 406.179 590.904 427.944 576.507 442.204L425.653 591.62C409.915 607.208 385.554 610.002 366.695 598.382L169.845 477.092Z" stroke="url(#paint8_linear_317_4341)" stroke-width="4"/>
<path opacity="0.714286" d="M138.972 393.582C127.874 377.943 127.15 357.199 137.13 340.823L257.46 143.385C268.988 124.47 291.962 115.9 313.061 122.644L515.308 187.288C534.609 193.457 547.957 211.083 548.664 231.334L557.142 474.097C557.849 494.348 545.763 512.862 526.939 520.363L329.695 598.958C309.117 607.157 285.601 600.211 272.782 582.146L138.972 393.582Z" stroke="url(#paint9_linear_317_4341)" stroke-width="4"/>
<path opacity="0.785714" d="M143.184 304.647C139.079 285.914 146.517 266.536 162.102 255.362L350.012 120.636C368.014 107.729 392.51 108.817 409.298 123.269L570.207 261.798C585.564 275.019 590.964 296.459 583.702 315.376L496.651 542.153C489.389 561.071 471.03 573.391 450.771 572.94L238.498 568.217C216.352 567.725 197.42 552.142 192.678 530.504L143.184 304.647Z" stroke="url(#paint10_linear_317_4341)" stroke-width="4"/>
<path opacity="0.857143" d="M181.81 224.427C185.351 205.58 199.77 190.649 218.482 186.452L444.095 135.858C465.71 131.011 487.834 141.584 497.639 161.446L591.63 351.836C600.6 370.006 597.194 391.851 583.118 406.428L414.377 581.163C400.301 595.74 378.588 599.906 360.116 591.576L166.562 504.287C146.369 495.181 135.031 473.439 139.12 451.669L181.81 224.427Z" stroke="url(#paint11_linear_317_4341)" stroke-width="4"/>
<path opacity="0.928571" d="M248.71 165.677C259.334 149.711 278.44 141.601 297.305 145.05L524.752 186.632C546.542 190.615 562.776 208.992 564.041 231.107L576.169 443.087C577.326 463.317 565.655 482.095 547.002 490.013L323.401 584.926C304.749 592.843 283.133 588.195 269.385 573.309L125.324 417.331C110.295 401.059 108.353 376.615 120.624 358.174L248.71 165.677Z" stroke="url(#paint12_linear_317_4341)" stroke-width="4"/>
<path d="M333.248 137.737C349.265 127.191 370.021 127.191 386.038 137.737L579.157 264.884C597.659 277.065 605.422 300.324 597.945 321.175L526.282 521.042C519.443 540.117 501.362 552.841 481.099 552.841H238.188C217.924 552.841 199.843 540.117 193.004 521.042L121.341 321.175C113.864 300.324 121.628 277.065 140.129 264.884L333.248 137.737Z" stroke="url(#paint13_linear_317_4341)" stroke-width="4"/>
<defs>
<linearGradient id="paint0_linear_317_4341" x1="283.818" y1="223.704" x2="437.503" y2="500.958" gradientUnits="userSpaceOnUse">
<stop stop-color="#FF1CF7"/>
<stop offset="1" stop-color="#00F0FF"/>
</linearGradient>
<linearGradient id="paint1_linear_317_4341" x1="342.892" y1="204.868" x2="376.027" y2="520.131" gradientUnits="userSpaceOnUse">
<stop stop-color="#FF1CF7"/>
<stop offset="1" stop-color="#00F0FF"/>
</linearGradient>
<linearGradient id="paint2_linear_317_4341" x1="404.629" y1="210.613" x2="311.947" y2="513.761" gradientUnits="userSpaceOnUse">
<stop stop-color="#FF1CF7"/>
<stop offset="1" stop-color="#00F0FF"/>
</linearGradient>
<linearGradient id="paint3_linear_317_4341" x1="459.214" y1="240.023" x2="255.45" y2="482.859" gradientUnits="userSpaceOnUse">
<stop stop-color="#FF1CF7"/>
<stop offset="1" stop-color="#00F0FF"/>
</linearGradient>
<linearGradient id="paint4_linear_317_4341" x1="497.968" y1="288.423" x2="215.519" y2="432.338" gradientUnits="userSpaceOnUse">
<stop stop-color="#FF1CF7"/>
<stop offset="1" stop-color="#00F0FF"/>
</linearGradient>
<linearGradient id="paint5_linear_317_4341" x1="514.729" y1="348.118" x2="198.502" y2="370.23" gradientUnits="userSpaceOnUse">
<stop stop-color="#FF1CF7"/>
<stop offset="1" stop-color="#00F0FF"/>
</linearGradient>
<linearGradient id="paint6_linear_317_4341" x1="506.834" y1="409.617" x2="207.105" y2="306.412" gradientUnits="userSpaceOnUse">
<stop stop-color="#FF1CF7"/>
<stop offset="1" stop-color="#00F0FF"/>
</linearGradient>
<linearGradient id="paint7_linear_317_4341" x1="475.537" y1="463.142" x2="239.96" y2="251.028" gradientUnits="userSpaceOnUse">
<stop stop-color="#FF1CF7"/>
<stop offset="1" stop-color="#00F0FF"/>
</linearGradient>
<linearGradient id="paint8_linear_317_4341" x1="425.813" y1="500.183" x2="291.843" y2="212.883" gradientUnits="userSpaceOnUse">
<stop stop-color="#FF1CF7"/>
<stop offset="1" stop-color="#00F0FF"/>
</linearGradient>
<linearGradient id="paint9_linear_317_4341" x1="365.57" y1="514.852" x2="354.507" y2="198.046" gradientUnits="userSpaceOnUse">
<stop stop-color="#FF1CF7"/>
<stop offset="1" stop-color="#00F0FF"/>
</linearGradient>
<linearGradient id="paint10_linear_317_4341" x1="304.384" y1="504.815" x2="417.986" y2="208.87" gradientUnits="userSpaceOnUse">
<stop stop-color="#FF1CF7"/>
<stop offset="1" stop-color="#00F0FF"/>
</linearGradient>
<linearGradient id="paint11_linear_317_4341" x1="251.983" y1="471.669" x2="472.19" y2="243.638" gradientUnits="userSpaceOnUse">
<stop stop-color="#FF1CF7"/>
<stop offset="1" stop-color="#00F0FF"/>
</linearGradient>
<linearGradient id="paint12_linear_317_4341" x1="216.7" y1="420.683" x2="508.5" y2="296.821" gradientUnits="userSpaceOnUse">
<stop stop-color="#FF1CF7"/>
<stop offset="1" stop-color="#00F0FF"/>
</linearGradient>
<linearGradient id="paint13_linear_317_4341" x1="204.143" y1="359.964" x2="521.143" y2="359.964" gradientUnits="userSpaceOnUse">
<stop stop-color="#FF1CF7"/>
<stop offset="1" stop-color="#00F0FF"/>
</linearGradient>
</defs>
</svg>
