<svg width="59" height="41" viewBox="0 0 59 41" fill="none" xmlns="http://www.w3.org/2000/svg">
<mask id="path-1-inside-1_120_1747" fill="white">
<path d="M57.7348 19.6893L30.6073 0.599603C30.2998 0.382583 29.9009 0.356461 29.5664 0.529273C29.2338 0.701081 29.0248 1.0457 29.0248 1.42046V19.2814L2.47502 0.610656C2.16858 0.39665 1.7687 0.368517 1.43412 0.54133C1.10156 0.714142 0.892578 1.05876 0.892578 1.43352V39.5879C0.892578 39.9626 1.10156 40.3073 1.43412 40.4801C1.58081 40.5544 1.73956 40.5916 1.8973 40.5916C2.10026 40.5916 2.3022 40.5293 2.47502 40.4087L29.0248 21.739V39.5999C29.0248 39.9747 29.2338 40.3193 29.5664 40.4921C29.7131 40.5675 29.8718 40.6047 30.0295 40.6047C30.2325 40.6047 30.4355 40.5424 30.6073 40.4208L57.7348 21.3311C58.003 21.1442 58.1618 20.8367 58.1618 20.5102C58.1618 20.1837 58.003 19.8762 57.7348 19.6893ZM2.90202 37.6528V3.36862L27.2786 20.5102L2.90202 37.6528ZM31.0343 37.6638V3.35656L55.4119 20.5102L31.0343 37.6638Z"/>
</mask>
<path d="M57.7348 19.6893L30.6073 0.599603C30.2998 0.382583 29.9009 0.356461 29.5664 0.529273C29.2338 0.701081 29.0248 1.0457 29.0248 1.42046V19.2814L2.47502 0.610656C2.16858 0.39665 1.7687 0.368517 1.43412 0.54133C1.10156 0.714142 0.892578 1.05876 0.892578 1.43352V39.5879C0.892578 39.9626 1.10156 40.3073 1.43412 40.4801C1.58081 40.5544 1.73956 40.5916 1.8973 40.5916C2.10026 40.5916 2.3022 40.5293 2.47502 40.4087L29.0248 21.739V39.5999C29.0248 39.9747 29.2338 40.3193 29.5664 40.4921C29.7131 40.5675 29.8718 40.6047 30.0295 40.6047C30.2325 40.6047 30.4355 40.5424 30.6073 40.4208L57.7348 21.3311C58.003 21.1442 58.1618 20.8367 58.1618 20.5102C58.1618 20.1837 58.003 19.8762 57.7348 19.6893ZM2.90202 37.6528V3.36862L27.2786 20.5102L2.90202 37.6528ZM31.0343 37.6638V3.35656L55.4119 20.5102L31.0343 37.6638Z" fill="white"/>
<path d="M57.7348 19.6893L55.7028 22.5769L55.7096 22.5817L55.7165 22.5865L57.7348 19.6893ZM30.6073 0.599603L28.5711 3.48423L28.5753 3.48718L30.6073 0.599603ZM29.5664 0.529273L27.946 -2.60785L27.9457 -2.60772L29.5664 0.529273ZM29.0248 19.2814L26.9937 22.1696L32.5557 26.081V19.2814H29.0248ZM2.47502 0.610656L4.50612 -2.27758L4.49666 -2.28418L2.47502 0.610656ZM1.43412 0.54133L-0.186256 -2.5958L-0.193965 -2.59179L1.43412 0.54133ZM1.43412 40.4801L-0.193965 43.6132L-0.178108 43.6214L-0.162169 43.6295L1.43412 40.4801ZM2.47502 40.4087L4.49534 43.3045L4.50604 43.297L2.47502 40.4087ZM29.0248 21.739H32.5557V14.9396L26.9938 18.8507L29.0248 21.739ZM29.5664 40.4921L27.9383 43.6253L27.9456 43.6291L27.953 43.6329L29.5664 40.4921ZM30.6073 40.4208L28.5753 37.5332L28.5678 37.5385L30.6073 40.4208ZM57.7348 21.3311L55.7165 18.4339L55.7096 18.4387L55.7028 18.4435L57.7348 21.3311ZM2.90202 37.6528H-0.62886V44.4524L4.93313 40.541L2.90202 37.6528ZM2.90202 3.36862L4.93305 0.480354L-0.62886 -3.43077V3.36862H2.90202ZM27.2786 20.5102L29.3097 23.3984L33.4168 20.5101L29.3096 17.6219L27.2786 20.5102ZM31.0343 37.6638H27.5034V44.4658L33.0662 40.5515L31.0343 37.6638ZM31.0343 3.35656L33.0662 0.46893L27.5034 -3.44542V3.35656H31.0343ZM55.4119 20.5102L57.4438 23.3978L61.5475 20.5102L57.4438 17.6226L55.4119 20.5102ZM59.7668 16.8018L32.6393 -2.28798L28.5753 3.48718L55.7028 22.5769L59.7668 16.8018ZM32.6435 -2.28502C31.2505 -3.26829 29.441 -3.38005 27.946 -2.60785L31.1867 3.66639C30.3609 4.09298 29.3491 4.03346 28.5711 3.48422L32.6435 -2.28502ZM27.9457 -2.60772C26.4341 -1.82676 25.4939 -0.268352 25.4939 1.42046H32.5557C32.5557 2.35975 32.0335 3.22892 31.187 3.66627L27.9457 -2.60772ZM25.4939 1.42046V19.2814H32.5557V1.42046H25.4939ZM31.0559 16.3932L4.50611 -2.27756L0.443921 3.49887L26.9937 22.1696L31.0559 16.3932ZM4.49666 -2.28418C3.12037 -3.24533 1.3186 -3.37307 -0.186251 -2.59579L3.0545 3.67845C2.21879 4.11011 1.21678 4.03863 0.453374 3.5055L4.49666 -2.28418ZM-0.193965 -2.59179C-1.69745 -1.81053 -2.63831 -0.256857 -2.63831 1.43352H4.42346C4.42346 2.37438 3.90057 3.23881 3.06221 3.67445L-0.193965 -2.59179ZM-2.63831 1.43352V39.5879H4.42346V1.43352H-2.63831ZM-2.63831 39.5879C-2.63831 41.2783 -1.69745 42.8319 -0.193965 43.6132L3.06221 37.347C3.90057 37.7826 4.42346 38.647 4.42346 39.5879H-2.63831ZM-0.162169 43.6295C0.478695 43.9543 1.18424 44.1225 1.8973 44.1225V37.0607C2.29488 37.0607 2.68293 37.1545 3.03042 37.3306L-0.162169 43.6295ZM1.8973 44.1225C2.82311 44.1225 3.73017 43.8383 4.49532 43.3045L0.45471 37.513C0.874238 37.2203 1.3774 37.0607 1.8973 37.0607V44.1225ZM4.50604 43.297L31.0558 24.6272L26.9938 18.8507L0.443994 37.5205L4.50604 43.297ZM25.4939 21.739V39.5999H32.5557V21.739H25.4939ZM25.4939 39.5999C25.4939 41.2903 26.4348 42.844 27.9383 43.6253L31.1945 37.359C32.0328 37.7947 32.5557 38.6591 32.5557 39.5999H25.4939ZM27.953 43.6329C28.6034 43.967 29.3158 44.1355 30.0295 44.1355V37.0738C30.4278 37.0738 30.8227 37.168 31.1798 37.3514L27.953 43.6329ZM30.0295 44.1355C30.9509 44.1355 31.8687 43.8536 32.6468 43.3031L28.5678 37.5385C29.0022 37.2311 29.5141 37.0738 30.0295 37.0738V44.1355ZM32.6393 43.3084L59.7668 24.2186L55.7028 18.4435L28.5753 37.5332L32.6393 43.3084ZM59.7531 24.2283C60.9791 23.3741 61.6927 21.9794 61.6927 20.5102H54.6309C54.6309 19.6941 55.027 18.9142 55.7165 18.4339L59.7531 24.2283ZM61.6927 20.5102C61.6927 19.041 60.9791 17.6463 59.7531 16.7921L55.7165 22.5865C55.027 22.1062 54.6309 21.3263 54.6309 20.5102H61.6927ZM6.43291 37.6528V3.36862H-0.62886V37.6528H6.43291ZM0.871 6.25689L25.2476 23.3985L29.3096 17.6219L4.93305 0.480354L0.871 6.25689ZM25.2475 17.622L0.87092 34.7646L4.93313 40.541L29.3097 23.3984L25.2475 17.622ZM34.5652 37.6638V3.35656H27.5034V37.6638H34.5652ZM29.0023 6.2442L53.3799 23.3978L57.4438 17.6226L33.0662 0.46893L29.0023 6.2442ZM53.3799 17.6226L29.0023 34.7762L33.0662 40.5515L57.4438 23.3978L53.3799 17.6226Z" fill="white" mask="url(#path-1-inside-1_120_1747)"/>
</svg>
