<svg width="58" height="41" viewBox="0 0 58 41" fill="none" xmlns="http://www.w3.org/2000/svg">
<mask id="path-1-inside-1_120_1748" fill="white">
<path d="M0.426836 21.6537L27.5544 40.7434C27.8618 40.9604 28.2607 40.9866 28.5953 40.8137C28.9278 40.6419 29.1368 40.2973 29.1368 39.9226L29.1368 22.0616L55.6866 40.7324C55.993 40.9464 56.3929 40.9745 56.7275 40.8017C57.0601 40.6289 57.269 40.2843 57.269 39.9095L57.269 1.75513C57.269 1.38037 57.0601 1.03576 56.7275 0.862942C56.5808 0.788593 56.4221 0.751415 56.2643 0.751415C56.0614 0.751415 55.8594 0.813709 55.6866 0.934276L29.1368 19.604L29.1368 1.74307C29.1368 1.36831 28.9278 1.02369 28.5953 0.850881C28.4486 0.775525 28.2898 0.738351 28.1321 0.738351C27.9291 0.738351 27.7262 0.800645 27.5544 0.922216L0.426836 20.012C0.158575 20.1988 -0.000169876 20.5063 -0.000169905 20.8328C-0.000169933 21.1593 0.158575 21.4668 0.426836 21.6537ZM55.2596 3.69023L55.2596 37.9744L30.883 20.8328L55.2596 3.69023ZM27.1274 3.67917L27.1274 37.9865L2.74976 20.8328L27.1274 3.67917Z"/>
</mask>
<path d="M0.426836 21.6537L27.5544 40.7434C27.8618 40.9604 28.2607 40.9866 28.5953 40.8137C28.9278 40.6419 29.1368 40.2973 29.1368 39.9226L29.1368 22.0616L55.6866 40.7324C55.993 40.9464 56.3929 40.9745 56.7275 40.8017C57.0601 40.6289 57.269 40.2843 57.269 39.9095L57.269 1.75513C57.269 1.38037 57.0601 1.03576 56.7275 0.862942C56.5808 0.788593 56.4221 0.751415 56.2643 0.751415C56.0614 0.751415 55.8594 0.813709 55.6866 0.934276L29.1368 19.604L29.1368 1.74307C29.1368 1.36831 28.9278 1.02369 28.5953 0.850881C28.4486 0.775525 28.2898 0.738351 28.1321 0.738351C27.9291 0.738351 27.7262 0.800645 27.5544 0.922216L0.426836 20.012C0.158575 20.1988 -0.000169876 20.5063 -0.000169905 20.8328C-0.000169933 21.1593 0.158575 21.4668 0.426836 21.6537ZM55.2596 3.69023L55.2596 37.9744L30.883 20.8328L55.2596 3.69023ZM27.1274 3.67917L27.1274 37.9865L2.74976 20.8328L27.1274 3.67917Z" fill="white"/>
<path d="M0.426836 21.6537L2.45884 18.7661L2.45198 18.7613L2.4451 18.7565L0.426836 21.6537ZM27.5544 40.7434L29.5906 37.8588L29.5864 37.8558L27.5544 40.7434ZM28.5953 40.8137L30.2156 43.9509L30.2159 43.9507L28.5953 40.8137ZM29.1368 22.0616L31.1679 19.1734L25.6059 15.262L25.6059 22.0616L29.1368 22.0616ZM55.6866 40.7324L53.6555 43.6206L53.665 43.6272L55.6866 40.7324ZM56.7275 40.8017L58.3479 43.9388L58.3556 43.9348L56.7275 40.8017ZM56.7275 0.862942L58.3556 -2.27018L58.3397 -2.27842L58.3238 -2.2865L56.7275 0.862942ZM55.6866 0.934276L53.6663 -1.96152L53.6556 -1.95399L55.6866 0.934276ZM29.1368 19.604L25.6059 19.604L25.6059 26.4034L31.1678 22.4923L29.1368 19.604ZM28.5953 0.850881L30.2233 -2.28224L30.216 -2.28606L30.2086 -2.28984L28.5953 0.850881ZM27.5544 0.922216L29.5864 3.8098L29.5939 3.8045L27.5544 0.922216ZM0.426836 20.012L2.4451 22.9091L2.45198 22.9044L2.45884 22.8995L0.426836 20.012ZM55.2596 3.69023L58.7905 3.69023L58.7905 -3.10939L53.2285 0.802021L55.2596 3.69023ZM55.2596 37.9744L53.2286 40.8627L58.7905 44.7738L58.7905 37.9744L55.2596 37.9744ZM30.883 20.8328L28.8519 17.9446L24.7448 20.8329L28.852 23.7211L30.883 20.8328ZM27.1274 3.67917L30.6582 3.67917L30.6582 -3.12281L25.0954 0.791543L27.1274 3.67917ZM27.1274 37.9865L25.0954 40.8741L30.6582 44.7884L30.6582 37.9865L27.1274 37.9865ZM2.74976 20.8328L0.717833 17.9452L-3.38588 20.8328L0.717832 23.7204L2.74976 20.8328ZM-1.60517 24.5412L25.5224 43.631L29.5864 37.8558L2.45884 18.7661L-1.60517 24.5412ZM25.5182 43.628C26.9111 44.6113 28.7206 44.7231 30.2156 43.9509L26.9749 37.6766C27.8008 37.25 28.8125 37.3096 29.5906 37.8588L25.5182 43.628ZM30.2159 43.9507C31.7276 43.1698 32.6677 41.6114 32.6677 39.9226L25.6059 39.9226C25.6059 38.9833 26.1281 38.1141 26.9746 37.6767L30.2159 43.9507ZM32.6677 39.9226L32.6677 22.0616L25.6059 22.0616L25.6059 39.9226L32.6677 39.9226ZM27.1057 24.9498L53.6555 43.6206L57.7177 37.8441L31.1679 19.1734L27.1057 24.9498ZM53.665 43.6272C55.0412 44.5883 56.843 44.7161 58.3479 43.9388L55.1071 37.6646C55.9428 37.2329 56.9448 37.3044 57.7082 37.8375L53.665 43.6272ZM58.3556 43.9348C59.8591 43.1535 60.7999 41.5999 60.7999 39.9095L53.7382 39.9095C53.7382 38.9686 54.261 38.1042 55.0994 37.6686L58.3556 43.9348ZM60.7999 39.9095L60.7999 1.75513L53.7382 1.75513L53.7382 39.9095L60.7999 39.9095ZM60.7999 1.75513C60.7999 0.0647586 59.8591 -1.48891 58.3556 -2.27018L55.0994 3.99607C54.261 3.56042 53.7382 2.69599 53.7382 1.75513L60.7999 1.75513ZM58.3238 -2.2865C57.6829 -2.61132 56.9774 -2.77947 56.2643 -2.77947L56.2643 4.2823C55.8667 4.2823 55.4787 4.18851 55.1312 4.01238L58.3238 -2.2865ZM56.2643 -2.77947C55.3385 -2.77947 54.4315 -2.49532 53.6663 -1.9615L57.7069 3.83005C57.2874 4.12274 56.7842 4.2823 56.2643 4.2823L56.2643 -2.77947ZM53.6556 -1.95399L27.1058 16.7158L31.1678 22.4923L57.7176 3.82254L53.6556 -1.95399ZM32.6677 19.604L32.6677 1.74307L25.6059 1.74307L25.6059 19.604L32.6677 19.604ZM32.6677 1.74307C32.6677 0.0527017 31.7268 -1.50097 30.2233 -2.28224L26.9672 3.98401C26.1288 3.54836 25.6059 2.68393 25.6059 1.74307L32.6677 1.74307ZM30.2086 -2.28984C29.5583 -2.62395 28.8458 -2.79253 28.1321 -2.79253L28.1321 4.26923C27.7338 4.26923 27.3389 4.175 26.9819 3.9916L30.2086 -2.28984ZM28.1321 -2.79253C27.2108 -2.79253 26.2929 -2.51062 25.5149 -1.96007L29.5939 3.8045C29.1594 4.11191 28.6475 4.26924 28.1321 4.26923L28.1321 -2.79253ZM25.5224 -1.96537L-1.60517 17.1244L2.45884 22.8995L29.5864 3.8098L25.5224 -1.96537ZM-1.59143 17.1148C-2.81751 17.9689 -3.53105 19.3636 -3.53105 20.8328L3.53071 20.8328C3.53071 21.6489 3.13466 22.4288 2.4451 22.9091L-1.59143 17.1148ZM-3.53105 20.8328C-3.53105 22.302 -2.81751 23.6967 -1.59143 24.5509L2.4451 18.7565C3.13466 19.2368 3.53071 20.0167 3.53071 20.8328L-3.53105 20.8328ZM51.7287 3.69023L51.7287 37.9744L58.7905 37.9744L58.7905 3.69023L51.7287 3.69023ZM57.2906 35.0861L32.914 17.9445L28.852 23.7211L53.2286 40.8627L57.2906 35.0861ZM32.9141 23.721L57.2907 6.57844L53.2285 0.802021L28.8519 17.9446L32.9141 23.721ZM23.5965 3.67917L23.5965 37.9865L30.6582 37.9865L30.6582 3.67917L23.5965 3.67917ZM29.1593 35.0988L4.78168 17.9452L0.717832 23.7204L25.0954 40.8741L29.1593 35.0988ZM4.78168 23.7204L29.1593 6.56681L25.0954 0.791543L0.717833 17.9452L4.78168 23.7204Z" fill="white" mask="url(#path-1-inside-1_120_1748)"/>
</svg>
