<svg width="799" height="158" viewBox="0 0 799 158" fill="none" xmlns="http://www.w3.org/2000/svg">
<path d="M966.5 93.2206C943.603 67.8893 888.495 26.7092 851.239 64.6389C813.983 102.569 762.368 80.4429 741.217 64.6389C723.754 42.446 681.724 4.71799 653.316 31.3495C617.807 64.6389 592.775 134.58 546.205 104.317C499.635 74.0541 428.034 -1.93989 408.824 31.3495C389.614 64.6389 351.193 161.481 285.413 104.317C219.633 47.1536 191.691 -17.7439 136.971 31.3495C93.1952 70.6242 29.0837 69.9069 2.5 64.6389" stroke="#A84DFF" stroke-width="2"/>
<path d="M7 78.5C29.4561 94.4493 97.5624 135.998 134.101 112.116C170.64 88.2347 221.261 102.166 242.005 112.116C259.132 126.09 300.353 149.844 328.213 133.076C363.039 112.116 387.589 68.0793 433.262 87.1337C478.936 106.188 549.159 154.036 567.999 133.076C586.839 112.116 624.52 51.1419 689.034 87.1337C753.548 123.125 780.952 163.987 834.618 133.076C877.551 108.348 940.428 108.799 966.5 112.116" stroke="#A84DFF" stroke-width="2"/>
<path d="M966.5 91.8996C922.1 69.3594 828.673 29.4342 810.16 50.0551C787.02 75.8313 772.345 162.533 737.352 147.804C702.359 133.075 635.76 44.3643 595.123 50.0551C554.486 55.746 551.664 165.211 498.61 156.507C445.556 147.804 472.648 52.7332 408.306 35.9954C343.964 19.2576 360.896 109.307 321.388 124.706C281.879 140.104 267.769 135.753 251.402 85.8741C235.034 35.9954 193.268 -22.2521 163.355 10.554C133.441 43.3601 157.146 92.5691 111.43 112.32C65.7131 132.07 31.849 48.0466 30.7202 42.021C29.8171 37.2005 10.0304 35.4506 1 34" stroke="#A84DFF"/>
</svg>
