<svg width="1920" height="1615" viewBox="0 0 1920 1615" fill="none" xmlns="http://www.w3.org/2000/svg">
<g filter="url(#filter0_f_119_114)">
<path opacity="0.010101" d="M735.707 812.583L1006.76 314.787C1010.52 307.875 1018.28 304.137 1026.08 305.479L1595.26 403.483C1603.22 404.853 1609.41 411.203 1610.56 419.181L1690.86 977.119C1692 985.097 1687.85 992.867 1680.59 996.326L1161.11 1243.73C1154 1247.12 1145.49 1245.62 1139.92 1239.99L738.851 834.431C733.093 828.608 731.815 819.73 735.707 812.583Z" stroke="url(#paint0_linear_119_114)" stroke-width="3"/>
<path opacity="0.020202" d="M730.033 805.728L1009.4 313.575C1013.29 306.729 1021.11 303.124 1028.88 304.599L1595.14 412.082C1603.08 413.588 1609.15 420.044 1610.15 428.041L1680.33 986.184C1681.34 994.182 1677.05 1001.88 1669.72 1005.21L1146.91 1243.28C1139.74 1246.54 1131.25 1244.89 1125.79 1239.17L732.787 827.632C727.132 821.711 726.013 812.81 730.033 805.728Z" stroke="url(#paint1_linear_119_114)" stroke-width="3"/>
<path opacity="0.030303" d="M724.517 798.892L1012.09 312.513C1016.09 305.735 1023.98 302.264 1031.72 303.87L1594.89 420.764C1602.8 422.404 1608.75 428.963 1609.62 436.978L1669.69 995.152C1670.56 1003.17 1666.13 1010.79 1658.75 1014L1132.76 1242.68C1125.54 1245.82 1117.09 1244.03 1111.72 1238.21L726.88 820.844C721.331 814.826 720.37 805.905 724.517 798.892Z" stroke="url(#paint2_linear_119_114)" stroke-width="3"/>
<path opacity="0.040404" d="M719.156 792.076L1014.8 311.6C1018.93 304.892 1026.87 301.556 1034.58 303.294L1594.51 429.525C1602.38 431.3 1608.22 437.96 1608.94 445.989L1658.93 1004.02C1659.65 1012.05 1655.09 1019.6 1647.65 1022.68L1118.68 1241.94C1111.4 1244.96 1102.98 1243.02 1097.72 1237.11L721.127 814.069C715.685 807.957 714.885 799.018 719.156 792.076Z" stroke="url(#paint3_linear_119_114)" stroke-width="3"/>
<path opacity="0.050505" d="M713.952 785.284L1017.55 310.837C1021.8 304.201 1029.8 301.001 1037.48 302.87L1593.99 438.363C1601.83 440.271 1607.55 447.031 1608.12 455.072L1648.06 1012.79C1648.63 1020.83 1643.94 1028.3 1636.44 1031.26L1104.66 1241.06C1097.33 1243.96 1088.95 1241.87 1083.8 1235.88L715.529 807.31C710.197 801.105 709.556 792.153 713.952 785.284Z" stroke="url(#paint4_linear_119_114)" stroke-width="3"/>
<path opacity="0.0606061" d="M708.901 778.514L1020.33 310.222C1024.7 303.659 1032.75 300.596 1040.39 302.595L1593.33 447.272C1601.13 449.314 1606.73 456.171 1607.16 464.221L1637.07 1021.45C1637.5 1029.5 1632.67 1036.89 1625.13 1039.72L1090.7 1240.04C1083.32 1242.81 1074.98 1240.59 1069.94 1234.51L710.085 800.567C704.864 794.271 704.383 785.308 708.901 778.514Z" stroke="url(#paint5_linear_119_114)" stroke-width="3"/>
<path opacity="0.0707071" d="M704.007 771.773L1023.14 309.757C1027.62 303.269 1035.73 300.345 1043.33 302.473L1592.54 456.254C1600.3 458.429 1605.78 465.38 1606.06 473.437L1625.97 1030.01C1626.26 1038.07 1621.29 1045.37 1613.7 1048.07L1076.82 1238.89C1069.39 1241.53 1061.09 1239.16 1056.16 1233L704.797 793.845C699.689 787.461 699.368 778.49 704.007 771.773Z" stroke="url(#paint6_linear_119_114)" stroke-width="3"/>
<path opacity="0.0808081" d="M699.265 765.065L1025.97 309.443C1030.57 303.034 1038.73 300.248 1046.29 302.506L1591.6 465.306C1599.33 467.613 1604.68 474.657 1604.82 482.717L1614.76 1038.46C1614.9 1046.52 1609.81 1053.74 1602.17 1056.31L1063 1237.6C1055.53 1240.11 1047.27 1237.61 1042.45 1231.36L699.66 787.147C694.667 780.677 694.506 771.701 699.265 765.065Z" stroke="url(#paint7_linear_119_114)" stroke-width="3"/>
<path opacity="0.0909091" d="M694.675 758.388L1028.83 309.279C1033.54 302.949 1041.74 300.303 1049.26 302.689L1590.53 474.424C1598.22 476.862 1603.44 483.996 1603.44 492.058V1046.81C1603.44 1054.87 1598.22 1062 1590.53 1064.44L1049.26 1236.17C1041.74 1238.56 1033.54 1235.91 1028.83 1229.58L694.675 780.475C689.798 773.92 689.798 764.943 694.675 758.388Z" stroke="url(#paint8_linear_119_114)" stroke-width="3"/>
<path opacity="0.10101" d="M690.237 751.747L1031.7 309.264C1036.52 303.015 1044.77 300.509 1052.25 303.023L1589.32 483.604C1596.96 486.173 1602.05 493.395 1601.91 501.455L1592.01 1055.04C1591.87 1063.1 1586.52 1070.14 1578.79 1072.45L1035.6 1234.62C1028.03 1236.87 1019.88 1234.09 1015.28 1227.68L689.842 773.829C685.084 767.193 685.244 758.217 690.237 751.747Z" stroke="url(#paint9_linear_119_114)" stroke-width="3"/>
<path opacity="0.111111" d="M685.951 745.146L1034.58 309.402C1039.52 303.236 1047.82 300.871 1055.25 303.512L1587.96 492.848C1595.56 495.547 1600.52 502.854 1600.23 510.911L1580.48 1063.16C1580.19 1071.22 1574.72 1078.17 1566.96 1080.34L1022.01 1232.93C1014.41 1235.06 1006.3 1232.13 1001.82 1225.65L685.161 767.217C680.522 760.501 680.843 751.53 685.951 745.146Z" stroke="url(#paint10_linear_119_114)" stroke-width="3"/>
<path opacity="0.121212" d="M681.813 738.583L1037.49 309.687C1042.53 303.606 1050.87 301.383 1058.25 304.15L1586.47 502.149C1594.01 504.976 1598.84 512.366 1598.41 520.416L1568.85 1071.17C1568.42 1079.22 1562.82 1086.07 1555.02 1088.11L1008.5 1231.11C1000.86 1233.11 992.807 1230.05 988.442 1223.49L680.629 760.636C676.111 753.842 676.592 744.879 681.813 738.583Z" stroke="url(#paint11_linear_119_114)" stroke-width="3"/>
<path opacity="0.131313" d="M677.824 732.067L1040.4 310.126C1045.55 304.131 1053.93 302.05 1061.26 304.943L1584.83 511.508C1592.32 514.463 1597.02 521.934 1596.44 529.975L1557.12 1079.06C1556.55 1087.1 1550.83 1093.86 1542.99 1095.77L995.076 1229.17C987.401 1231.04 979.401 1227.84 975.154 1221.2L676.247 754.093C671.851 747.224 672.492 738.272 677.824 732.067Z" stroke="url(#paint12_linear_119_114)" stroke-width="3"/>
<path opacity="0.141414" d="M673.983 725.595L1043.32 310.713C1048.57 304.806 1056.99 302.868 1064.27 305.887L1583.05 520.919C1590.49 524.002 1595.05 531.551 1594.33 539.58L1545.3 1086.84C1544.58 1094.87 1538.74 1101.53 1530.87 1103.3L981.735 1227.1C974.027 1228.84 966.084 1225.5 961.956 1218.79L672.013 747.588C667.741 740.646 668.542 731.708 673.983 725.595Z" stroke="url(#paint13_linear_119_114)" stroke-width="3"/>
<path opacity="0.151515" d="M670.289 719.171L1046.24 311.449C1051.6 305.633 1060.05 303.838 1067.28 306.981L1581.12 530.38C1588.5 533.59 1592.93 541.215 1592.07 549.229L1533.38 1094.5C1532.52 1102.51 1526.56 1109.07 1518.66 1110.71L968.481 1224.91C960.742 1226.51 952.859 1223.04 948.851 1216.26L667.926 741.123C663.78 734.111 664.74 725.189 670.289 719.171Z" stroke="url(#paint14_linear_119_114)" stroke-width="3"/>
<path opacity="0.161616" d="M666.74 712.799L1049.17 312.336C1054.63 306.611 1063.12 304.961 1070.29 308.227L1579.05 539.891C1586.37 543.226 1590.67 550.924 1589.66 558.922L1521.37 1102.04C1520.36 1110.03 1514.29 1116.49 1506.36 1118L955.316 1222.59C947.547 1224.06 939.725 1220.46 935.839 1213.61L663.985 734.703C659.966 727.622 661.085 718.72 666.74 712.799Z" stroke="url(#paint15_linear_119_114)" stroke-width="3"/>
<path opacity="0.171717" d="M663.333 706.481L1052.09 313.373C1057.66 307.742 1066.17 306.237 1073.29 309.625L1576.83 549.448C1584.09 552.907 1588.25 560.677 1587.1 568.655L1509.27 1109.46C1508.12 1117.43 1501.93 1123.79 1493.97 1125.16L942.24 1220.15C934.445 1221.5 926.686 1217.76 922.923 1210.85L660.189 728.329C656.297 721.182 657.575 712.304 663.333 706.481Z" stroke="url(#paint16_linear_119_114)" stroke-width="3"/>
<path opacity="0.181818" d="M660.07 700.218L1055.01 314.559C1060.68 309.023 1069.22 307.663 1076.28 311.173L1574.47 559.048C1581.67 562.631 1585.68 570.468 1584.39 578.424L1497.08 1116.75C1495.79 1124.71 1489.49 1130.95 1481.51 1132.19L929.258 1217.6C921.438 1218.81 913.745 1214.94 910.105 1207.96L656.537 722.003C652.774 714.793 654.21 705.941 660.07 700.218Z" stroke="url(#paint17_linear_119_114)" stroke-width="3"/>
<path opacity="0.191919" d="M656.949 694.013L1057.93 315.893C1063.7 310.454 1072.26 309.24 1079.26 312.87L1571.96 568.688C1579.09 572.393 1582.97 580.297 1581.54 588.227L1484.8 1123.93C1483.37 1131.86 1476.96 1137.99 1468.96 1139.09L916.371 1214.93C908.528 1216 900.903 1212 897.388 1204.96L653.028 715.728C649.396 708.456 650.989 699.634 656.949 694.013Z" stroke="url(#paint18_linear_119_114)" stroke-width="3"/>
<path opacity="0.20202" d="M653.967 687.866L1060.83 317.373C1066.7 312.032 1075.29 310.964 1082.22 314.715L1569.3 578.363C1576.37 582.19 1580.1 590.157 1578.53 598.06L1472.45 1130.98C1470.88 1138.88 1464.36 1144.9 1456.34 1145.86L903.58 1212.14C895.716 1213.08 888.161 1208.95 884.772 1201.85L649.66 709.503C646.16 702.173 647.909 693.382 653.967 687.866Z" stroke="url(#paint19_linear_119_114)" stroke-width="3"/>
<path opacity="0.212121" d="M651.123 681.785L1063.73 319.005C1069.69 313.764 1078.3 312.842 1085.17 316.712L1566.5 588.077C1573.5 592.024 1577.09 600.052 1575.37 607.925L1460.01 1137.9C1458.3 1145.78 1451.67 1151.68 1443.64 1152.51L890.886 1209.24C883.004 1210.05 875.521 1205.79 872.259 1198.63L646.432 703.338C643.064 695.951 644.97 687.196 651.123 681.785Z" stroke="url(#paint20_linear_119_114)" stroke-width="3"/>
<path opacity="0.222222" d="M648.419 675.767L1066.61 320.781C1072.67 315.642 1081.3 314.868 1088.09 318.855L1563.55 597.822C1570.48 601.887 1573.92 609.973 1572.07 617.814L1447.5 1144.7C1445.64 1152.54 1438.92 1158.33 1430.87 1159.02L878.296 1206.23C870.398 1206.9 862.989 1202.51 859.854 1195.3L643.346 697.227C640.111 689.787 642.172 681.07 648.419 675.767Z" stroke="url(#paint21_linear_119_114)" stroke-width="3"/>
<path opacity="0.232323" d="M645.848 669.818L1069.48 322.707C1075.62 317.67 1084.27 317.043 1091 321.148L1560.45 607.598C1567.3 611.781 1570.6 619.923 1568.61 627.729L1434.91 1151.37C1432.92 1159.18 1426.09 1164.85 1418.02 1165.4L865.805 1203.11C857.893 1203.65 850.56 1199.13 847.554 1191.87L640.394 691.179C637.294 683.687 639.51 675.012 645.848 669.818Z" stroke="url(#paint22_linear_119_114)" stroke-width="3"/>
<path opacity="0.242424" d="M643.413 663.938L1072.32 324.778C1078.56 319.846 1087.22 319.367 1093.87 323.587L1557.2 617.401C1563.98 621.701 1567.13 629.896 1565 637.664L1422.25 1157.91C1420.11 1165.68 1413.19 1171.24 1405.11 1171.65L853.42 1199.88C845.496 1200.29 838.241 1195.65 835.364 1188.33L637.58 685.194C634.616 677.653 636.985 669.021 643.413 663.938Z" stroke="url(#paint23_linear_119_114)" stroke-width="3"/>
<path opacity="0.252525" d="M641.11 658.128L1075.14 326.993C1081.47 322.167 1090.14 321.836 1096.72 326.171L1553.8 627.227C1560.5 631.642 1563.51 639.887 1561.24 647.616L1409.51 1164.32C1407.25 1172.05 1400.22 1177.49 1392.14 1177.76L841.14 1196.55C833.206 1196.82 826.031 1192.05 823.286 1184.69L634.902 679.27C632.074 671.683 634.595 663.099 641.11 658.128Z" stroke="url(#paint24_linear_119_114)" stroke-width="3"/>
<path opacity="0.262626" d="M638.938 652.392L1077.94 329.353C1084.36 324.634 1093.04 324.452 1099.54 328.901L1550.26 637.076C1556.88 641.604 1559.74 649.897 1557.33 657.583L1396.71 1170.6C1394.31 1178.29 1387.19 1183.6 1379.1 1183.74L828.967 1193.11C821.026 1193.25 813.933 1188.36 811.319 1180.94L632.356 673.414C629.665 665.784 632.338 657.249 638.938 652.392Z" stroke="url(#paint25_linear_119_114)" stroke-width="3"/>
<path opacity="0.272727" d="M636.896 646.733L1080.72 331.858C1087.21 327.248 1095.9 327.215 1102.33 331.776L1546.56 646.945C1553.1 651.585 1555.82 659.924 1553.28 667.565L1383.85 1176.75C1381.31 1184.39 1374.09 1189.58 1366.01 1189.58L816.904 1189.58C808.958 1189.58 801.949 1184.57 799.467 1177.11L629.943 667.628C627.391 659.956 630.213 651.474 636.896 646.733Z" stroke="url(#paint26_linear_119_114)" stroke-width="3"/>
<path opacity="0.282828" d="M634.982 641.152L1083.46 334.507C1090.04 330.008 1098.73 330.124 1105.08 334.796L1542.72 656.831C1549.18 661.583 1551.74 669.964 1549.07 677.558L1370.92 1182.77C1368.24 1190.36 1360.94 1195.42 1352.85 1195.28L804.951 1185.94C797.002 1185.81 790.08 1180.67 787.731 1173.17L627.661 661.914C625.247 654.203 628.219 645.777 634.982 641.152Z" stroke="url(#paint27_linear_119_114)" stroke-width="3"/>
<path opacity="0.292929" d="M633.193 635.652L1086.17 337.299C1092.83 332.911 1101.52 333.177 1107.79 337.959L1538.73 666.731C1545.1 671.593 1547.52 680.014 1544.7 687.558L1357.93 1188.65C1355.12 1196.19 1347.73 1201.13 1339.64 1200.85L793.11 1182.21C785.16 1181.94 778.325 1176.69 776.11 1169.15L625.507 656.273C623.232 648.527 626.351 640.158 633.193 635.652Z" stroke="url(#paint28_linear_119_114)" stroke-width="3"/>
<path opacity="0.30303" d="M631.53 630.232L1088.84 340.231C1095.58 335.956 1104.27 336.371 1110.46 341.262L1534.59 676.641C1540.87 681.611 1543.14 690.07 1540.2 697.562L1344.89 1194.4C1341.94 1201.89 1334.46 1206.69 1326.39 1206.28L781.384 1178.39C773.435 1177.98 766.691 1172.61 764.611 1165.03L623.482 650.706C621.347 642.926 624.613 634.618 631.53 630.232Z" stroke="url(#paint29_linear_119_114)" stroke-width="3"/>
<path opacity="0.313131" d="M629.989 624.898L1091.48 343.305C1098.3 339.145 1106.99 339.709 1113.09 344.708L1530.3 686.562C1536.49 691.639 1538.61 700.133 1535.53 707.57L1331.79 1200.01C1328.71 1207.45 1321.15 1212.12 1313.08 1211.57L769.772 1174.47C761.827 1173.93 755.175 1168.44 753.23 1160.82L621.581 645.218C619.587 637.407 622.998 629.164 629.989 624.898Z" stroke="url(#paint30_linear_119_114)" stroke-width="3"/>
<path opacity="0.323232" d="M628.57 619.647L1094.08 346.517C1100.97 342.472 1109.65 343.186 1115.67 348.291L1525.86 696.487C1531.97 701.669 1533.93 710.195 1530.72 717.576L1318.63 1205.48C1315.43 1212.86 1307.78 1217.41 1299.72 1216.72L758.277 1170.46C750.339 1169.78 743.78 1164.18 741.971 1156.53L619.806 639.808C617.953 631.969 621.507 623.791 628.57 619.647Z" stroke="url(#paint31_linear_119_114)" stroke-width="3"/>
<path opacity="0.333333" d="M627.269 614.487L1096.63 349.871C1103.6 345.943 1112.27 346.806 1118.2 352.016L1521.28 706.418C1527.29 711.704 1529.1 720.26 1525.76 727.581L1305.43 1210.83C1302.09 1218.15 1294.37 1222.56 1286.32 1221.73L746.9 1166.37C738.97 1165.55 732.507 1159.83 730.835 1152.15L618.152 634.481C616.44 626.616 620.138 618.508 627.269 614.487Z" stroke="url(#paint32_linear_119_114)" stroke-width="3"/>
<path opacity="0.343434" d="M626.085 609.415L1099.14 353.36C1106.18 349.55 1114.84 350.562 1120.68 355.876L1516.54 716.349C1522.46 721.737 1524.12 730.319 1520.65 737.579L1292.18 1216.03C1288.71 1223.29 1280.91 1227.56 1272.88 1226.6L735.642 1162.18C727.722 1161.23 721.357 1155.4 719.822 1147.69L616.619 629.237C615.049 621.348 618.887 613.311 626.085 609.415Z" stroke="url(#paint33_linear_119_114)" stroke-width="3"/>
<path opacity="0.353535" d="M625.017 604.437L1101.6 356.988C1108.71 353.297 1117.36 354.459 1123.11 359.876L1511.66 726.28C1517.48 731.769 1518.99 740.375 1515.4 747.571L1278.89 1221.1C1275.29 1228.29 1267.42 1232.43 1259.4 1231.33L724.505 1157.92C716.598 1156.84 710.333 1150.89 708.935 1143.15L615.206 624.079C613.778 616.17 617.755 608.207 625.017 604.437Z" stroke="url(#paint34_linear_119_114)" stroke-width="3"/>
<path opacity="0.363636" d="M624.062 599.55L1104.01 360.75C1111.19 357.18 1119.83 358.491 1125.48 364.008L1506.63 736.206C1512.35 741.793 1513.71 750.421 1509.99 757.551L1265.55 1226.02C1261.83 1233.15 1253.88 1237.15 1245.89 1235.92L713.489 1153.57C705.597 1152.35 699.434 1146.3 698.174 1138.53L613.909 619.008C612.623 611.08 616.738 603.194 624.062 599.55Z" stroke="url(#paint35_linear_119_114)" stroke-width="3"/>
<path opacity="0.373737" d="M623.22 594.76L1106.38 364.648C1113.62 361.199 1122.24 362.66 1127.79 368.277L1501.46 746.126C1507.08 751.811 1508.28 760.458 1504.44 767.52L1252.17 1230.81C1248.33 1237.88 1240.31 1241.74 1232.34 1240.36L702.599 1149.15C694.724 1147.8 688.664 1141.63 687.543 1133.84L612.729 614.027C611.586 606.084 615.837 598.276 623.22 594.76Z" stroke="url(#paint36_linear_119_114)" stroke-width="3"/>
<path opacity="0.383838" d="M622.485 590.066L1108.68 368.677C1115.99 365.352 1124.58 366.962 1130.04 372.676L1496.13 756.036C1501.65 761.816 1502.71 770.479 1498.74 777.471L1238.76 1235.46C1234.79 1242.46 1226.71 1246.18 1218.76 1244.67L691.83 1144.65C683.975 1143.16 678.02 1136.89 677.038 1129.08L611.66 609.135C610.66 601.18 615.046 593.453 622.485 590.066Z" stroke="url(#paint37_linear_119_114)" stroke-width="3"/>
<path opacity="0.393939" d="M621.86 585.472L1110.93 372.84C1118.3 369.639 1126.87 371.397 1132.23 377.209L1490.67 765.935C1496.08 771.809 1496.98 780.486 1492.89 787.405L1225.31 1239.98C1221.22 1246.9 1213.07 1250.47 1205.16 1248.83L681.188 1140.08C673.355 1138.45 667.508 1132.08 666.665 1124.25L610.705 604.338C609.848 596.372 614.366 588.73 621.86 585.472Z" stroke="url(#paint38_linear_119_114)" stroke-width="3"/>
<path opacity="0.40404" d="M621.34 580.975L1113.12 377.131C1120.55 374.054 1129.1 375.962 1134.35 381.868L1485.05 775.818C1490.36 781.784 1491.11 790.472 1486.9 797.316L1211.83 1244.35C1207.62 1251.19 1199.41 1254.63 1191.52 1252.85L670.673 1135.43C662.864 1133.67 657.126 1127.19 656.423 1119.35L609.859 599.633C609.145 591.659 613.795 584.103 621.34 580.975Z" stroke="url(#paint39_linear_119_114)" stroke-width="3"/>
<path opacity="0.414141" d="M620.923 576.584L1115.25 381.555C1122.73 378.604 1131.25 380.66 1136.41 386.66L1479.29 785.687C1484.5 791.743 1485.09 800.439 1480.76 807.208L1198.32 1248.58C1193.99 1255.35 1185.72 1258.64 1177.87 1256.73L660.284 1130.71C652.502 1128.82 646.874 1122.24 646.312 1114.38L609.121 595.027C608.549 587.048 613.328 579.58 620.923 576.584Z" stroke="url(#paint40_linear_119_114)" stroke-width="3"/>
<path opacity="0.424242" d="M620.608 572.295L1117.32 386.106C1124.85 383.282 1133.34 385.486 1138.4 391.578L1473.39 795.536C1478.48 801.681 1478.92 810.383 1474.47 817.073L1184.78 1252.67C1180.34 1259.36 1172.02 1262.51 1164.19 1260.46L650.025 1125.93C642.271 1123.9 636.756 1117.22 636.334 1109.35L608.489 590.519C608.06 582.537 612.966 575.159 620.608 572.295Z" stroke="url(#paint41_linear_119_114)" stroke-width="3"/>
<path opacity="0.434343" d="M620.393 568.111L1119.32 390.784C1126.91 388.087 1135.36 390.439 1140.31 396.62L1467.34 805.363C1472.33 811.595 1472.61 820.3 1468.05 826.909L1171.23 1256.62C1166.66 1263.23 1158.29 1266.23 1150.5 1264.05L639.895 1121.08C632.172 1118.92 626.772 1112.14 626.49 1104.26L607.96 586.109C607.675 578.127 612.707 570.843 620.393 568.111Z" stroke="url(#paint42_linear_119_114)" stroke-width="3"/>
<path opacity="0.444444" d="M620.275 564.034L1121.26 395.587C1128.89 393.019 1137.31 395.518 1142.15 401.788L1461.15 815.167C1466.03 821.483 1466.16 830.189 1461.48 836.715L1157.65 1260.43C1152.97 1266.96 1144.54 1269.82 1136.8 1267.5L629.895 1116.17C622.207 1113.88 616.922 1107 616.781 1099.12L607.534 581.802C607.392 573.822 612.547 566.633 620.275 564.034Z" stroke="url(#paint43_linear_119_114)" stroke-width="3"/>
<path opacity="0.454545" d="M620.251 560.066L1123.12 400.515C1130.8 398.077 1139.18 400.723 1143.91 407.079L1454.82 824.945C1459.58 831.344 1459.56 840.047 1454.76 846.489L1144.05 1264.1C1139.25 1270.55 1130.78 1273.26 1123.08 1270.81L620.026 1111.2C612.374 1108.77 607.207 1101.81 607.207 1093.92L607.207 577.598C607.207 569.623 612.484 562.531 620.251 560.066Z" stroke="url(#paint44_linear_119_114)" stroke-width="3"/>
<path opacity="0.464646" d="M620.321 556.207L1124.91 405.564C1132.64 403.257 1140.98 406.049 1145.6 412.491L1448.34 834.692C1452.99 841.173 1452.81 849.871 1447.91 856.227L1130.43 1267.63C1125.53 1273.99 1117.01 1276.55 1109.35 1273.98L610.289 1106.17C602.674 1103.61 597.627 1096.55 597.768 1088.66L606.977 573.498C607.119 565.53 612.516 558.537 620.321 556.207Z" stroke="url(#paint45_linear_119_114)" stroke-width="3"/>
<path opacity="0.474747" d="M620.482 552.458L1126.63 410.734C1134.4 408.558 1142.7 411.495 1147.2 418.02L1441.73 844.408C1446.26 850.968 1445.93 859.659 1440.92 865.926L1116.8 1271.02C1111.79 1277.29 1103.23 1279.7 1095.62 1277L600.686 1101.09C593.112 1098.4 588.186 1091.25 588.468 1083.36L606.844 569.503C607.128 561.545 612.643 554.653 620.482 552.458Z" stroke="url(#paint46_linear_119_114)" stroke-width="3"/>
<path opacity="0.484848" d="M620.73 548.822L1128.27 416.024C1136.08 413.979 1144.33 417.062 1148.72 423.669L1434.97 854.091C1439.38 860.728 1438.9 869.409 1433.78 875.586L1103.16 1274.27C1098.04 1280.45 1089.44 1282.71 1081.88 1279.88L591.214 1095.96C583.683 1093.13 578.879 1085.89 579.303 1078.01L606.802 565.616C607.229 557.671 612.859 550.881 620.73 548.822Z" stroke="url(#paint47_linear_119_114)" stroke-width="3"/>
<path opacity="0.494949" d="M621.066 545.298L1129.83 421.43C1137.68 419.518 1145.88 422.745 1150.16 429.432L1428.08 863.737C1432.37 870.448 1431.74 879.117 1426.51 885.202L1089.52 1277.38C1084.29 1283.46 1075.65 1285.58 1068.14 1282.61L581.878 1090.77C574.392 1087.81 569.713 1080.49 570.278 1072.61L606.854 561.837C607.422 553.906 613.166 547.221 621.066 545.298Z" stroke="url(#paint48_linear_119_114)" stroke-width="3"/>
<path opacity="0.50505" d="M621.486 541.891L1131.31 426.955C1139.2 425.176 1147.35 428.548 1151.51 435.312L1421.05 873.347C1425.22 880.131 1424.43 888.785 1419.1 894.776L1075.86 1280.35C1070.53 1286.34 1061.86 1288.3 1054.4 1285.21L572.676 1085.54C565.238 1082.45 560.685 1075.04 561.39 1067.17L606.994 558.171C607.703 550.257 613.559 543.678 621.486 541.891Z" stroke="url(#paint49_linear_119_114)" stroke-width="3"/>
<path opacity="0.515152" d="M621.988 538.6L1132.71 432.594C1140.64 430.949 1148.73 434.463 1152.78 441.303L1413.88 882.915C1417.93 889.771 1416.99 898.407 1411.56 904.303L1062.21 1283.18C1056.77 1289.07 1048.07 1290.89 1040.67 1287.67L563.61 1080.26C556.221 1077.05 551.796 1069.55 552.643 1061.69L607.221 554.615C608.071 546.721 614.036 540.251 621.988 538.6Z" stroke="url(#paint50_linear_119_114)" stroke-width="3"/>
<path opacity="0.525253" d="M622.569 535.426L1134.03 438.344C1141.99 436.834 1150.02 440.491 1153.95 447.405L1406.57 892.44C1410.5 899.364 1409.41 907.98 1403.88 913.779L1048.55 1285.86C1043.01 1291.66 1034.29 1293.32 1026.94 1289.98L554.68 1074.94C547.343 1071.6 543.047 1064.02 544.034 1056.17L607.533 551.171C608.523 543.299 614.596 536.939 622.569 535.426Z" stroke="url(#paint51_linear_119_114)" stroke-width="3"/>
<path opacity="0.535354" d="M623.228 532.371L1135.26 444.207C1143.25 442.832 1151.22 446.63 1155.03 453.616L1399.13 901.92C1402.94 908.911 1401.7 917.505 1396.06 923.204L1034.9 1288.41C1029.26 1294.11 1020.51 1295.62 1013.22 1292.15L545.885 1069.58C538.603 1066.11 534.438 1058.45 535.566 1050.62L607.927 547.842C609.056 539.994 615.235 533.747 623.228 532.371Z" stroke="url(#paint52_linear_119_114)" stroke-width="3"/>
<path opacity="0.545455" d="M623.961 529.434L1136.41 450.178C1144.42 448.94 1152.33 452.878 1156.01 459.934L1391.56 911.352C1395.24 918.408 1393.85 926.976 1388.12 932.575L1021.25 1290.82C1015.51 1296.42 1006.74 1297.78 999.511 1294.18L537.228 1064.18C530.002 1060.58 525.969 1052.85 527.238 1045.03L608.401 544.628C609.67 536.807 615.952 530.673 623.961 529.434Z" stroke="url(#paint53_linear_119_114)" stroke-width="3"/>
<path opacity="0.555556" d="M624.766 526.618L1137.46 456.258C1145.49 455.155 1153.34 459.233 1156.9 466.357L1383.85 920.734C1387.41 927.853 1385.87 936.393 1380.04 941.89L1007.6 1293.09C1001.77 1298.59 992.977 1299.8 985.816 1296.08L528.706 1058.74C521.539 1055.02 517.64 1047.21 519.049 1039.41L608.952 541.531C610.359 533.739 616.742 527.72 624.766 526.618Z" stroke="url(#paint54_linear_119_114)" stroke-width="3"/>
<path opacity="0.565657" d="M625.643 523.925L1138.42 462.443C1146.48 461.477 1154.26 465.694 1157.69 472.883L1376.01 930.065C1379.44 937.244 1377.75 945.754 1371.83 951.148L993.969 1295.23C988.046 1300.62 979.234 1301.67 972.14 1297.83L520.324 1053.27C513.219 1049.43 509.454 1041.55 511.003 1033.77L609.58 538.551C611.125 530.79 617.607 524.888 625.643 523.925Z" stroke="url(#paint55_linear_119_114)" stroke-width="3"/>
<path opacity="0.575758" d="M626.587 521.353L1139.29 468.732C1147.37 467.903 1155.08 472.257 1158.39 479.51L1368.04 939.341C1371.34 946.578 1369.51 955.055 1363.49 960.344L980.348 1297.22C974.333 1302.51 965.507 1303.41 958.481 1299.45L512.078 1047.77C505.037 1043.8 501.409 1035.86 503.097 1028.1L610.281 535.69C611.963 527.962 618.542 522.178 626.587 521.353Z" stroke="url(#paint56_linear_119_114)" stroke-width="3"/>
<path opacity="0.585859" d="M627.597 518.905L1140.07 475.124C1148.16 474.432 1155.8 478.923 1158.98 486.238L1359.95 948.561C1363.12 955.854 1361.13 964.297 1355.03 969.479L966.743 1299.08C960.638 1304.26 951.8 1305 944.845 1300.92L503.971 1042.25C496.995 1038.15 493.505 1030.14 495.332 1022.41L611.053 532.949C612.872 525.258 619.545 519.593 627.597 518.905Z" stroke="url(#paint57_linear_119_114)" stroke-width="3"/>
<path opacity="0.59596" d="M628.669 516.582L1140.74 481.616C1148.85 481.062 1156.42 485.688 1159.47 493.062L1351.72 957.723C1354.76 965.07 1352.63 973.475 1346.43 978.549L953.153 1300.8C946.96 1305.87 938.113 1306.46 931.232 1302.26L496 1036.69C489.093 1032.48 485.742 1024.4 487.708 1016.7L611.893 530.328C613.847 522.675 620.612 517.132 628.669 516.582Z" stroke="url(#paint58_linear_119_114)" stroke-width="3"/>
<path opacity="0.606061" d="M629.804 514.384L1141.33 488.206C1149.44 487.791 1156.93 492.55 1159.85 499.982L1343.37 966.824C1346.28 974.223 1344 982.588 1337.72 987.553L939.585 1302.38C933.306 1307.34 924.453 1307.78 917.647 1303.47L488.171 1031.12C481.334 1026.78 478.123 1018.64 480.227 1010.97L612.801 527.83C614.89 520.217 621.745 514.796 629.804 514.384Z" stroke="url(#paint59_linear_119_114)" stroke-width="3"/>
<path opacity="0.616162" d="M630.996 512.311L1141.81 494.892C1149.93 494.615 1157.34 499.507 1160.13 506.994L1334.89 975.863C1337.67 983.31 1335.24 991.633 1328.88 996.487L926.038 1303.83C919.675 1308.68 910.818 1308.97 904.089 1304.53L480.477 1025.52C473.713 1021.06 470.644 1012.86 472.886 1005.23L613.77 525.453C615.993 517.883 622.936 512.586 630.996 512.311Z" stroke="url(#paint60_linear_119_114)" stroke-width="3"/>
<path opacity="0.626263" d="M632.243 510.367L1142.19 501.675C1150.32 501.536 1157.65 506.56 1160.31 514.099L1326.29 984.838C1328.94 992.333 1326.37 1000.61 1319.92 1005.35L912.515 1305.14C906.07 1309.88 897.213 1310.01 890.564 1305.47L472.923 1019.91C466.233 1015.33 463.308 1007.07 465.687 999.472L614.802 523.201C617.158 515.676 624.186 510.504 632.243 510.367Z" stroke="url(#paint61_linear_119_114)" stroke-width="3"/>
<path opacity="0.636364" d="M633.545 508.55L1142.46 508.55C1150.6 508.55 1157.84 513.704 1160.37 521.294L1317.57 993.746C1320.08 1001.29 1317.37 1009.52 1310.84 1014.15L899.02 1306.32C892.495 1310.95 883.64 1310.93 877.072 1306.27L465.507 1014.28C458.895 1009.58 456.113 1001.27 458.628 993.708L615.893 521.074C618.381 513.596 625.493 508.55 633.545 508.55Z" stroke="url(#paint62_linear_119_114)" stroke-width="3"/>
<path opacity="0.646465" d="M634.898 506.86L1142.64 515.514C1150.78 515.653 1157.93 520.935 1160.32 528.573L1308.73 1002.58C1311.11 1010.17 1308.25 1018.35 1301.64 1022.86L885.555 1307.36C878.952 1311.88 870.102 1311.7 863.618 1306.93L458.23 1008.63C451.698 1003.82 449.062 995.452 451.713 987.934L617.041 519.07C619.661 511.641 626.854 506.723 634.898 506.86Z" stroke="url(#paint63_linear_119_114)" stroke-width="3"/>
<path opacity="0.656566" d="M636.3 505.3L1142.71 522.568C1150.85 522.846 1157.91 528.255 1160.17 535.939L1299.77 1011.35C1302.01 1018.98 1299.01 1027.1 1292.33 1031.5L872.122 1308.27C865.443 1312.67 856.601 1312.35 850.202 1307.46L451.092 1002.97C444.641 998.053 442.151 989.632 444.937 982.157L618.244 517.193C620.994 509.815 628.265 505.026 636.3 505.3Z" stroke="url(#paint64_linear_119_114)" stroke-width="3"/>
<path opacity="0.666667" d="M637.747 503.867L1142.67 529.707C1150.8 530.123 1157.77 535.658 1159.89 543.386L1290.69 1020.05C1292.79 1027.71 1289.65 1035.78 1282.9 1040.06L858.721 1309.05C851.969 1313.33 843.137 1312.86 836.825 1307.86L444.091 997.309C437.724 992.274 435.381 983.804 438.302 976.376L619.497 515.44C622.376 508.116 629.724 503.456 637.747 503.867Z" stroke="url(#paint65_linear_119_114)" stroke-width="3"/>
<path opacity="0.676768" d="M639.238 502.566L1142.52 536.932C1150.65 537.487 1157.53 543.146 1159.51 550.914L1281.5 1028.67C1283.46 1036.37 1280.18 1044.38 1273.35 1048.55L845.358 1309.7C838.534 1313.87 829.715 1313.23 823.493 1308.14L437.228 991.639C430.947 986.492 428.753 977.976 431.807 970.596L620.8 513.817C623.807 506.548 631.229 502.019 639.238 502.566Z" stroke="url(#paint66_linear_119_114)" stroke-width="3"/>
<path opacity="0.686869" d="M640.77 501.395L1142.26 544.238C1150.39 544.932 1157.16 550.713 1159.01 558.521L1272.19 1037.22C1274.01 1044.94 1270.59 1052.9 1263.7 1056.95L832.033 1310.22C825.14 1314.26 816.337 1313.48 810.206 1308.28L430.503 985.964C424.31 980.707 422.266 972.148 425.452 964.818L622.149 512.32C625.284 505.109 632.778 500.712 640.77 501.395Z" stroke="url(#paint67_linear_119_114)" stroke-width="3"/>
<path opacity="0.69697" d="M642.342 500.354L1141.89 551.625C1150.01 552.458 1156.69 558.359 1158.39 566.203L1262.76 1045.68C1264.45 1053.44 1260.89 1061.34 1253.93 1065.26L818.751 1310.61C811.791 1314.53 803.006 1313.6 796.968 1308.29L423.918 980.287C417.815 974.921 415.921 966.322 419.239 959.045L623.544 510.951C626.805 503.8 634.369 499.536 642.342 500.354Z" stroke="url(#paint68_linear_119_114)" stroke-width="3"/>
<path opacity="0.707071" d="M643.95 499.446L1141.42 559.092C1149.52 560.063 1156.09 566.083 1157.66 573.961L1253.23 1054.07C1254.78 1061.86 1251.08 1069.69 1244.06 1073.5L805.513 1310.87C798.487 1314.67 789.722 1313.59 783.78 1308.18L417.469 974.613C411.458 969.14 409.715 960.503 413.164 953.281L624.982 509.713C628.367 502.623 635.998 498.493 643.95 499.446Z" stroke="url(#paint69_linear_119_114)" stroke-width="3"/>
<path opacity="0.717172" d="M645.591 498.668L1140.82 566.632C1148.91 567.742 1155.38 573.879 1156.81 581.788L1243.59 1062.38C1245 1070.19 1241.16 1077.96 1234.07 1081.64L792.319 1311C785.23 1314.68 776.49 1313.45 770.644 1307.93L411.157 968.941C405.241 963.362 403.65 954.689 407.229 947.525L626.458 508.602C629.968 501.575 637.663 497.58 645.591 498.668Z" stroke="url(#paint70_linear_119_114)" stroke-width="3"/>
<path opacity="0.727273" d="M647.264 498.023L1140.12 574.249C1148.18 575.496 1154.55 581.749 1155.84 589.687L1233.84 1070.6C1235.11 1078.44 1231.14 1086.14 1223.99 1089.69L779.174 1311.01C772.024 1314.57 763.31 1313.18 757.563 1307.57L404.982 963.275C399.162 957.592 397.724 948.887 401.431 941.782L627.971 507.622C631.604 500.661 639.362 496.801 647.264 498.023Z" stroke="url(#paint71_linear_119_114)" stroke-width="3"/>
<path opacity="0.737374" d="M648.964 497.51L1139.29 581.936C1147.34 583.322 1153.6 589.688 1154.74 597.652L1223.98 1078.74C1225.11 1086.6 1221.01 1094.23 1213.8 1097.66L766.077 1310.89C758.868 1314.33 750.183 1312.79 744.537 1307.08L398.941 957.617C393.22 951.832 391.936 943.097 395.771 936.054L629.518 506.772C633.271 499.878 641.09 496.154 648.964 497.51Z" stroke="url(#paint72_linear_119_114)" stroke-width="3"/>
<path opacity="0.747475" d="M650.692 497.131L1138.36 589.695C1146.38 591.218 1152.52 597.695 1153.53 605.683L1214.02 1086.79C1215.01 1094.67 1210.77 1102.22 1203.51 1105.53L753.034 1310.65C745.768 1313.96 737.115 1312.28 731.571 1306.47L393.038 951.971C387.417 946.085 386.287 937.323 390.248 930.344L631.098 506.053C634.971 499.229 642.848 495.642 650.692 497.131Z" stroke="url(#paint73_linear_119_114)" stroke-width="3"/>
<path opacity="0.757576" d="M652.445 496.882L1137.3 597.519C1145.3 599.178 1151.33 605.765 1152.19 613.774L1203.96 1094.75C1204.81 1102.64 1200.44 1110.13 1193.12 1113.31L740.047 1310.29C732.726 1313.47 724.107 1311.64 718.667 1305.74L387.271 946.335C381.752 940.35 380.777 931.564 384.864 924.651L632.708 505.462C636.701 498.709 644.633 495.26 652.445 496.882Z" stroke="url(#paint74_linear_119_114)" stroke-width="3"/>
<path opacity="0.767677" d="M654.219 496.767L1136.13 605.41C1144.09 607.206 1150.01 613.9 1150.73 621.928L1193.8 1102.62C1194.51 1110.53 1190.01 1117.94 1182.63 1120.99L727.116 1309.8C719.743 1312.86 711.161 1310.88 705.827 1304.89L381.638 940.716C376.224 934.634 375.405 925.826 379.616 918.982L634.346 505.005C638.456 498.324 646.442 495.014 654.219 496.767Z" stroke="url(#paint75_linear_119_114)" stroke-width="3"/>
<path opacity="0.777778" d="M656.011 496.786L1134.83 613.364C1142.77 615.296 1148.57 622.095 1149.15 630.139L1183.54 1110.4C1184.11 1118.33 1179.48 1125.65 1172.05 1128.58L714.244 1309.2C706.821 1312.13 698.277 1310 693.051 1303.92L376.14 935.114C370.832 928.937 370.168 920.111 374.502 913.338L636.008 504.678C640.234 498.072 648.272 494.901 656.011 496.786Z" stroke="url(#paint76_linear_119_114)" stroke-width="3"/>
<path opacity="0.787879" d="M657.82 496.938L1133.42 621.38C1141.32 623.447 1147 630.349 1147.44 638.407L1173.18 1118.09C1173.61 1126.02 1168.85 1133.27 1161.38 1136.07L701.432 1308.48C693.96 1311.28 685.459 1309 680.342 1302.83L370.774 929.532C365.574 923.262 365.067 914.42 369.523 907.72L637.691 504.483C642.033 497.954 650.119 494.923 657.82 496.938Z" stroke="url(#paint77_linear_119_114)" stroke-width="3"/>
<path opacity="0.79798" d="M659.642 497.221L1131.88 629.452C1139.75 631.654 1145.31 638.657 1145.6 646.725L1162.73 1125.69C1163.01 1133.62 1158.13 1140.79 1150.61 1143.46L688.683 1307.63C681.166 1310.31 672.709 1307.89 667.702 1301.63L365.542 923.97C360.452 917.608 360.102 908.754 364.678 902.129L639.395 504.417C643.85 497.967 651.983 495.076 659.642 497.221Z" stroke="url(#paint78_linear_119_114)" stroke-width="3"/>
<path opacity="0.808081" d="M661.477 497.639L1130.23 637.582C1138.06 639.919 1143.49 647.021 1143.64 655.097L1152.18 1133.19C1152.32 1141.13 1147.32 1148.21 1139.75 1150.75L675.999 1306.68C668.438 1309.22 660.028 1306.65 655.134 1300.31L360.442 918.434C355.464 911.983 355.271 903.119 359.966 896.571L641.116 504.485C645.684 498.114 653.861 495.365 661.477 497.639Z" stroke="url(#paint79_linear_119_114)" stroke-width="3"/>
<path opacity="0.818182" d="M663.32 498.187L1128.45 645.765C1136.24 648.235 1141.55 655.433 1141.55 663.515L1141.55 1140.59C1141.55 1148.53 1136.41 1155.52 1128.81 1157.93L663.382 1305.6C655.78 1308.02 647.419 1305.31 642.638 1298.88L355.474 912.923C350.609 906.384 350.573 897.513 355.386 891.045L642.851 504.682C647.53 498.393 655.749 495.785 663.32 498.187Z" stroke="url(#paint80_linear_119_114)" stroke-width="3"/>
<path opacity="0.828283" d="M665.17 498.87L1126.55 654.001C1134.29 656.605 1139.47 663.897 1139.33 671.981L1130.82 1147.89C1130.68 1155.83 1125.43 1162.73 1117.78 1165.01L650.834 1304.42C643.193 1306.7 634.884 1303.85 630.219 1297.34L350.636 907.442C345.887 900.818 346.009 891.942 350.937 885.555L644.6 505.011C649.388 498.806 657.647 496.341 665.17 498.87Z" stroke="url(#paint81_linear_119_114)" stroke-width="3"/>
<path opacity="0.838384" d="M667.024 499.685L1124.52 662.286C1132.22 665.022 1137.27 672.405 1136.98 680.49L1120.01 1155.09C1119.73 1163.03 1114.35 1169.84 1106.67 1171.99L638.357 1303.12C630.679 1305.27 622.425 1302.28 617.876 1295.69L345.929 901.99C341.296 895.283 341.576 886.406 346.619 880.103L646.358 505.471C651.254 499.351 659.551 497.028 667.024 499.685Z" stroke="url(#paint82_linear_119_114)" stroke-width="3"/>
<path opacity="0.848485" d="M668.881 500.633L1122.37 670.619C1130.02 673.486 1134.94 680.959 1134.51 689.041L1109.11 1162.19C1108.69 1170.13 1103.2 1176.84 1095.48 1178.86L625.954 1301.71C618.241 1303.73 610.043 1300.6 605.612 1293.93L341.351 896.572C336.837 889.785 337.275 880.909 342.431 874.692L648.125 506.064C653.128 500.031 661.459 497.851 668.881 500.633Z" stroke="url(#paint83_linear_119_114)" stroke-width="3"/>
<path opacity="0.858586" d="M670.735 501.711L1120.09 678.997C1127.69 681.994 1132.48 689.553 1131.9 697.631L1098.13 1169.19C1097.57 1177.12 1091.96 1183.74 1084.21 1185.62L613.624 1300.2C605.878 1302.08 597.739 1298.81 593.428 1292.07L336.9 891.189C332.506 884.322 333.102 875.451 338.37 869.321L649.895 506.785C655.003 500.841 663.367 498.805 670.735 501.711Z" stroke="url(#paint84_linear_119_114)" stroke-width="3"/>
<path opacity="0.868687" d="M672.588 502.923L1117.69 687.417C1125.24 690.544 1129.89 698.188 1129.17 706.257L1087.08 1176.09C1086.37 1184 1080.64 1190.53 1072.86 1192.28L601.371 1298.57C593.595 1300.33 585.518 1296.91 581.327 1290.1L332.578 885.843C328.305 878.899 329.06 870.036 334.437 863.996L651.669 507.639C656.88 501.784 665.275 499.892 672.588 502.923Z" stroke="url(#paint85_linear_119_114)" stroke-width="3"/>
<path opacity="0.878788" d="M674.434 504.267L1115.16 695.88C1122.65 699.135 1127.17 706.861 1126.3 714.919L1075.94 1182.88C1075.09 1190.78 1069.24 1197.2 1061.44 1198.82L589.196 1296.84C581.391 1298.46 573.379 1294.91 569.31 1288.03L328.381 880.537C324.231 873.52 325.144 864.667 330.629 858.718L653.442 508.623C658.756 502.861 667.179 501.113 674.434 504.267Z" stroke="url(#paint86_linear_119_114)" stroke-width="3"/>
<path opacity="0.888889" d="M676.273 505.74L1112.51 704.379C1119.94 707.763 1124.32 715.567 1123.31 723.613L1064.72 1189.56C1063.73 1197.45 1057.78 1203.77 1049.95 1205.26L577.102 1295.01C569.271 1296.5 561.325 1292.81 557.38 1285.86L324.31 875.272C320.285 868.182 321.355 859.343 326.947 853.488L655.214 509.737C660.629 504.068 669.078 502.464 676.273 505.74Z" stroke="url(#paint87_linear_119_114)" stroke-width="3"/>
<path opacity="0.89899" d="M678.1 507.346L1109.72 712.915C1117.09 716.425 1121.34 724.306 1120.18 732.336L1053.43 1196.14C1052.3 1204.01 1046.23 1210.23 1038.38 1211.58L565.088 1293.07C557.234 1294.43 549.356 1290.6 545.535 1283.59L320.362 870.051C316.464 862.892 317.691 854.069 323.388 848.309L656.981 510.982C662.494 505.407 670.967 503.949 678.1 507.346Z" stroke="url(#paint88_linear_119_114)" stroke-width="3"/>
<path opacity="0.909091" d="M679.917 509.082L1106.82 721.486C1114.12 725.122 1118.23 733.077 1116.93 741.088L1042.07 1202.61C1040.8 1210.46 1034.62 1216.57 1026.75 1217.79L553.16 1291.04C545.285 1292.26 537.478 1288.3 533.783 1281.22L316.54 864.877C312.769 857.65 314.154 848.847 319.953 843.184L658.743 512.357C664.353 506.879 672.848 505.565 679.917 509.082Z" stroke="url(#paint89_linear_119_114)" stroke-width="3"/>
<path opacity="0.919192" d="M681.716 510.946L1103.78 730.086C1111.02 733.846 1114.98 741.872 1113.54 749.862L1030.64 1208.97C1029.22 1216.79 1022.94 1222.8 1015.05 1223.89L541.315 1288.9C533.42 1289.98 525.686 1285.9 522.118 1278.75L312.837 859.748C309.195 852.456 310.737 843.675 316.637 838.111L660.492 513.859C666.198 508.478 674.712 507.309 681.716 510.946Z" stroke="url(#paint90_linear_119_114)" stroke-width="3"/>
<path opacity="0.929293" d="M683.499 512.94L1100.61 738.716C1107.79 742.599 1111.6 750.693 1110.02 758.659L1019.14 1215.21C1017.58 1223.02 1011.2 1228.92 1003.29 1229.87L529.557 1286.67C521.646 1287.62 513.987 1283.4 510.547 1276.19L309.257 854.67C305.745 847.315 307.444 838.559 313.443 833.096L662.232 515.49C668.032 510.208 676.563 509.185 683.499 512.94Z" stroke="url(#paint91_linear_119_114)" stroke-width="3"/>
<path opacity="0.939394" d="M685.262 515.063L1097.32 747.373C1104.42 751.378 1108.1 759.539 1106.37 767.478L1007.57 1221.35C1005.88 1229.13 999.39 1234.92 991.464 1235.73L517.888 1284.34C509.962 1285.15 502.38 1280.8 499.07 1273.54L305.796 849.644C302.415 842.229 304.27 833.501 310.367 828.141L663.957 517.25C669.849 512.069 678.395 511.192 685.262 515.063Z" stroke="url(#paint92_linear_119_114)" stroke-width="3"/>
<path opacity="0.949495" d="M687.003 517.317L1093.9 756.057C1100.93 760.183 1104.46 768.406 1102.59 776.316L995.943 1227.38C994.112 1235.13 987.521 1240.81 979.582 1241.49L506.309 1281.92C498.371 1282.6 490.869 1278.12 487.689 1270.8L302.454 844.673C299.206 837.201 301.217 828.505 307.409 823.249L665.666 519.14C671.65 514.061 680.207 513.33 687.003 517.317Z" stroke="url(#paint93_linear_119_114)" stroke-width="3"/>
<path opacity="0.959596" d="M688.719 519.694L1090.35 764.759C1097.3 769.005 1100.68 777.288 1098.67 785.166L984.252 1233.29C982.283 1241.01 975.591 1246.58 967.643 1247.12L494.821 1279.4C486.872 1279.95 479.452 1275.34 476.403 1267.97L299.228 839.755C296.114 832.227 298.28 823.565 304.565 818.415L667.356 521.152C673.428 516.177 681.996 515.592 688.719 519.694Z" stroke="url(#paint94_linear_119_114)" stroke-width="3"/>
<path opacity="0.969697" d="M690.409 522.2L1086.67 773.484C1093.55 777.848 1096.78 786.189 1094.63 794.032L972.503 1239.1C970.396 1246.77 963.607 1252.23 955.65 1252.63L483.427 1276.8C475.471 1277.21 468.134 1272.48 465.218 1265.06L296.121 834.896C293.141 827.316 295.462 818.691 301.838 813.649L669.026 523.294C675.186 518.424 683.762 517.985 690.409 522.2Z" stroke="url(#paint95_linear_119_114)" stroke-width="3"/>
<path opacity="0.979798" d="M692.07 524.828L1082.86 782.223C1089.66 786.704 1092.74 795.099 1090.45 802.905L960.696 1244.78C958.452 1252.42 951.567 1257.76 943.604 1258.03L472.127 1274.1C464.165 1274.38 456.914 1269.52 454.131 1262.05L293.127 830.094C290.282 822.463 292.757 813.878 299.223 808.945L670.672 525.558C676.918 520.793 685.499 520.501 692.07 524.828Z" stroke="url(#paint96_linear_119_114)" stroke-width="3"/>
<path opacity="0.989899" d="M693.698 527.586L1078.92 790.981C1085.64 795.577 1088.57 804.024 1086.14 811.79L948.833 1250.35C946.453 1257.95 939.474 1263.17 931.508 1263.31L460.921 1271.33C452.956 1271.46 445.794 1266.48 443.144 1258.97L290.245 825.356C287.538 817.678 290.166 809.136 296.719 804.314L672.292 527.951C678.621 523.294 687.206 523.147 693.698 527.586Z" stroke="url(#paint97_linear_119_114)" stroke-width="3"/>
<path d="M695.294 530.467L1074.85 799.751C1081.49 804.461 1084.27 812.957 1081.7 820.68L936.919 1255.8C934.404 1263.36 927.332 1268.46 919.365 1268.46H449.814C441.847 1268.46 434.775 1263.36 432.26 1255.8L287.477 820.681C284.907 812.957 287.687 804.461 294.326 799.751L673.885 530.467C680.297 525.918 688.883 525.918 695.294 530.467Z" stroke="url(#paint98_linear_119_114)" stroke-width="3"/>
</g>
<defs>
<filter id="filter0_f_119_114" x="-14.9707" y="0.230957" width="2007.52" height="1614.38" filterUnits="userSpaceOnUse" color-interpolation-filters="sRGB">
<feFlood flood-opacity="0" result="BackgroundImageFix"/>
<feBlend mode="normal" in="SourceGraphic" in2="BackgroundImageFix" result="shape"/>
<feGaussianBlur stdDeviation="150" result="effect1_foregroundBlur_119_114"/>
</filter>
<linearGradient id="paint0_linear_119_114" x1="1281.55" y1="1045.87" x2="1199.98" y2="451.483" gradientUnits="userSpaceOnUse">
<stop stop-color="#FF1CF7"/>
<stop offset="1" stop-color="#00F0FF"/>
</linearGradient>
<linearGradient id="paint1_linear_119_114" x1="1270.62" y1="1047.87" x2="1199.33" y2="453.322" gradientUnits="userSpaceOnUse">
<stop stop-color="#FF1CF7"/>
<stop offset="1" stop-color="#00F0FF"/>
</linearGradient>
<linearGradient id="paint2_linear_119_114" x1="1259.7" y1="1049.77" x2="1198.68" y2="455.241" gradientUnits="userSpaceOnUse">
<stop stop-color="#FF1CF7"/>
<stop offset="1" stop-color="#00F0FF"/>
</linearGradient>
<linearGradient id="paint3_linear_119_114" x1="1248.78" y1="1051.59" x2="1198" y2="457.238" gradientUnits="userSpaceOnUse">
<stop stop-color="#FF1CF7"/>
<stop offset="1" stop-color="#00F0FF"/>
</linearGradient>
<linearGradient id="paint4_linear_119_114" x1="1237.88" y1="1053.31" x2="1197.32" y2="459.313" gradientUnits="userSpaceOnUse">
<stop stop-color="#FF1CF7"/>
<stop offset="1" stop-color="#00F0FF"/>
</linearGradient>
<linearGradient id="paint5_linear_119_114" x1="1226.98" y1="1054.94" x2="1196.61" y2="461.462" gradientUnits="userSpaceOnUse">
<stop stop-color="#FF1CF7"/>
<stop offset="1" stop-color="#00F0FF"/>
</linearGradient>
<linearGradient id="paint6_linear_119_114" x1="1216.11" y1="1056.49" x2="1195.89" y2="463.688" gradientUnits="userSpaceOnUse">
<stop stop-color="#FF1CF7"/>
<stop offset="1" stop-color="#00F0FF"/>
</linearGradient>
<linearGradient id="paint7_linear_119_114" x1="1205.24" y1="1057.94" x2="1195.15" y2="465.992" gradientUnits="userSpaceOnUse">
<stop stop-color="#FF1CF7"/>
<stop offset="1" stop-color="#00F0FF"/>
</linearGradient>
<linearGradient id="paint8_linear_119_114" x1="1194.4" y1="1059.31" x2="1194.4" y2="468.37" gradientUnits="userSpaceOnUse">
<stop stop-color="#FF1CF7"/>
<stop offset="1" stop-color="#00F0FF"/>
</linearGradient>
<linearGradient id="paint9_linear_119_114" x1="1183.57" y1="1060.58" x2="1193.62" y2="470.822" gradientUnits="userSpaceOnUse">
<stop stop-color="#FF1CF7"/>
<stop offset="1" stop-color="#00F0FF"/>
</linearGradient>
<linearGradient id="paint10_linear_119_114" x1="1172.77" y1="1061.77" x2="1192.83" y2="473.35" gradientUnits="userSpaceOnUse">
<stop stop-color="#FF1CF7"/>
<stop offset="1" stop-color="#00F0FF"/>
</linearGradient>
<linearGradient id="paint11_linear_119_114" x1="1161.98" y1="1062.87" x2="1192.02" y2="475.95" gradientUnits="userSpaceOnUse">
<stop stop-color="#FF1CF7"/>
<stop offset="1" stop-color="#00F0FF"/>
</linearGradient>
<linearGradient id="paint12_linear_119_114" x1="1151.22" y1="1063.89" x2="1191.19" y2="478.627" gradientUnits="userSpaceOnUse">
<stop stop-color="#FF1CF7"/>
<stop offset="1" stop-color="#00F0FF"/>
</linearGradient>
<linearGradient id="paint13_linear_119_114" x1="1140.49" y1="1064.82" x2="1190.33" y2="481.376" gradientUnits="userSpaceOnUse">
<stop stop-color="#FF1CF7"/>
<stop offset="1" stop-color="#00F0FF"/>
</linearGradient>
<linearGradient id="paint14_linear_119_114" x1="1129.78" y1="1065.66" x2="1189.46" y2="484.197" gradientUnits="userSpaceOnUse">
<stop stop-color="#FF1CF7"/>
<stop offset="1" stop-color="#00F0FF"/>
</linearGradient>
<linearGradient id="paint15_linear_119_114" x1="1119.1" y1="1066.42" x2="1188.56" y2="487.091" gradientUnits="userSpaceOnUse">
<stop stop-color="#FF1CF7"/>
<stop offset="1" stop-color="#00F0FF"/>
</linearGradient>
<linearGradient id="paint16_linear_119_114" x1="1108.45" y1="1067.1" x2="1187.64" y2="490.059" gradientUnits="userSpaceOnUse">
<stop stop-color="#FF1CF7"/>
<stop offset="1" stop-color="#00F0FF"/>
</linearGradient>
<linearGradient id="paint17_linear_119_114" x1="1097.83" y1="1067.69" x2="1186.69" y2="493.099" gradientUnits="userSpaceOnUse">
<stop stop-color="#FF1CF7"/>
<stop offset="1" stop-color="#00F0FF"/>
</linearGradient>
<linearGradient id="paint18_linear_119_114" x1="1087.24" y1="1068.19" x2="1185.73" y2="496.21" gradientUnits="userSpaceOnUse">
<stop stop-color="#FF1CF7"/>
<stop offset="1" stop-color="#00F0FF"/>
</linearGradient>
<linearGradient id="paint19_linear_119_114" x1="1076.69" y1="1068.62" x2="1184.73" y2="499.391" gradientUnits="userSpaceOnUse">
<stop stop-color="#FF1CF7"/>
<stop offset="1" stop-color="#00F0FF"/>
</linearGradient>
<linearGradient id="paint20_linear_119_114" x1="1066.17" y1="1068.96" x2="1183.71" y2="502.646" gradientUnits="userSpaceOnUse">
<stop stop-color="#FF1CF7"/>
<stop offset="1" stop-color="#00F0FF"/>
</linearGradient>
<linearGradient id="paint21_linear_119_114" x1="1055.69" y1="1069.22" x2="1182.67" y2="505.97" gradientUnits="userSpaceOnUse">
<stop stop-color="#FF1CF7"/>
<stop offset="1" stop-color="#00F0FF"/>
</linearGradient>
<linearGradient id="paint22_linear_119_114" x1="1045.25" y1="1069.41" x2="1181.6" y2="509.367" gradientUnits="userSpaceOnUse">
<stop stop-color="#FF1CF7"/>
<stop offset="1" stop-color="#00F0FF"/>
</linearGradient>
<linearGradient id="paint23_linear_119_114" x1="1034.84" y1="1069.51" x2="1180.5" y2="512.835" gradientUnits="userSpaceOnUse">
<stop stop-color="#FF1CF7"/>
<stop offset="1" stop-color="#00F0FF"/>
</linearGradient>
<linearGradient id="paint24_linear_119_114" x1="1024.48" y1="1069.54" x2="1179.37" y2="516.371" gradientUnits="userSpaceOnUse">
<stop stop-color="#FF1CF7"/>
<stop offset="1" stop-color="#00F0FF"/>
</linearGradient>
<linearGradient id="paint25_linear_119_114" x1="1014.16" y1="1069.49" x2="1178.22" y2="519.978" gradientUnits="userSpaceOnUse">
<stop stop-color="#FF1CF7"/>
<stop offset="1" stop-color="#00F0FF"/>
</linearGradient>
<linearGradient id="paint26_linear_119_114" x1="1003.89" y1="1069.36" x2="1177.03" y2="523.656" gradientUnits="userSpaceOnUse">
<stop stop-color="#FF1CF7"/>
<stop offset="1" stop-color="#00F0FF"/>
</linearGradient>
<linearGradient id="paint27_linear_119_114" x1="993.657" y1="1069.15" x2="1175.81" y2="527.404" gradientUnits="userSpaceOnUse">
<stop stop-color="#FF1CF7"/>
<stop offset="1" stop-color="#00F0FF"/>
</linearGradient>
<linearGradient id="paint28_linear_119_114" x1="983.471" y1="1068.88" x2="1174.56" y2="531.223" gradientUnits="userSpaceOnUse">
<stop stop-color="#FF1CF7"/>
<stop offset="1" stop-color="#00F0FF"/>
</linearGradient>
<linearGradient id="paint29_linear_119_114" x1="973.335" y1="1068.52" x2="1173.28" y2="535.109" gradientUnits="userSpaceOnUse">
<stop stop-color="#FF1CF7"/>
<stop offset="1" stop-color="#00F0FF"/>
</linearGradient>
<linearGradient id="paint30_linear_119_114" x1="963.246" y1="1068.1" x2="1171.97" y2="539.067" gradientUnits="userSpaceOnUse">
<stop stop-color="#FF1CF7"/>
<stop offset="1" stop-color="#00F0FF"/>
</linearGradient>
<linearGradient id="paint31_linear_119_114" x1="953.209" y1="1067.6" x2="1170.62" y2="543.091" gradientUnits="userSpaceOnUse">
<stop stop-color="#FF1CF7"/>
<stop offset="1" stop-color="#00F0FF"/>
</linearGradient>
<linearGradient id="paint32_linear_119_114" x1="943.222" y1="1067.04" x2="1169.23" y2="547.187" gradientUnits="userSpaceOnUse">
<stop stop-color="#FF1CF7"/>
<stop offset="1" stop-color="#00F0FF"/>
</linearGradient>
<linearGradient id="paint33_linear_119_114" x1="933.287" y1="1066.4" x2="1167.81" y2="551.35" gradientUnits="userSpaceOnUse">
<stop stop-color="#FF1CF7"/>
<stop offset="1" stop-color="#00F0FF"/>
</linearGradient>
<linearGradient id="paint34_linear_119_114" x1="923.406" y1="1065.7" x2="1166.36" y2="555.584" gradientUnits="userSpaceOnUse">
<stop stop-color="#FF1CF7"/>
<stop offset="1" stop-color="#00F0FF"/>
</linearGradient>
<linearGradient id="paint35_linear_119_114" x1="913.579" y1="1064.92" x2="1164.86" y2="559.885" gradientUnits="userSpaceOnUse">
<stop stop-color="#FF1CF7"/>
<stop offset="1" stop-color="#00F0FF"/>
</linearGradient>
<linearGradient id="paint36_linear_119_114" x1="903.81" y1="1064.09" x2="1163.33" y2="564.255" gradientUnits="userSpaceOnUse">
<stop stop-color="#FF1CF7"/>
<stop offset="1" stop-color="#00F0FF"/>
</linearGradient>
<linearGradient id="paint37_linear_119_114" x1="894.095" y1="1063.18" x2="1161.75" y2="568.692" gradientUnits="userSpaceOnUse">
<stop stop-color="#FF1CF7"/>
<stop offset="1" stop-color="#00F0FF"/>
</linearGradient>
<linearGradient id="paint38_linear_119_114" x1="884.44" y1="1062.21" x2="1160.14" y2="573.197" gradientUnits="userSpaceOnUse">
<stop stop-color="#FF1CF7"/>
<stop offset="1" stop-color="#00F0FF"/>
</linearGradient>
<linearGradient id="paint39_linear_119_114" x1="874.844" y1="1061.18" x2="1158.48" y2="577.768" gradientUnits="userSpaceOnUse">
<stop stop-color="#FF1CF7"/>
<stop offset="1" stop-color="#00F0FF"/>
</linearGradient>
<linearGradient id="paint40_linear_119_114" x1="865.308" y1="1060.09" x2="1156.78" y2="582.408" gradientUnits="userSpaceOnUse">
<stop stop-color="#FF1CF7"/>
<stop offset="1" stop-color="#00F0FF"/>
</linearGradient>
<linearGradient id="paint41_linear_119_114" x1="855.833" y1="1058.93" x2="1155.03" y2="587.115" gradientUnits="userSpaceOnUse">
<stop stop-color="#FF1CF7"/>
<stop offset="1" stop-color="#00F0FF"/>
</linearGradient>
<linearGradient id="paint42_linear_119_114" x1="846.42" y1="1057.72" x2="1153.24" y2="591.887" gradientUnits="userSpaceOnUse">
<stop stop-color="#FF1CF7"/>
<stop offset="1" stop-color="#00F0FF"/>
</linearGradient>
<linearGradient id="paint43_linear_119_114" x1="837.071" y1="1056.45" x2="1151.4" y2="596.727" gradientUnits="userSpaceOnUse">
<stop stop-color="#FF1CF7"/>
<stop offset="1" stop-color="#00F0FF"/>
</linearGradient>
<linearGradient id="paint44_linear_119_114" x1="827.785" y1="1055.12" x2="1149.52" y2="601.633" gradientUnits="userSpaceOnUse">
<stop stop-color="#FF1CF7"/>
<stop offset="1" stop-color="#00F0FF"/>
</linearGradient>
<linearGradient id="paint45_linear_119_114" x1="818.563" y1="1053.73" x2="1147.58" y2="606.602" gradientUnits="userSpaceOnUse">
<stop stop-color="#FF1CF7"/>
<stop offset="1" stop-color="#00F0FF"/>
</linearGradient>
<linearGradient id="paint46_linear_119_114" x1="809.409" y1="1052.29" x2="1145.59" y2="611.636" gradientUnits="userSpaceOnUse">
<stop stop-color="#FF1CF7"/>
<stop offset="1" stop-color="#00F0FF"/>
</linearGradient>
<linearGradient id="paint47_linear_119_114" x1="800.319" y1="1050.8" x2="1143.56" y2="616.735" gradientUnits="userSpaceOnUse">
<stop stop-color="#FF1CF7"/>
<stop offset="1" stop-color="#00F0FF"/>
</linearGradient>
<linearGradient id="paint48_linear_119_114" x1="791.299" y1="1049.25" x2="1141.46" y2="621.897" gradientUnits="userSpaceOnUse">
<stop stop-color="#FF1CF7"/>
<stop offset="1" stop-color="#00F0FF"/>
</linearGradient>
<linearGradient id="paint49_linear_119_114" x1="782.346" y1="1047.66" x2="1139.32" y2="627.124" gradientUnits="userSpaceOnUse">
<stop stop-color="#FF1CF7"/>
<stop offset="1" stop-color="#00F0FF"/>
</linearGradient>
<linearGradient id="paint50_linear_119_114" x1="773.463" y1="1046.01" x2="1137.12" y2="632.413" gradientUnits="userSpaceOnUse">
<stop stop-color="#FF1CF7"/>
<stop offset="1" stop-color="#00F0FF"/>
</linearGradient>
<linearGradient id="paint51_linear_119_114" x1="764.65" y1="1044.32" x2="1134.86" y2="637.763" gradientUnits="userSpaceOnUse">
<stop stop-color="#FF1CF7"/>
<stop offset="1" stop-color="#00F0FF"/>
</linearGradient>
<linearGradient id="paint52_linear_119_114" x1="755.907" y1="1042.58" x2="1132.54" y2="643.176" gradientUnits="userSpaceOnUse">
<stop stop-color="#FF1CF7"/>
<stop offset="1" stop-color="#00F0FF"/>
</linearGradient>
<linearGradient id="paint53_linear_119_114" x1="747.236" y1="1040.79" x2="1130.16" y2="648.648" gradientUnits="userSpaceOnUse">
<stop stop-color="#FF1CF7"/>
<stop offset="1" stop-color="#00F0FF"/>
</linearGradient>
<linearGradient id="paint54_linear_119_114" x1="738.635" y1="1038.96" x2="1127.72" y2="654.179" gradientUnits="userSpaceOnUse">
<stop stop-color="#FF1CF7"/>
<stop offset="1" stop-color="#00F0FF"/>
</linearGradient>
<linearGradient id="paint55_linear_119_114" x1="730.109" y1="1037.09" x2="1125.22" y2="659.77" gradientUnits="userSpaceOnUse">
<stop stop-color="#FF1CF7"/>
<stop offset="1" stop-color="#00F0FF"/>
</linearGradient>
<linearGradient id="paint56_linear_119_114" x1="721.655" y1="1035.17" x2="1122.66" y2="665.418" gradientUnits="userSpaceOnUse">
<stop stop-color="#FF1CF7"/>
<stop offset="1" stop-color="#00F0FF"/>
</linearGradient>
<linearGradient id="paint57_linear_119_114" x1="713.276" y1="1033.22" x2="1120.02" y2="671.125" gradientUnits="userSpaceOnUse">
<stop stop-color="#FF1CF7"/>
<stop offset="1" stop-color="#00F0FF"/>
</linearGradient>
<linearGradient id="paint58_linear_119_114" x1="704.97" y1="1031.22" x2="1117.33" y2="676.887" gradientUnits="userSpaceOnUse">
<stop stop-color="#FF1CF7"/>
<stop offset="1" stop-color="#00F0FF"/>
</linearGradient>
<linearGradient id="paint59_linear_119_114" x1="696.741" y1="1029.19" x2="1114.56" y2="682.704" gradientUnits="userSpaceOnUse">
<stop stop-color="#FF1CF7"/>
<stop offset="1" stop-color="#00F0FF"/>
</linearGradient>
<linearGradient id="paint60_linear_119_114" x1="688.585" y1="1027.12" x2="1111.72" y2="688.574" gradientUnits="userSpaceOnUse">
<stop stop-color="#FF1CF7"/>
<stop offset="1" stop-color="#00F0FF"/>
</linearGradient>
<linearGradient id="paint61_linear_119_114" x1="680.507" y1="1025.02" x2="1108.82" y2="694.499" gradientUnits="userSpaceOnUse">
<stop stop-color="#FF1CF7"/>
<stop offset="1" stop-color="#00F0FF"/>
</linearGradient>
<linearGradient id="paint62_linear_119_114" x1="672.505" y1="1022.89" x2="1105.84" y2="700.475" gradientUnits="userSpaceOnUse">
<stop stop-color="#FF1CF7"/>
<stop offset="1" stop-color="#00F0FF"/>
</linearGradient>
<linearGradient id="paint63_linear_119_114" x1="664.58" y1="1020.72" x2="1102.79" y2="706.501" gradientUnits="userSpaceOnUse">
<stop stop-color="#FF1CF7"/>
<stop offset="1" stop-color="#00F0FF"/>
</linearGradient>
<linearGradient id="paint64_linear_119_114" x1="656.734" y1="1018.52" x2="1099.66" y2="712.576" gradientUnits="userSpaceOnUse">
<stop stop-color="#FF1CF7"/>
<stop offset="1" stop-color="#00F0FF"/>
</linearGradient>
<linearGradient id="paint65_linear_119_114" x1="648.963" y1="1016.3" x2="1096.45" y2="718.697" gradientUnits="userSpaceOnUse">
<stop stop-color="#FF1CF7"/>
<stop offset="1" stop-color="#00F0FF"/>
</linearGradient>
<linearGradient id="paint66_linear_119_114" x1="641.271" y1="1014.04" x2="1093.17" y2="724.866" gradientUnits="userSpaceOnUse">
<stop stop-color="#FF1CF7"/>
<stop offset="1" stop-color="#00F0FF"/>
</linearGradient>
<linearGradient id="paint67_linear_119_114" x1="633.658" y1="1011.76" x2="1089.81" y2="731.08" gradientUnits="userSpaceOnUse">
<stop stop-color="#FF1CF7"/>
<stop offset="1" stop-color="#00F0FF"/>
</linearGradient>
<linearGradient id="paint68_linear_119_114" x1="626.125" y1="1009.46" x2="1086.37" y2="737.337" gradientUnits="userSpaceOnUse">
<stop stop-color="#FF1CF7"/>
<stop offset="1" stop-color="#00F0FF"/>
</linearGradient>
<linearGradient id="paint69_linear_119_114" x1="618.67" y1="1007.13" x2="1082.85" y2="743.636" gradientUnits="userSpaceOnUse">
<stop stop-color="#FF1CF7"/>
<stop offset="1" stop-color="#00F0FF"/>
</linearGradient>
<linearGradient id="paint70_linear_119_114" x1="611.295" y1="1004.78" x2="1079.25" y2="749.974" gradientUnits="userSpaceOnUse">
<stop stop-color="#FF1CF7"/>
<stop offset="1" stop-color="#00F0FF"/>
</linearGradient>
<linearGradient id="paint71_linear_119_114" x1="603.999" y1="1002.41" x2="1075.56" y2="756.353" gradientUnits="userSpaceOnUse">
<stop stop-color="#FF1CF7"/>
<stop offset="1" stop-color="#00F0FF"/>
</linearGradient>
<linearGradient id="paint72_linear_119_114" x1="596.781" y1="1000.02" x2="1071.79" y2="762.767" gradientUnits="userSpaceOnUse">
<stop stop-color="#FF1CF7"/>
<stop offset="1" stop-color="#00F0FF"/>
</linearGradient>
<linearGradient id="paint73_linear_119_114" x1="589.645" y1="997.612" x2="1067.93" y2="769.218" gradientUnits="userSpaceOnUse">
<stop stop-color="#FF1CF7"/>
<stop offset="1" stop-color="#00F0FF"/>
</linearGradient>
<linearGradient id="paint74_linear_119_114" x1="582.589" y1="995.188" x2="1063.98" y2="775.699" gradientUnits="userSpaceOnUse">
<stop stop-color="#FF1CF7"/>
<stop offset="1" stop-color="#00F0FF"/>
</linearGradient>
<linearGradient id="paint75_linear_119_114" x1="575.614" y1="992.751" x2="1059.95" y2="782.214" gradientUnits="userSpaceOnUse">
<stop stop-color="#FF1CF7"/>
<stop offset="1" stop-color="#00F0FF"/>
</linearGradient>
<linearGradient id="paint76_linear_119_114" x1="568.719" y1="990.3" x2="1055.83" y2="788.759" gradientUnits="userSpaceOnUse">
<stop stop-color="#FF1CF7"/>
<stop offset="1" stop-color="#00F0FF"/>
</linearGradient>
<linearGradient id="paint77_linear_119_114" x1="561.904" y1="987.839" x2="1051.62" y2="795.331" gradientUnits="userSpaceOnUse">
<stop stop-color="#FF1CF7"/>
<stop offset="1" stop-color="#00F0FF"/>
</linearGradient>
<linearGradient id="paint78_linear_119_114" x1="555.169" y1="985.364" x2="1047.31" y2="801.927" gradientUnits="userSpaceOnUse">
<stop stop-color="#FF1CF7"/>
<stop offset="1" stop-color="#00F0FF"/>
</linearGradient>
<linearGradient id="paint79_linear_119_114" x1="548.515" y1="982.883" x2="1042.92" y2="808.548" gradientUnits="userSpaceOnUse">
<stop stop-color="#FF1CF7"/>
<stop offset="1" stop-color="#00F0FF"/>
</linearGradient>
<linearGradient id="paint80_linear_119_114" x1="541.941" y1="980.392" x2="1038.43" y2="815.189" gradientUnits="userSpaceOnUse">
<stop stop-color="#FF1CF7"/>
<stop offset="1" stop-color="#00F0FF"/>
</linearGradient>
<linearGradient id="paint81_linear_119_114" x1="535.448" y1="977.897" x2="1033.86" y2="821.85" gradientUnits="userSpaceOnUse">
<stop stop-color="#FF1CF7"/>
<stop offset="1" stop-color="#00F0FF"/>
</linearGradient>
<linearGradient id="paint82_linear_119_114" x1="529.035" y1="975.395" x2="1029.19" y2="828.528" gradientUnits="userSpaceOnUse">
<stop stop-color="#FF1CF7"/>
<stop offset="1" stop-color="#00F0FF"/>
</linearGradient>
<linearGradient id="paint83_linear_119_114" x1="522.704" y1="972.892" x2="1024.42" y2="835.222" gradientUnits="userSpaceOnUse">
<stop stop-color="#FF1CF7"/>
<stop offset="1" stop-color="#00F0FF"/>
</linearGradient>
<linearGradient id="paint84_linear_119_114" x1="516.451" y1="970.385" x2="1019.56" y2="841.927" gradientUnits="userSpaceOnUse">
<stop stop-color="#FF1CF7"/>
<stop offset="1" stop-color="#00F0FF"/>
</linearGradient>
<linearGradient id="paint85_linear_119_114" x1="510.279" y1="967.879" x2="1014.61" y2="848.643" gradientUnits="userSpaceOnUse">
<stop stop-color="#FF1CF7"/>
<stop offset="1" stop-color="#00F0FF"/>
</linearGradient>
<linearGradient id="paint86_linear_119_114" x1="504.186" y1="965.375" x2="1009.56" y2="855.369" gradientUnits="userSpaceOnUse">
<stop stop-color="#FF1CF7"/>
<stop offset="1" stop-color="#00F0FF"/>
</linearGradient>
<linearGradient id="paint87_linear_119_114" x1="498.173" y1="962.871" x2="1004.41" y2="862.1" gradientUnits="userSpaceOnUse">
<stop stop-color="#FF1CF7"/>
<stop offset="1" stop-color="#00F0FF"/>
</linearGradient>
<linearGradient id="paint88_linear_119_114" x1="492.239" y1="960.373" x2="999.17" y2="868.836" gradientUnits="userSpaceOnUse">
<stop stop-color="#FF1CF7"/>
<stop offset="1" stop-color="#00F0FF"/>
</linearGradient>
<linearGradient id="paint89_linear_119_114" x1="486.387" y1="957.88" x2="993.836" y2="875.573" gradientUnits="userSpaceOnUse">
<stop stop-color="#FF1CF7"/>
<stop offset="1" stop-color="#00F0FF"/>
</linearGradient>
<linearGradient id="paint90_linear_119_114" x1="480.611" y1="955.391" x2="988.403" y2="882.308" gradientUnits="userSpaceOnUse">
<stop stop-color="#FF1CF7"/>
<stop offset="1" stop-color="#00F0FF"/>
</linearGradient>
<linearGradient id="paint91_linear_119_114" x1="474.914" y1="952.911" x2="982.875" y2="889.04" gradientUnits="userSpaceOnUse">
<stop stop-color="#FF1CF7"/>
<stop offset="1" stop-color="#00F0FF"/>
</linearGradient>
<linearGradient id="paint92_linear_119_114" x1="469.296" y1="950.441" x2="977.251" y2="895.768" gradientUnits="userSpaceOnUse">
<stop stop-color="#FF1CF7"/>
<stop offset="1" stop-color="#00F0FF"/>
</linearGradient>
<linearGradient id="paint93_linear_119_114" x1="463.756" y1="947.984" x2="971.532" y2="902.49" gradientUnits="userSpaceOnUse">
<stop stop-color="#FF1CF7"/>
<stop offset="1" stop-color="#00F0FF"/>
</linearGradient>
<linearGradient id="paint94_linear_119_114" x1="458.293" y1="945.534" x2="965.717" y2="909.198" gradientUnits="userSpaceOnUse">
<stop stop-color="#FF1CF7"/>
<stop offset="1" stop-color="#00F0FF"/>
</linearGradient>
<linearGradient id="paint95_linear_119_114" x1="452.909" y1="943.101" x2="959.808" y2="915.896" gradientUnits="userSpaceOnUse">
<stop stop-color="#FF1CF7"/>
<stop offset="1" stop-color="#00F0FF"/>
</linearGradient>
<linearGradient id="paint96_linear_119_114" x1="447.601" y1="940.678" x2="953.804" y2="922.576" gradientUnits="userSpaceOnUse">
<stop stop-color="#FF1CF7"/>
<stop offset="1" stop-color="#00F0FF"/>
</linearGradient>
<linearGradient id="paint97_linear_119_114" x1="442.368" y1="938.276" x2="947.705" y2="929.243" gradientUnits="userSpaceOnUse">
<stop stop-color="#FF1CF7"/>
<stop offset="1" stop-color="#00F0FF"/>
</linearGradient>
<linearGradient id="paint98_linear_119_114" x1="437.212" y1="935.889" x2="941.513" y2="935.889" gradientUnits="userSpaceOnUse">
<stop stop-color="#FF1CF7"/>
<stop offset="1" stop-color="#00F0FF"/>
</linearGradient>
</defs>
</svg>
