<svg width="64" height="64" viewBox="0 0 64 64" fill="none" xmlns="http://www.w3.org/2000/svg">
<rect opacity="0.25" x="0.5" y="0.5" width="63" height="63" stroke="url(#paint0_linear_326_5024)"/>
<path fill-rule="evenodd" clip-rule="evenodd" d="M31.6918 27.7763L31.738 28.557L30.9673 28.4614C28.1619 28.095 25.711 26.8521 23.63 24.7647L22.6127 23.729L22.3506 24.4939C21.7957 26.1988 22.1502 27.9994 23.3063 29.2103C23.9229 29.8796 23.7842 29.9752 22.7206 29.5768C22.3506 29.4494 22.0269 29.3537 21.9961 29.4016C21.8882 29.5131 22.2581 30.9631 22.551 31.5367C22.9518 32.3334 23.7687 33.1142 24.6628 33.5763L25.4181 33.9428L24.5241 33.9587C23.6608 33.9587 23.63 33.9746 23.7225 34.3092C24.0308 35.345 25.2485 36.4444 26.605 36.9224L27.5607 37.257L26.7283 37.7669C25.4952 38.4999 24.0462 38.9142 22.5972 38.9461C21.9036 38.962 21.3333 39.0257 21.3333 39.0735C21.3333 39.2329 23.2138 40.1252 24.3083 40.4757C27.5915 41.5114 31.4914 41.0653 34.4202 39.2966C36.5011 38.0378 38.5821 35.5362 39.5532 33.1142C40.0773 31.8235 40.6014 29.4653 40.6014 28.334C40.6014 27.601 40.6476 27.5054 41.5108 26.629C42.0195 26.1191 42.4974 25.5614 42.5899 25.4021C42.744 25.0994 42.7286 25.0994 41.9425 25.3702C40.6322 25.8483 40.4472 25.7845 41.0947 25.0675C41.5725 24.5576 42.1428 23.6334 42.1428 23.3625C42.1428 23.3147 41.9116 23.3944 41.6496 23.5378C41.3721 23.6972 40.7555 23.9362 40.2931 24.0796L39.4607 24.3505L38.7054 23.8246C38.2892 23.5378 37.7035 23.2191 37.3952 23.1235C36.609 22.9005 35.4067 22.9323 34.6976 23.1873C32.7708 23.9043 31.5531 25.7527 31.6918 27.7763Z" fill="#7A04EB"/>
<defs>
<linearGradient id="paint0_linear_326_5024" x1="32" y1="0" x2="32" y2="64" gradientUnits="userSpaceOnUse">
<stop stop-color="#7A04EB"/>
<stop offset="1" stop-color="#FEFEFE"/>
</linearGradient>
</defs>
</svg>
