<svg width="1920" height="277" viewBox="0 0 1920 277" fill="none" xmlns="http://www.w3.org/2000/svg">
<path d="M-79.88 109C-81.8533 109 -83.6667 108.52 -85.32 107.56C-86.9733 106.6 -88.28 105.293 -89.24 103.64C-90.2 101.987 -90.68 100.173 -90.68 98.2V92.12H-81.08V97.88C-81.08 98.3067 -80.9467 98.6533 -80.68 98.92C-80.36 99.1867 -80.0133 99.32 -79.64 99.32H-44.2C-43.8267 99.32 -43.5067 99.1867 -43.24 98.92C-42.92 98.6533 -42.76 98.3067 -42.76 97.88V51.4H-33.08V98.2C-33.08 100.173 -33.5867 101.987 -34.6 103.64C-35.56 105.293 -36.8667 106.6 -38.52 107.56C-40.12 108.52 -41.9067 109 -43.88 109H-79.88ZM-9.77812 109C-11.7515 109 -13.5381 108.52 -15.1381 107.56C-16.7381 106.547 -18.0448 105.24 -19.0581 103.64C-20.0181 102.04 -20.4981 100.253 -20.4981 98.28V73.32C-20.4981 71.3467 -20.0181 69.56 -19.0581 67.96C-18.0448 66.36 -16.7381 65.08 -15.1381 64.12C-13.5381 63.1067 -11.7515 62.6 -9.77812 62.6H15.9019C17.9285 62.6 19.7419 63.1067 21.3419 64.12C22.9419 65.08 24.2219 66.36 25.1819 67.96C26.1419 69.56 26.6219 71.3467 26.6219 73.32V98.28C26.6219 100.253 26.1419 102.04 25.1819 103.64C24.2219 105.24 22.9419 106.547 21.3419 107.56C19.7419 108.52 17.9285 109 15.9019 109H-9.77812ZM-9.45812 99.48H15.5819C16.0085 99.48 16.3552 99.3467 16.6219 99.08C16.9419 98.76 17.1019 98.3867 17.1019 97.96V73.64C17.1019 73.2133 16.9419 72.8667 16.6219 72.6C16.3552 72.28 16.0085 72.12 15.5819 72.12H-9.45812C-9.88479 72.12 -10.2581 72.28 -10.5781 72.6C-10.8448 72.8667 -10.9781 73.2133 -10.9781 73.64V97.96C-10.9781 98.3867 -10.8448 98.76 -10.5781 99.08C-10.2581 99.3467 -9.88479 99.48 -9.45812 99.48ZM38.9725 109V62.6H48.4925V109H38.9725ZM38.9725 57V47.4H48.4925V57H38.9725ZM61.8044 109V62.6H98.2844C100.204 62.6 101.964 63.1067 103.564 64.12C105.218 65.08 106.524 66.36 107.484 67.96C108.444 69.56 108.924 71.3467 108.924 73.32V109H99.4044V73.64C99.4044 73.2133 99.2444 72.8667 98.9244 72.6C98.6577 72.28 98.3377 72.12 97.9644 72.12H72.8444C72.471 72.12 72.1244 72.28 71.8044 72.6C71.4844 72.8667 71.3244 73.2133 71.3244 73.64V109H61.8044ZM159.976 109C158.002 109 156.189 108.52 154.536 107.56C152.936 106.547 151.656 105.24 150.696 103.64C149.736 102.04 149.256 100.253 149.256 98.28V48.12H158.776V62.6H177.336V72.12H158.776V97.96C158.776 98.3867 158.909 98.76 159.176 99.08C159.496 99.3467 159.869 99.48 160.296 99.48H177.336V109H159.976ZM188.883 109V47.4H198.403V62.6H225.363C227.283 62.6 229.043 63.1067 230.643 64.12C232.296 65.08 233.603 66.36 234.562 67.96C235.523 69.56 236.003 71.3467 236.003 73.32V109H226.483V73.64C226.483 73.2133 226.323 72.8667 226.003 72.6C225.736 72.28 225.416 72.12 225.043 72.12H199.923C199.549 72.12 199.203 72.28 198.883 72.6C198.563 72.8667 198.403 73.2133 198.403 73.64V109H188.883ZM256.722 109C254.749 109 252.962 108.52 251.362 107.56C249.762 106.547 248.455 105.24 247.442 103.64C246.482 102.04 246.002 100.253 246.002 98.28V73.32C246.002 71.3467 246.482 69.56 247.442 67.96C248.455 66.36 249.762 65.08 251.362 64.12C252.962 63.1067 254.749 62.6 256.722 62.6H282.402C284.429 62.6 286.242 63.1067 287.842 64.12C289.442 65.08 290.722 66.36 291.682 67.96C292.642 69.56 293.122 71.3467 293.122 73.32V90.6H255.522V97.96C255.522 98.3867 255.655 98.76 255.922 99.08C256.242 99.3467 256.615 99.48 257.042 99.48H293.122V109H256.722ZM255.522 81.88H283.602V73.64C283.602 73.2133 283.442 72.8667 283.122 72.6C282.855 72.28 282.509 72.12 282.082 72.12H257.042C256.615 72.12 256.242 72.28 255.922 72.6C255.655 72.8667 255.522 73.2133 255.522 73.64V81.88ZM350.181 109L331.941 62.6H342.101L354.021 91.64L366.661 62.6H376.981L390.421 91.8L401.461 62.6H411.701L394.181 109H386.661L371.861 76.28L357.781 109H350.181ZM431.693 109C429.719 109 427.906 108.52 426.253 107.56C424.653 106.547 423.373 105.24 422.413 103.64C421.453 102.04 420.973 100.253 420.973 98.28V81H458.573V73.64C458.573 73.2133 458.413 72.8667 458.093 72.6C457.826 72.28 457.479 72.12 457.053 72.12H420.973V62.6H457.373C459.399 62.6 461.213 63.1067 462.813 64.12C464.413 65.08 465.693 66.36 466.653 67.96C467.613 69.56 468.093 71.3467 468.093 73.32V109H431.693ZM432.013 99.48H458.573V89.72H430.493V97.96C430.493 98.3867 430.626 98.76 430.893 99.08C431.213 99.3467 431.586 99.48 432.013 99.48ZM480.519 109V62.6H490.039V109H480.519ZM480.519 57V47.4H490.039V57H480.519ZM513.679 109C511.705 109 509.892 108.52 508.239 107.56C506.639 106.547 505.359 105.24 504.399 103.64C503.439 102.04 502.959 100.253 502.959 98.28V48.12H512.479V62.6H531.039V72.12H512.479V97.96C512.479 98.3867 512.612 98.76 512.879 99.08C513.199 99.3467 513.572 99.48 513.999 99.48H531.039V109H513.679ZM552.13 109C550.157 109 548.37 108.52 546.77 107.56C545.17 106.547 543.863 105.24 542.85 103.64C541.89 102.04 541.41 100.253 541.41 98.28V47.32H551.01V97.96C551.01 98.3867 551.143 98.76 551.41 99.08C551.73 99.3467 552.077 99.48 552.45 99.48H561.09V109H552.13ZM572.285 109V62.6H581.805V109H572.285ZM572.285 57V47.4H581.805V57H572.285ZM605.904 109C603.93 109 602.144 108.52 600.544 107.56C598.944 106.547 597.637 105.24 596.624 103.64C595.664 102.04 595.184 100.253 595.184 98.28V96.76H604.704V97.96C604.704 98.3867 604.837 98.76 605.104 99.08C605.424 99.3467 605.797 99.48 606.224 99.48H631.264C631.69 99.48 632.037 99.3467 632.304 99.08C632.624 98.76 632.784 98.3867 632.784 97.96V92.04C632.784 91.6667 632.624 91.3467 632.304 91.08C632.037 90.76 631.69 90.6 631.264 90.6H605.904C603.93 90.6 602.144 90.12 600.544 89.16C598.944 88.1467 597.637 86.84 596.624 85.24C595.664 83.64 595.184 81.8533 595.184 79.88V73.32C595.184 71.3467 595.664 69.56 596.624 67.96C597.637 66.36 598.944 65.08 600.544 64.12C602.144 63.1067 603.93 62.6 605.904 62.6H631.584C633.61 62.6 635.424 63.1067 637.024 64.12C638.624 65.08 639.904 66.36 640.864 67.96C641.877 69.56 642.384 71.3467 642.384 73.32V74.84H632.784V73.64C632.784 73.2133 632.624 72.8667 632.304 72.6C632.037 72.28 631.69 72.12 631.264 72.12H606.224C605.797 72.12 605.424 72.28 605.104 72.6C604.837 72.8667 604.704 73.2133 604.704 73.64V79.56C604.704 79.9333 604.837 80.28 605.104 80.6C605.424 80.8667 605.797 81 606.224 81H631.584C633.61 81 635.424 81.5067 637.024 82.52C638.624 83.48 639.904 84.76 640.864 86.36C641.877 87.96 642.384 89.7467 642.384 91.72V98.28C642.384 100.253 641.877 102.04 640.864 103.64C639.904 105.24 638.624 106.547 637.024 107.56C635.424 108.52 633.61 109 631.584 109H605.904ZM665.148 109C663.174 109 661.361 108.52 659.708 107.56C658.108 106.547 656.828 105.24 655.868 103.64C654.908 102.04 654.428 100.253 654.428 98.28V48.12H663.948V62.6H682.508V72.12H663.948V97.96C663.948 98.3867 664.081 98.76 664.348 99.08C664.668 99.3467 665.041 99.48 665.468 99.48H682.508V109H665.148Z" fill="white"/>
<path d="M749.12 109C747.147 109 745.333 108.52 743.68 107.56C742.027 106.6 740.72 105.293 739.76 103.64C738.8 101.987 738.32 100.173 738.32 98.2V92.12H747.92V97.88C747.92 98.3067 748.053 98.6533 748.32 98.92C748.64 99.1867 748.987 99.32 749.36 99.32H784.8C785.173 99.32 785.493 99.1867 785.76 98.92C786.08 98.6533 786.24 98.3067 786.24 97.88V51.4H795.92V98.2C795.92 100.173 795.413 101.987 794.4 103.64C793.44 105.293 792.133 106.6 790.48 107.56C788.88 108.52 787.093 109 785.12 109H749.12ZM819.222 109C817.249 109 815.462 108.52 813.862 107.56C812.262 106.547 810.955 105.24 809.942 103.64C808.982 102.04 808.502 100.253 808.502 98.28V73.32C808.502 71.3467 808.982 69.56 809.942 67.96C810.955 66.36 812.262 65.08 813.862 64.12C815.462 63.1067 817.249 62.6 819.222 62.6H844.902C846.929 62.6 848.742 63.1067 850.342 64.12C851.942 65.08 853.222 66.36 854.182 67.96C855.142 69.56 855.622 71.3467 855.622 73.32V98.28C855.622 100.253 855.142 102.04 854.182 103.64C853.222 105.24 851.942 106.547 850.342 107.56C848.742 108.52 846.929 109 844.902 109H819.222ZM819.542 99.48H844.582C845.009 99.48 845.355 99.3467 845.622 99.08C845.942 98.76 846.102 98.3867 846.102 97.96V73.64C846.102 73.2133 845.942 72.8667 845.622 72.6C845.355 72.28 845.009 72.12 844.582 72.12H819.542C819.115 72.12 818.742 72.28 818.422 72.6C818.155 72.8667 818.022 73.2133 818.022 73.64V97.96C818.022 98.3867 818.155 98.76 818.422 99.08C818.742 99.3467 819.115 99.48 819.542 99.48ZM867.973 109V62.6H877.493V109H867.973ZM867.973 57V47.4H877.493V57H867.973ZM890.804 109V62.6H927.284C929.204 62.6 930.964 63.1067 932.564 64.12C934.218 65.08 935.524 66.36 936.484 67.96C937.444 69.56 937.924 71.3467 937.924 73.32V109H928.404V73.64C928.404 73.2133 928.244 72.8667 927.924 72.6C927.658 72.28 927.338 72.12 926.964 72.12H901.844C901.471 72.12 901.124 72.28 900.804 72.6C900.484 72.8667 900.324 73.2133 900.324 73.64V109H890.804ZM988.976 109C987.002 109 985.189 108.52 983.536 107.56C981.936 106.547 980.656 105.24 979.696 103.64C978.736 102.04 978.256 100.253 978.256 98.28V48.12H987.776V62.6H1006.34V72.12H987.776V97.96C987.776 98.3867 987.909 98.76 988.176 99.08C988.496 99.3467 988.869 99.48 989.296 99.48H1006.34V109H988.976ZM1017.88 109V47.4H1027.4V62.6H1054.36C1056.28 62.6 1058.04 63.1067 1059.64 64.12C1061.3 65.08 1062.6 66.36 1063.56 67.96C1064.52 69.56 1065 71.3467 1065 73.32V109H1055.48V73.64C1055.48 73.2133 1055.32 72.8667 1055 72.6C1054.74 72.28 1054.42 72.12 1054.04 72.12H1028.92C1028.55 72.12 1028.2 72.28 1027.88 72.6C1027.56 72.8667 1027.4 73.2133 1027.4 73.64V109H1017.88ZM1085.72 109C1083.75 109 1081.96 108.52 1080.36 107.56C1078.76 106.547 1077.46 105.24 1076.44 103.64C1075.48 102.04 1075 100.253 1075 98.28V73.32C1075 71.3467 1075.48 69.56 1076.44 67.96C1077.46 66.36 1078.76 65.08 1080.36 64.12C1081.96 63.1067 1083.75 62.6 1085.72 62.6H1111.4C1113.43 62.6 1115.24 63.1067 1116.84 64.12C1118.44 65.08 1119.72 66.36 1120.68 67.96C1121.64 69.56 1122.12 71.3467 1122.12 73.32V90.6H1084.52V97.96C1084.52 98.3867 1084.66 98.76 1084.92 99.08C1085.24 99.3467 1085.62 99.48 1086.04 99.48H1122.12V109H1085.72ZM1084.52 81.88H1112.6V73.64C1112.6 73.2133 1112.44 72.8667 1112.12 72.6C1111.86 72.28 1111.51 72.12 1111.08 72.12H1086.04C1085.62 72.12 1085.24 72.28 1084.92 72.6C1084.66 72.8667 1084.52 73.2133 1084.52 73.64V81.88ZM1179.18 109L1160.94 62.6H1171.1L1183.02 91.64L1195.66 62.6H1205.98L1219.42 91.8L1230.46 62.6H1240.7L1223.18 109H1215.66L1200.86 76.28L1186.78 109H1179.18ZM1260.69 109C1258.72 109 1256.91 108.52 1255.25 107.56C1253.65 106.547 1252.37 105.24 1251.41 103.64C1250.45 102.04 1249.97 100.253 1249.97 98.28V81H1287.57V73.64C1287.57 73.2133 1287.41 72.8667 1287.09 72.6C1286.83 72.28 1286.48 72.12 1286.05 72.12H1249.97V62.6H1286.37C1288.4 62.6 1290.21 63.1067 1291.81 64.12C1293.41 65.08 1294.69 66.36 1295.65 67.96C1296.61 69.56 1297.09 71.3467 1297.09 73.32V109H1260.69ZM1261.01 99.48H1287.57V89.72H1259.49V97.96C1259.49 98.3867 1259.63 98.76 1259.89 99.08C1260.21 99.3467 1260.59 99.48 1261.01 99.48ZM1309.52 109V62.6H1319.04V109H1309.52ZM1309.52 57V47.4H1319.04V57H1309.52ZM1342.68 109C1340.71 109 1338.89 108.52 1337.24 107.56C1335.64 106.547 1334.36 105.24 1333.4 103.64C1332.44 102.04 1331.96 100.253 1331.96 98.28V48.12H1341.48V62.6H1360.04V72.12H1341.48V97.96C1341.48 98.3867 1341.61 98.76 1341.88 99.08C1342.2 99.3467 1342.57 99.48 1343 99.48H1360.04V109H1342.68ZM1381.13 109C1379.16 109 1377.37 108.52 1375.77 107.56C1374.17 106.547 1372.86 105.24 1371.85 103.64C1370.89 102.04 1370.41 100.253 1370.41 98.28V47.32H1380.01V97.96C1380.01 98.3867 1380.14 98.76 1380.41 99.08C1380.73 99.3467 1381.08 99.48 1381.45 99.48H1390.09V109H1381.13ZM1401.29 109V62.6H1410.81V109H1401.29ZM1401.29 57V47.4H1410.81V57H1401.29ZM1434.9 109C1432.93 109 1431.14 108.52 1429.54 107.56C1427.94 106.547 1426.64 105.24 1425.62 103.64C1424.66 102.04 1424.18 100.253 1424.18 98.28V96.76H1433.7V97.96C1433.7 98.3867 1433.84 98.76 1434.1 99.08C1434.42 99.3467 1434.8 99.48 1435.22 99.48H1460.26C1460.69 99.48 1461.04 99.3467 1461.3 99.08C1461.62 98.76 1461.78 98.3867 1461.78 97.96V92.04C1461.78 91.6667 1461.62 91.3467 1461.3 91.08C1461.04 90.76 1460.69 90.6 1460.26 90.6H1434.9C1432.93 90.6 1431.14 90.12 1429.54 89.16C1427.94 88.1467 1426.64 86.84 1425.62 85.24C1424.66 83.64 1424.18 81.8533 1424.18 79.88V73.32C1424.18 71.3467 1424.66 69.56 1425.62 67.96C1426.64 66.36 1427.94 65.08 1429.54 64.12C1431.14 63.1067 1432.93 62.6 1434.9 62.6H1460.58C1462.61 62.6 1464.42 63.1067 1466.02 64.12C1467.62 65.08 1468.9 66.36 1469.86 67.96C1470.88 69.56 1471.38 71.3467 1471.38 73.32V74.84H1461.78V73.64C1461.78 73.2133 1461.62 72.8667 1461.3 72.6C1461.04 72.28 1460.69 72.12 1460.26 72.12H1435.22C1434.8 72.12 1434.42 72.28 1434.1 72.6C1433.84 72.8667 1433.7 73.2133 1433.7 73.64V79.56C1433.7 79.9333 1433.84 80.28 1434.1 80.6C1434.42 80.8667 1434.8 81 1435.22 81H1460.58C1462.61 81 1464.42 81.5067 1466.02 82.52C1467.62 83.48 1468.9 84.76 1469.86 86.36C1470.88 87.96 1471.38 89.7467 1471.38 91.72V98.28C1471.38 100.253 1470.88 102.04 1469.86 103.64C1468.9 105.24 1467.62 106.547 1466.02 107.56C1464.42 108.52 1462.61 109 1460.58 109H1434.9ZM1494.15 109C1492.17 109 1490.36 108.52 1488.71 107.56C1487.11 106.547 1485.83 105.24 1484.87 103.64C1483.91 102.04 1483.43 100.253 1483.43 98.28V48.12H1492.95V62.6H1511.51V72.12H1492.95V97.96C1492.95 98.3867 1493.08 98.76 1493.35 99.08C1493.67 99.3467 1494.04 99.48 1494.47 99.48H1511.51V109H1494.15Z" fill="white"/>
<path d="M1578.12 109C1576.15 109 1574.33 108.52 1572.68 107.56C1571.03 106.6 1569.72 105.293 1568.76 103.64C1567.8 101.987 1567.32 100.173 1567.32 98.2V92.12H1576.92V97.88C1576.92 98.3067 1577.05 98.6533 1577.32 98.92C1577.64 99.1867 1577.99 99.32 1578.36 99.32H1613.8C1614.17 99.32 1614.49 99.1867 1614.76 98.92C1615.08 98.6533 1615.24 98.3067 1615.24 97.88V51.4H1624.92V98.2C1624.92 100.173 1624.41 101.987 1623.4 103.64C1622.44 105.293 1621.13 106.6 1619.48 107.56C1617.88 108.52 1616.09 109 1614.12 109H1578.12ZM1648.22 109C1646.25 109 1644.46 108.52 1642.86 107.56C1641.26 106.547 1639.96 105.24 1638.94 103.64C1637.98 102.04 1637.5 100.253 1637.5 98.28V73.32C1637.5 71.3467 1637.98 69.56 1638.94 67.96C1639.96 66.36 1641.26 65.08 1642.86 64.12C1644.46 63.1067 1646.25 62.6 1648.22 62.6H1673.9C1675.93 62.6 1677.74 63.1067 1679.34 64.12C1680.94 65.08 1682.22 66.36 1683.18 67.96C1684.14 69.56 1684.62 71.3467 1684.62 73.32V98.28C1684.62 100.253 1684.14 102.04 1683.18 103.64C1682.22 105.24 1680.94 106.547 1679.34 107.56C1677.74 108.52 1675.93 109 1673.9 109H1648.22ZM1648.54 99.48H1673.58C1674.01 99.48 1674.36 99.3467 1674.62 99.08C1674.94 98.76 1675.1 98.3867 1675.1 97.96V73.64C1675.1 73.2133 1674.94 72.8667 1674.62 72.6C1674.36 72.28 1674.01 72.12 1673.58 72.12H1648.54C1648.12 72.12 1647.74 72.28 1647.42 72.6C1647.16 72.8667 1647.02 73.2133 1647.02 73.64V97.96C1647.02 98.3867 1647.16 98.76 1647.42 99.08C1647.74 99.3467 1648.12 99.48 1648.54 99.48ZM1696.97 109V62.6H1706.49V109H1696.97ZM1696.97 57V47.4H1706.49V57H1696.97ZM1719.8 109V62.6H1756.28C1758.2 62.6 1759.96 63.1067 1761.56 64.12C1763.22 65.08 1764.52 66.36 1765.48 67.96C1766.44 69.56 1766.92 71.3467 1766.92 73.32V109H1757.4V73.64C1757.4 73.2133 1757.24 72.8667 1756.92 72.6C1756.66 72.28 1756.34 72.12 1755.96 72.12H1730.84C1730.47 72.12 1730.12 72.28 1729.8 72.6C1729.48 72.8667 1729.32 73.2133 1729.32 73.64V109H1719.8ZM1817.98 109C1816 109 1814.19 108.52 1812.54 107.56C1810.94 106.547 1809.66 105.24 1808.7 103.64C1807.74 102.04 1807.26 100.253 1807.26 98.28V48.12H1816.78V62.6H1835.34V72.12H1816.78V97.96C1816.78 98.3867 1816.91 98.76 1817.18 99.08C1817.5 99.3467 1817.87 99.48 1818.3 99.48H1835.34V109H1817.98ZM1846.88 109V47.4H1856.4V62.6H1883.36C1885.28 62.6 1887.04 63.1067 1888.64 64.12C1890.3 65.08 1891.6 66.36 1892.56 67.96C1893.52 69.56 1894 71.3467 1894 73.32V109H1884.48V73.64C1884.48 73.2133 1884.32 72.8667 1884 72.6C1883.74 72.28 1883.42 72.12 1883.04 72.12H1857.92C1857.55 72.12 1857.2 72.28 1856.88 72.6C1856.56 72.8667 1856.4 73.2133 1856.4 73.64V109H1846.88ZM1914.72 109C1912.75 109 1910.96 108.52 1909.36 107.56C1907.76 106.547 1906.46 105.24 1905.44 103.64C1904.48 102.04 1904 100.253 1904 98.28V73.32C1904 71.3467 1904.48 69.56 1905.44 67.96C1906.46 66.36 1907.76 65.08 1909.36 64.12C1910.96 63.1067 1912.75 62.6 1914.72 62.6H1940.4C1942.43 62.6 1944.24 63.1067 1945.84 64.12C1947.44 65.08 1948.72 66.36 1949.68 67.96C1950.64 69.56 1951.12 71.3467 1951.12 73.32V90.6H1913.52V97.96C1913.52 98.3867 1913.66 98.76 1913.92 99.08C1914.24 99.3467 1914.62 99.48 1915.04 99.48H1951.12V109H1914.72ZM1913.52 81.88H1941.6V73.64C1941.6 73.2133 1941.44 72.8667 1941.12 72.6C1940.86 72.28 1940.51 72.12 1940.08 72.12H1915.04C1914.62 72.12 1914.24 72.28 1913.92 72.6C1913.66 72.8667 1913.52 73.2133 1913.52 73.64V81.88ZM2008.18 109L1989.94 62.6H2000.1L2012.02 91.64L2024.66 62.6H2034.98L2048.42 91.8L2059.46 62.6H2069.7L2052.18 109H2044.66L2029.86 76.28L2015.78 109H2008.18ZM2089.69 109C2087.72 109 2085.91 108.52 2084.25 107.56C2082.65 106.547 2081.37 105.24 2080.41 103.64C2079.45 102.04 2078.97 100.253 2078.97 98.28V81H2116.57V73.64C2116.57 73.2133 2116.41 72.8667 2116.09 72.6C2115.83 72.28 2115.48 72.12 2115.05 72.12H2078.97V62.6H2115.37C2117.4 62.6 2119.21 63.1067 2120.81 64.12C2122.41 65.08 2123.69 66.36 2124.65 67.96C2125.61 69.56 2126.09 71.3467 2126.09 73.32V109H2089.69ZM2090.01 99.48H2116.57V89.72H2088.49V97.96C2088.49 98.3867 2088.63 98.76 2088.89 99.08C2089.21 99.3467 2089.59 99.48 2090.01 99.48ZM2138.52 109V62.6H2148.04V109H2138.52ZM2138.52 57V47.4H2148.04V57H2138.52ZM2171.68 109C2169.71 109 2167.89 108.52 2166.24 107.56C2164.64 106.547 2163.36 105.24 2162.4 103.64C2161.44 102.04 2160.96 100.253 2160.96 98.28V48.12H2170.48V62.6H2189.04V72.12H2170.48V97.96C2170.48 98.3867 2170.61 98.76 2170.88 99.08C2171.2 99.3467 2171.57 99.48 2172 99.48H2189.04V109H2171.68ZM2210.13 109C2208.16 109 2206.37 108.52 2204.77 107.56C2203.17 106.547 2201.86 105.24 2200.85 103.64C2199.89 102.04 2199.41 100.253 2199.41 98.28V47.32H2209.01V97.96C2209.01 98.3867 2209.14 98.76 2209.41 99.08C2209.73 99.3467 2210.08 99.48 2210.45 99.48H2219.09V109H2210.13ZM2230.29 109V62.6H2239.81V109H2230.29ZM2230.29 57V47.4H2239.81V57H2230.29ZM2263.9 109C2261.93 109 2260.14 108.52 2258.54 107.56C2256.94 106.547 2255.64 105.24 2254.62 103.64C2253.66 102.04 2253.18 100.253 2253.18 98.28V96.76H2262.7V97.96C2262.7 98.3867 2262.84 98.76 2263.1 99.08C2263.42 99.3467 2263.8 99.48 2264.22 99.48H2289.26C2289.69 99.48 2290.04 99.3467 2290.3 99.08C2290.62 98.76 2290.78 98.3867 2290.78 97.96V92.04C2290.78 91.6667 2290.62 91.3467 2290.3 91.08C2290.04 90.76 2289.69 90.6 2289.26 90.6H2263.9C2261.93 90.6 2260.14 90.12 2258.54 89.16C2256.94 88.1467 2255.64 86.84 2254.62 85.24C2253.66 83.64 2253.18 81.8533 2253.18 79.88V73.32C2253.18 71.3467 2253.66 69.56 2254.62 67.96C2255.64 66.36 2256.94 65.08 2258.54 64.12C2260.14 63.1067 2261.93 62.6 2263.9 62.6H2289.58C2291.61 62.6 2293.42 63.1067 2295.02 64.12C2296.62 65.08 2297.9 66.36 2298.86 67.96C2299.88 69.56 2300.38 71.3467 2300.38 73.32V74.84H2290.78V73.64C2290.78 73.2133 2290.62 72.8667 2290.3 72.6C2290.04 72.28 2289.69 72.12 2289.26 72.12H2264.22C2263.8 72.12 2263.42 72.28 2263.1 72.6C2262.84 72.8667 2262.7 73.2133 2262.7 73.64V79.56C2262.7 79.9333 2262.84 80.28 2263.1 80.6C2263.42 80.8667 2263.8 81 2264.22 81H2289.58C2291.61 81 2293.42 81.5067 2295.02 82.52C2296.62 83.48 2297.9 84.76 2298.86 86.36C2299.88 87.96 2300.38 89.7467 2300.38 91.72V98.28C2300.38 100.253 2299.88 102.04 2298.86 103.64C2297.9 105.24 2296.62 106.547 2295.02 107.56C2293.42 108.52 2291.61 109 2289.58 109H2263.9ZM2323.15 109C2321.17 109 2319.36 108.52 2317.71 107.56C2316.11 106.547 2314.83 105.24 2313.87 103.64C2312.91 102.04 2312.43 100.253 2312.43 98.28V48.12H2321.95V62.6H2340.51V72.12H2321.95V97.96C2321.95 98.3867 2322.08 98.76 2322.35 99.08C2322.67 99.3467 2323.04 99.48 2323.47 99.48H2340.51V109H2323.15Z" fill="white"/>
<path d="M-307.88 209C-309.853 209 -311.667 208.52 -313.32 207.56C-314.973 206.6 -316.28 205.293 -317.24 203.64C-318.2 201.987 -318.68 200.173 -318.68 198.2V192.12H-309.08V197.88C-309.08 198.307 -308.947 198.653 -308.68 198.92C-308.36 199.187 -308.013 199.32 -307.64 199.32H-272.2C-271.827 199.32 -271.507 199.187 -271.24 198.92C-270.92 198.653 -270.76 198.307 -270.76 197.88V151.4H-261.08V198.2C-261.08 200.173 -261.587 201.987 -262.6 203.64C-263.56 205.293 -264.867 206.6 -266.52 207.56C-268.12 208.52 -269.907 209 -271.88 209H-307.88ZM-237.778 209C-239.751 209 -241.538 208.52 -243.138 207.56C-244.738 206.547 -246.045 205.24 -247.058 203.64C-248.018 202.04 -248.498 200.253 -248.498 198.28V173.32C-248.498 171.347 -248.018 169.56 -247.058 167.96C-246.045 166.36 -244.738 165.08 -243.138 164.12C-241.538 163.107 -239.751 162.6 -237.778 162.6H-212.098C-210.071 162.6 -208.258 163.107 -206.658 164.12C-205.058 165.08 -203.778 166.36 -202.818 167.96C-201.858 169.56 -201.378 171.347 -201.378 173.32V198.28C-201.378 200.253 -201.858 202.04 -202.818 203.64C-203.778 205.24 -205.058 206.547 -206.658 207.56C-208.258 208.52 -210.071 209 -212.098 209H-237.778ZM-237.458 199.48H-212.418C-211.991 199.48 -211.645 199.347 -211.378 199.08C-211.058 198.76 -210.898 198.387 -210.898 197.96V173.64C-210.898 173.213 -211.058 172.867 -211.378 172.6C-211.645 172.28 -211.991 172.12 -212.418 172.12H-237.458C-237.885 172.12 -238.258 172.28 -238.578 172.6C-238.845 172.867 -238.978 173.213 -238.978 173.64V197.96C-238.978 198.387 -238.845 198.76 -238.578 199.08C-238.258 199.347 -237.885 199.48 -237.458 199.48ZM-189.027 209V162.6H-179.507V209H-189.027ZM-189.027 157V147.4H-179.507V157H-189.027ZM-166.196 209V162.6H-129.716C-127.796 162.6 -126.036 163.107 -124.436 164.12C-122.782 165.08 -121.476 166.36 -120.516 167.96C-119.556 169.56 -119.076 171.347 -119.076 173.32V209H-128.596V173.64C-128.596 173.213 -128.756 172.867 -129.076 172.6C-129.342 172.28 -129.662 172.12 -130.036 172.12H-155.156C-155.529 172.12 -155.876 172.28 -156.196 172.6C-156.516 172.867 -156.676 173.213 -156.676 173.64V209H-166.196ZM-68.0244 209C-69.9977 209 -71.811 208.52 -73.4644 207.56C-75.0644 206.547 -76.3444 205.24 -77.3044 203.64C-78.2644 202.04 -78.7444 200.253 -78.7444 198.28V148.12H-69.2244V162.6H-50.6644V172.12H-69.2244V197.96C-69.2244 198.387 -69.091 198.76 -68.8244 199.08C-68.5044 199.347 -68.131 199.48 -67.7044 199.48H-50.6644V209H-68.0244ZM-39.1175 209V147.4H-29.5975V162.6H-2.6375C-0.717498 162.6 1.0425 163.107 2.6425 164.12C4.29584 165.08 5.6025 166.36 6.5625 167.96C7.5225 169.56 8.0025 171.347 8.0025 173.32V209H-1.5175V173.64C-1.5175 173.213 -1.6775 172.867 -1.9975 172.6C-2.26417 172.28 -2.58416 172.12 -2.9575 172.12H-28.0775C-28.4508 172.12 -28.7975 172.28 -29.1175 172.6C-29.4375 172.867 -29.5975 173.213 -29.5975 173.64V209H-39.1175ZM28.7219 209C26.7485 209 24.9619 208.52 23.3619 207.56C21.7619 206.547 20.4552 205.24 19.4419 203.64C18.4819 202.04 18.0019 200.253 18.0019 198.28V173.32C18.0019 171.347 18.4819 169.56 19.4419 167.96C20.4552 166.36 21.7619 165.08 23.3619 164.12C24.9619 163.107 26.7485 162.6 28.7219 162.6H54.4019C56.4285 162.6 58.2419 163.107 59.8419 164.12C61.4419 165.08 62.7219 166.36 63.6819 167.96C64.6419 169.56 65.1219 171.347 65.1219 173.32V190.6H27.5219V197.96C27.5219 198.387 27.6552 198.76 27.9219 199.08C28.2419 199.347 28.6152 199.48 29.0419 199.48H65.1219V209H28.7219ZM27.5219 181.88H55.6019V173.64C55.6019 173.213 55.4419 172.867 55.1219 172.6C54.8552 172.28 54.5085 172.12 54.0819 172.12H29.0419C28.6152 172.12 28.2419 172.28 27.9219 172.6C27.6552 172.867 27.5219 173.213 27.5219 173.64V181.88ZM122.181 209L103.941 162.6H114.101L126.021 191.64L138.661 162.6H148.981L162.421 191.8L173.461 162.6H183.701L166.181 209H158.661L143.861 176.28L129.781 209H122.181ZM203.693 209C201.719 209 199.906 208.52 198.253 207.56C196.653 206.547 195.373 205.24 194.413 203.64C193.453 202.04 192.973 200.253 192.973 198.28V181H230.573V173.64C230.573 173.213 230.413 172.867 230.093 172.6C229.826 172.28 229.479 172.12 229.053 172.12H192.973V162.6H229.373C231.399 162.6 233.213 163.107 234.813 164.12C236.413 165.08 237.693 166.36 238.653 167.96C239.613 169.56 240.093 171.347 240.093 173.32V209H203.693ZM204.013 199.48H230.573V189.72H202.493V197.96C202.493 198.387 202.626 198.76 202.893 199.08C203.213 199.347 203.586 199.48 204.013 199.48ZM252.519 209V162.6H262.039V209H252.519ZM252.519 157V147.4H262.039V157H252.519ZM285.679 209C283.705 209 281.892 208.52 280.239 207.56C278.639 206.547 277.359 205.24 276.399 203.64C275.439 202.04 274.959 200.253 274.959 198.28V148.12H284.479V162.6H303.039V172.12H284.479V197.96C284.479 198.387 284.612 198.76 284.879 199.08C285.199 199.347 285.572 199.48 285.999 199.48H303.039V209H285.679ZM324.13 209C322.157 209 320.37 208.52 318.77 207.56C317.17 206.547 315.863 205.24 314.85 203.64C313.89 202.04 313.41 200.253 313.41 198.28V147.32H323.01V197.96C323.01 198.387 323.143 198.76 323.41 199.08C323.73 199.347 324.077 199.48 324.45 199.48H333.09V209H324.13ZM344.285 209V162.6H353.805V209H344.285ZM344.285 157V147.4H353.805V157H344.285ZM377.904 209C375.93 209 374.144 208.52 372.544 207.56C370.944 206.547 369.637 205.24 368.624 203.64C367.664 202.04 367.184 200.253 367.184 198.28V196.76H376.704V197.96C376.704 198.387 376.837 198.76 377.104 199.08C377.424 199.347 377.797 199.48 378.224 199.48H403.264C403.69 199.48 404.037 199.347 404.304 199.08C404.624 198.76 404.784 198.387 404.784 197.96V192.04C404.784 191.667 404.624 191.347 404.304 191.08C404.037 190.76 403.69 190.6 403.264 190.6H377.904C375.93 190.6 374.144 190.12 372.544 189.16C370.944 188.147 369.637 186.84 368.624 185.24C367.664 183.64 367.184 181.853 367.184 179.88V173.32C367.184 171.347 367.664 169.56 368.624 167.96C369.637 166.36 370.944 165.08 372.544 164.12C374.144 163.107 375.93 162.6 377.904 162.6H403.584C405.61 162.6 407.424 163.107 409.024 164.12C410.624 165.08 411.904 166.36 412.864 167.96C413.877 169.56 414.384 171.347 414.384 173.32V174.84H404.784V173.64C404.784 173.213 404.624 172.867 404.304 172.6C404.037 172.28 403.69 172.12 403.264 172.12H378.224C377.797 172.12 377.424 172.28 377.104 172.6C376.837 172.867 376.704 173.213 376.704 173.64V179.56C376.704 179.933 376.837 180.28 377.104 180.6C377.424 180.867 377.797 181 378.224 181H403.584C405.61 181 407.424 181.507 409.024 182.52C410.624 183.48 411.904 184.76 412.864 186.36C413.877 187.96 414.384 189.747 414.384 191.72V198.28C414.384 200.253 413.877 202.04 412.864 203.64C411.904 205.24 410.624 206.547 409.024 207.56C407.424 208.52 405.61 209 403.584 209H377.904ZM437.148 209C435.174 209 433.361 208.52 431.708 207.56C430.108 206.547 428.828 205.24 427.868 203.64C426.908 202.04 426.428 200.253 426.428 198.28V148.12H435.948V162.6H454.508V172.12H435.948V197.96C435.948 198.387 436.081 198.76 436.348 199.08C436.668 199.347 437.041 199.48 437.468 199.48H454.508V209H437.148Z" fill="white"/>
<path d="M521.12 209C519.147 209 517.333 208.52 515.68 207.56C514.027 206.6 512.72 205.293 511.76 203.64C510.8 201.987 510.32 200.173 510.32 198.2V192.12H519.92V197.88C519.92 198.307 520.053 198.653 520.32 198.92C520.64 199.187 520.987 199.32 521.36 199.32H556.8C557.173 199.32 557.493 199.187 557.76 198.92C558.08 198.653 558.24 198.307 558.24 197.88V151.4H567.92V198.2C567.92 200.173 567.413 201.987 566.4 203.64C565.44 205.293 564.133 206.6 562.48 207.56C560.88 208.52 559.093 209 557.12 209H521.12ZM591.222 209C589.249 209 587.462 208.52 585.862 207.56C584.262 206.547 582.955 205.24 581.942 203.64C580.982 202.04 580.502 200.253 580.502 198.28V173.32C580.502 171.347 580.982 169.56 581.942 167.96C582.955 166.36 584.262 165.08 585.862 164.12C587.462 163.107 589.249 162.6 591.222 162.6H616.902C618.929 162.6 620.742 163.107 622.342 164.12C623.942 165.08 625.222 166.36 626.182 167.96C627.142 169.56 627.622 171.347 627.622 173.32V198.28C627.622 200.253 627.142 202.04 626.182 203.64C625.222 205.24 623.942 206.547 622.342 207.56C620.742 208.52 618.929 209 616.902 209H591.222ZM591.542 199.48H616.582C617.009 199.48 617.355 199.347 617.622 199.08C617.942 198.76 618.102 198.387 618.102 197.96V173.64C618.102 173.213 617.942 172.867 617.622 172.6C617.355 172.28 617.009 172.12 616.582 172.12H591.542C591.115 172.12 590.742 172.28 590.422 172.6C590.155 172.867 590.022 173.213 590.022 173.64V197.96C590.022 198.387 590.155 198.76 590.422 199.08C590.742 199.347 591.115 199.48 591.542 199.48ZM639.973 209V162.6H649.493V209H639.973ZM639.973 157V147.4H649.493V157H639.973ZM662.804 209V162.6H699.284C701.204 162.6 702.964 163.107 704.564 164.12C706.218 165.08 707.524 166.36 708.484 167.96C709.444 169.56 709.924 171.347 709.924 173.32V209H700.404V173.64C700.404 173.213 700.244 172.867 699.924 172.6C699.658 172.28 699.338 172.12 698.964 172.12H673.844C673.471 172.12 673.124 172.28 672.804 172.6C672.484 172.867 672.324 173.213 672.324 173.64V209H662.804ZM760.976 209C759.002 209 757.189 208.52 755.536 207.56C753.936 206.547 752.656 205.24 751.696 203.64C750.736 202.04 750.256 200.253 750.256 198.28V148.12H759.776V162.6H778.336V172.12H759.776V197.96C759.776 198.387 759.909 198.76 760.176 199.08C760.496 199.347 760.869 199.48 761.296 199.48H778.336V209H760.976ZM789.883 209V147.4H799.403V162.6H826.363C828.283 162.6 830.043 163.107 831.643 164.12C833.296 165.08 834.603 166.36 835.562 167.96C836.523 169.56 837.003 171.347 837.003 173.32V209H827.483V173.64C827.483 173.213 827.323 172.867 827.003 172.6C826.736 172.28 826.416 172.12 826.043 172.12H800.923C800.549 172.12 800.203 172.28 799.883 172.6C799.563 172.867 799.403 173.213 799.403 173.64V209H789.883ZM857.722 209C855.749 209 853.962 208.52 852.362 207.56C850.762 206.547 849.455 205.24 848.442 203.64C847.482 202.04 847.002 200.253 847.002 198.28V173.32C847.002 171.347 847.482 169.56 848.442 167.96C849.455 166.36 850.762 165.08 852.362 164.12C853.962 163.107 855.749 162.6 857.722 162.6H883.402C885.429 162.6 887.242 163.107 888.842 164.12C890.442 165.08 891.722 166.36 892.682 167.96C893.642 169.56 894.122 171.347 894.122 173.32V190.6H856.522V197.96C856.522 198.387 856.655 198.76 856.922 199.08C857.242 199.347 857.615 199.48 858.042 199.48H894.122V209H857.722ZM856.522 181.88H884.602V173.64C884.602 173.213 884.442 172.867 884.122 172.6C883.855 172.28 883.509 172.12 883.082 172.12H858.042C857.615 172.12 857.242 172.28 856.922 172.6C856.655 172.867 856.522 173.213 856.522 173.64V181.88ZM951.181 209L932.941 162.6H943.101L955.021 191.64L967.661 162.6H977.981L991.421 191.8L1002.46 162.6H1012.7L995.181 209H987.661L972.861 176.28L958.781 209H951.181ZM1032.69 209C1030.72 209 1028.91 208.52 1027.25 207.56C1025.65 206.547 1024.37 205.24 1023.41 203.64C1022.45 202.04 1021.97 200.253 1021.97 198.28V181H1059.57V173.64C1059.57 173.213 1059.41 172.867 1059.09 172.6C1058.83 172.28 1058.48 172.12 1058.05 172.12H1021.97V162.6H1058.37C1060.4 162.6 1062.21 163.107 1063.81 164.12C1065.41 165.08 1066.69 166.36 1067.65 167.96C1068.61 169.56 1069.09 171.347 1069.09 173.32V209H1032.69ZM1033.01 199.48H1059.57V189.72H1031.49V197.96C1031.49 198.387 1031.63 198.76 1031.89 199.08C1032.21 199.347 1032.59 199.48 1033.01 199.48ZM1081.52 209V162.6H1091.04V209H1081.52ZM1081.52 157V147.4H1091.04V157H1081.52ZM1114.68 209C1112.71 209 1110.89 208.52 1109.24 207.56C1107.64 206.547 1106.36 205.24 1105.4 203.64C1104.44 202.04 1103.96 200.253 1103.96 198.28V148.12H1113.48V162.6H1132.04V172.12H1113.48V197.96C1113.48 198.387 1113.61 198.76 1113.88 199.08C1114.2 199.347 1114.57 199.48 1115 199.48H1132.04V209H1114.68ZM1153.13 209C1151.16 209 1149.37 208.52 1147.77 207.56C1146.17 206.547 1144.86 205.24 1143.85 203.64C1142.89 202.04 1142.41 200.253 1142.41 198.28V147.32H1152.01V197.96C1152.01 198.387 1152.14 198.76 1152.41 199.08C1152.73 199.347 1153.08 199.48 1153.45 199.48H1162.09V209H1153.13ZM1173.29 209V162.6H1182.81V209H1173.29ZM1173.29 157V147.4H1182.81V157H1173.29ZM1206.9 209C1204.93 209 1203.14 208.52 1201.54 207.56C1199.94 206.547 1198.64 205.24 1197.62 203.64C1196.66 202.04 1196.18 200.253 1196.18 198.28V196.76H1205.7V197.96C1205.7 198.387 1205.84 198.76 1206.1 199.08C1206.42 199.347 1206.8 199.48 1207.22 199.48H1232.26C1232.69 199.48 1233.04 199.347 1233.3 199.08C1233.62 198.76 1233.78 198.387 1233.78 197.96V192.04C1233.78 191.667 1233.62 191.347 1233.3 191.08C1233.04 190.76 1232.69 190.6 1232.26 190.6H1206.9C1204.93 190.6 1203.14 190.12 1201.54 189.16C1199.94 188.147 1198.64 186.84 1197.62 185.24C1196.66 183.64 1196.18 181.853 1196.18 179.88V173.32C1196.18 171.347 1196.66 169.56 1197.62 167.96C1198.64 166.36 1199.94 165.08 1201.54 164.12C1203.14 163.107 1204.93 162.6 1206.9 162.6H1232.58C1234.61 162.6 1236.42 163.107 1238.02 164.12C1239.62 165.08 1240.9 166.36 1241.86 167.96C1242.88 169.56 1243.38 171.347 1243.38 173.32V174.84H1233.78V173.64C1233.78 173.213 1233.62 172.867 1233.3 172.6C1233.04 172.28 1232.69 172.12 1232.26 172.12H1207.22C1206.8 172.12 1206.42 172.28 1206.1 172.6C1205.84 172.867 1205.7 173.213 1205.7 173.64V179.56C1205.7 179.933 1205.84 180.28 1206.1 180.6C1206.42 180.867 1206.8 181 1207.22 181H1232.58C1234.61 181 1236.42 181.507 1238.02 182.52C1239.62 183.48 1240.9 184.76 1241.86 186.36C1242.88 187.96 1243.38 189.747 1243.38 191.72V198.28C1243.38 200.253 1242.88 202.04 1241.86 203.64C1240.9 205.24 1239.62 206.547 1238.02 207.56C1236.42 208.52 1234.61 209 1232.58 209H1206.9ZM1266.15 209C1264.17 209 1262.36 208.52 1260.71 207.56C1259.11 206.547 1257.83 205.24 1256.87 203.64C1255.91 202.04 1255.43 200.253 1255.43 198.28V148.12H1264.95V162.6H1283.51V172.12H1264.95V197.96C1264.95 198.387 1265.08 198.76 1265.35 199.08C1265.67 199.347 1266.04 199.48 1266.47 199.48H1283.51V209H1266.15Z" fill="white"/>
<path d="M1350.12 209C1348.15 209 1346.33 208.52 1344.68 207.56C1343.03 206.6 1341.72 205.293 1340.76 203.64C1339.8 201.987 1339.32 200.173 1339.32 198.2V192.12H1348.92V197.88C1348.92 198.307 1349.05 198.653 1349.32 198.92C1349.64 199.187 1349.99 199.32 1350.36 199.32H1385.8C1386.17 199.32 1386.49 199.187 1386.76 198.92C1387.08 198.653 1387.24 198.307 1387.24 197.88V151.4H1396.92V198.2C1396.92 200.173 1396.41 201.987 1395.4 203.64C1394.44 205.293 1393.13 206.6 1391.48 207.56C1389.88 208.52 1388.09 209 1386.12 209H1350.12ZM1420.22 209C1418.25 209 1416.46 208.52 1414.86 207.56C1413.26 206.547 1411.96 205.24 1410.94 203.64C1409.98 202.04 1409.5 200.253 1409.5 198.28V173.32C1409.5 171.347 1409.98 169.56 1410.94 167.96C1411.96 166.36 1413.26 165.08 1414.86 164.12C1416.46 163.107 1418.25 162.6 1420.22 162.6H1445.9C1447.93 162.6 1449.74 163.107 1451.34 164.12C1452.94 165.08 1454.22 166.36 1455.18 167.96C1456.14 169.56 1456.62 171.347 1456.62 173.32V198.28C1456.62 200.253 1456.14 202.04 1455.18 203.64C1454.22 205.24 1452.94 206.547 1451.34 207.56C1449.74 208.52 1447.93 209 1445.9 209H1420.22ZM1420.54 199.48H1445.58C1446.01 199.48 1446.36 199.347 1446.62 199.08C1446.94 198.76 1447.1 198.387 1447.1 197.96V173.64C1447.1 173.213 1446.94 172.867 1446.62 172.6C1446.36 172.28 1446.01 172.12 1445.58 172.12H1420.54C1420.12 172.12 1419.74 172.28 1419.42 172.6C1419.16 172.867 1419.02 173.213 1419.02 173.64V197.96C1419.02 198.387 1419.16 198.76 1419.42 199.08C1419.74 199.347 1420.12 199.48 1420.54 199.48ZM1468.97 209V162.6H1478.49V209H1468.97ZM1468.97 157V147.4H1478.49V157H1468.97ZM1491.8 209V162.6H1528.28C1530.2 162.6 1531.96 163.107 1533.56 164.12C1535.22 165.08 1536.52 166.36 1537.48 167.96C1538.44 169.56 1538.92 171.347 1538.92 173.32V209H1529.4V173.64C1529.4 173.213 1529.24 172.867 1528.92 172.6C1528.66 172.28 1528.34 172.12 1527.96 172.12H1502.84C1502.47 172.12 1502.12 172.28 1501.8 172.6C1501.48 172.867 1501.32 173.213 1501.32 173.64V209H1491.8ZM1589.98 209C1588 209 1586.19 208.52 1584.54 207.56C1582.94 206.547 1581.66 205.24 1580.7 203.64C1579.74 202.04 1579.26 200.253 1579.26 198.28V148.12H1588.78V162.6H1607.34V172.12H1588.78V197.96C1588.78 198.387 1588.91 198.76 1589.18 199.08C1589.5 199.347 1589.87 199.48 1590.3 199.48H1607.34V209H1589.98ZM1618.88 209V147.4H1628.4V162.6H1655.36C1657.28 162.6 1659.04 163.107 1660.64 164.12C1662.3 165.08 1663.6 166.36 1664.56 167.96C1665.52 169.56 1666 171.347 1666 173.32V209H1656.48V173.64C1656.48 173.213 1656.32 172.867 1656 172.6C1655.74 172.28 1655.42 172.12 1655.04 172.12H1629.92C1629.55 172.12 1629.2 172.28 1628.88 172.6C1628.56 172.867 1628.4 173.213 1628.4 173.64V209H1618.88ZM1686.72 209C1684.75 209 1682.96 208.52 1681.36 207.56C1679.76 206.547 1678.46 205.24 1677.44 203.64C1676.48 202.04 1676 200.253 1676 198.28V173.32C1676 171.347 1676.48 169.56 1677.44 167.96C1678.46 166.36 1679.76 165.08 1681.36 164.12C1682.96 163.107 1684.75 162.6 1686.72 162.6H1712.4C1714.43 162.6 1716.24 163.107 1717.84 164.12C1719.44 165.08 1720.72 166.36 1721.68 167.96C1722.64 169.56 1723.12 171.347 1723.12 173.32V190.6H1685.52V197.96C1685.52 198.387 1685.66 198.76 1685.92 199.08C1686.24 199.347 1686.62 199.48 1687.04 199.48H1723.12V209H1686.72ZM1685.52 181.88H1713.6V173.64C1713.6 173.213 1713.44 172.867 1713.12 172.6C1712.86 172.28 1712.51 172.12 1712.08 172.12H1687.04C1686.62 172.12 1686.24 172.28 1685.92 172.6C1685.66 172.867 1685.52 173.213 1685.52 173.64V181.88ZM1780.18 209L1761.94 162.6H1772.1L1784.02 191.64L1796.66 162.6H1806.98L1820.42 191.8L1831.46 162.6H1841.7L1824.18 209H1816.66L1801.86 176.28L1787.78 209H1780.18ZM1861.69 209C1859.72 209 1857.91 208.52 1856.25 207.56C1854.65 206.547 1853.37 205.24 1852.41 203.64C1851.45 202.04 1850.97 200.253 1850.97 198.28V181H1888.57V173.64C1888.57 173.213 1888.41 172.867 1888.09 172.6C1887.83 172.28 1887.48 172.12 1887.05 172.12H1850.97V162.6H1887.37C1889.4 162.6 1891.21 163.107 1892.81 164.12C1894.41 165.08 1895.69 166.36 1896.65 167.96C1897.61 169.56 1898.09 171.347 1898.09 173.32V209H1861.69ZM1862.01 199.48H1888.57V189.72H1860.49V197.96C1860.49 198.387 1860.63 198.76 1860.89 199.08C1861.21 199.347 1861.59 199.48 1862.01 199.48ZM1910.52 209V162.6H1920.04V209H1910.52ZM1910.52 157V147.4H1920.04V157H1910.52ZM1943.68 209C1941.71 209 1939.89 208.52 1938.24 207.56C1936.64 206.547 1935.36 205.24 1934.4 203.64C1933.44 202.04 1932.96 200.253 1932.96 198.28V148.12H1942.48V162.6H1961.04V172.12H1942.48V197.96C1942.48 198.387 1942.61 198.76 1942.88 199.08C1943.2 199.347 1943.57 199.48 1944 199.48H1961.04V209H1943.68ZM1982.13 209C1980.16 209 1978.37 208.52 1976.77 207.56C1975.17 206.547 1973.86 205.24 1972.85 203.64C1971.89 202.04 1971.41 200.253 1971.41 198.28V147.32H1981.01V197.96C1981.01 198.387 1981.14 198.76 1981.41 199.08C1981.73 199.347 1982.08 199.48 1982.45 199.48H1991.09V209H1982.13ZM2002.29 209V162.6H2011.81V209H2002.29ZM2002.29 157V147.4H2011.81V157H2002.29ZM2035.9 209C2033.93 209 2032.14 208.52 2030.54 207.56C2028.94 206.547 2027.64 205.24 2026.62 203.64C2025.66 202.04 2025.18 200.253 2025.18 198.28V196.76H2034.7V197.96C2034.7 198.387 2034.84 198.76 2035.1 199.08C2035.42 199.347 2035.8 199.48 2036.22 199.48H2061.26C2061.69 199.48 2062.04 199.347 2062.3 199.08C2062.62 198.76 2062.78 198.387 2062.78 197.96V192.04C2062.78 191.667 2062.62 191.347 2062.3 191.08C2062.04 190.76 2061.69 190.6 2061.26 190.6H2035.9C2033.93 190.6 2032.14 190.12 2030.54 189.16C2028.94 188.147 2027.64 186.84 2026.62 185.24C2025.66 183.64 2025.18 181.853 2025.18 179.88V173.32C2025.18 171.347 2025.66 169.56 2026.62 167.96C2027.64 166.36 2028.94 165.08 2030.54 164.12C2032.14 163.107 2033.93 162.6 2035.9 162.6H2061.58C2063.61 162.6 2065.42 163.107 2067.02 164.12C2068.62 165.08 2069.9 166.36 2070.86 167.96C2071.88 169.56 2072.38 171.347 2072.38 173.32V174.84H2062.78V173.64C2062.78 173.213 2062.62 172.867 2062.3 172.6C2062.04 172.28 2061.69 172.12 2061.26 172.12H2036.22C2035.8 172.12 2035.42 172.28 2035.1 172.6C2034.84 172.867 2034.7 173.213 2034.7 173.64V179.56C2034.7 179.933 2034.84 180.28 2035.1 180.6C2035.42 180.867 2035.8 181 2036.22 181H2061.58C2063.61 181 2065.42 181.507 2067.02 182.52C2068.62 183.48 2069.9 184.76 2070.86 186.36C2071.88 187.96 2072.38 189.747 2072.38 191.72V198.28C2072.38 200.253 2071.88 202.04 2070.86 203.64C2069.9 205.24 2068.62 206.547 2067.02 207.56C2065.42 208.52 2063.61 209 2061.58 209H2035.9ZM2095.15 209C2093.17 209 2091.36 208.52 2089.71 207.56C2088.11 206.547 2086.83 205.24 2085.87 203.64C2084.91 202.04 2084.43 200.253 2084.43 198.28V148.12H2093.95V162.6H2112.51V172.12H2093.95V197.96C2093.95 198.387 2094.08 198.76 2094.35 199.08C2094.67 199.347 2095.04 199.48 2095.47 199.48H2112.51V209H2095.15Z" fill="white"/>
<rect x="-872.5" y="0.5" width="3483" height="276" stroke="white"/>
</svg>
