<svg width="132" height="29" viewBox="0 0 132 29" fill="none" xmlns="http://www.w3.org/2000/svg">
<path d="M4.93939 0.984848L6 0H2.43939L1 1.43939V26.9697L2.43939 28.4848H6L4.93939 27.5758H3.19697L2.43939 26.8182V1.74242L3.19697 0.984848H4.93939Z" fill="#01FAFF"/>
<path d="M1 3.63635L1.75758 4.54544V24.2424L1 25.1515" stroke="#000C1A"/>
<rect x="1" y="6.36365" width="0.454545" height="0.454545" fill="#000C1A"/>
<rect x="1" y="18.6364" width="0.454545" height="0.454545" fill="#000C1A"/>
<path d="M21.472 11.9864C21.472 12.3704 21.392 12.7438 21.232 13.1064C21.0827 13.4584 20.88 13.8104 20.624 14.1624C20.368 14.5038 20.08 14.8451 19.76 15.1864C19.44 15.5171 19.12 15.8424 18.8 16.1624C18.6187 16.3438 18.4053 16.5571 18.16 16.8024C17.9253 17.0478 17.7013 17.3038 17.488 17.5704C17.2747 17.8371 17.0933 18.0931 16.944 18.3384C16.8053 18.5838 16.736 18.7971 16.736 18.9784H21.84V20.2424H15.12C15.1093 20.1784 15.104 20.1144 15.104 20.0504C15.104 19.9864 15.104 19.9278 15.104 19.8744C15.104 19.3731 15.184 18.9091 15.344 18.4824C15.5147 18.0451 15.7333 17.6344 16 17.2504C16.2667 16.8664 16.5653 16.5038 16.896 16.1624C17.2267 15.8211 17.552 15.4904 17.872 15.1704C18.1387 14.9144 18.3893 14.6638 18.624 14.4184C18.8693 14.1624 19.0827 13.9118 19.264 13.6664C19.456 13.4104 19.6053 13.1491 19.712 12.8824C19.8293 12.6158 19.888 12.3331 19.888 12.0344C19.888 11.7144 19.8347 11.4424 19.728 11.2184C19.632 10.9944 19.4987 10.8078 19.328 10.6584C19.1573 10.5091 18.9547 10.4024 18.72 10.3384C18.496 10.2638 18.256 10.2264 18 10.2264C17.6907 10.2264 17.408 10.2691 17.152 10.3544C16.896 10.4398 16.6667 10.5411 16.464 10.6584C16.2613 10.7651 16.0907 10.8824 15.952 11.0104C15.8133 11.1278 15.7067 11.2184 15.632 11.2824L14.896 10.2264C14.992 10.1198 15.136 9.99176 15.328 9.84243C15.52 9.68243 15.7493 9.5331 16.016 9.39443C16.2827 9.25576 16.5813 9.13843 16.912 9.04243C17.2427 8.94643 17.6 8.89843 17.984 8.89843C19.1467 8.89843 20.016 9.17043 20.592 9.71443C21.1787 10.2478 21.472 11.0051 21.472 11.9864ZM31.0473 13.5864C31.0473 15.7838 30.4979 17.4478 29.3993 18.5784C28.3113 19.6984 26.6899 20.2638 24.5353 20.2744L24.4873 19.0264C25.1593 19.0264 25.7619 18.9624 26.2953 18.8344C26.8393 18.7064 27.3139 18.5038 27.7193 18.2264C28.1246 17.9384 28.4606 17.5704 28.7273 17.1224C29.0046 16.6744 29.2073 16.1251 29.3353 15.4744C29.0579 15.6024 28.7433 15.7091 28.3913 15.7944C28.0393 15.8691 27.6766 15.9064 27.3033 15.9064C26.6739 15.9064 26.1406 15.8158 25.7033 15.6344C25.2659 15.4424 24.9086 15.1918 24.6313 14.8824C24.3539 14.5624 24.1513 14.1998 24.0233 13.7944C23.9059 13.3784 23.8473 12.9464 23.8473 12.4984C23.8473 12.1038 23.9166 11.6931 24.0553 11.2664C24.1939 10.8398 24.4019 10.4504 24.6793 10.0984C24.9673 9.74643 25.3299 9.45843 25.7673 9.23443C26.2046 9.01043 26.7219 8.89843 27.3193 8.89843C27.9273 8.89843 28.4606 9.0051 28.9193 9.21843C29.3886 9.43176 29.7779 9.7411 30.0873 10.1464C30.4073 10.5518 30.6473 11.0478 30.8073 11.6344C30.9673 12.2104 31.0473 12.8611 31.0473 13.5864ZM27.4633 14.6904C27.8366 14.6904 28.1886 14.6584 28.5193 14.5944C28.8499 14.5198 29.1699 14.4131 29.4793 14.2744C29.4899 14.1571 29.4953 14.0451 29.4953 13.9384C29.4953 13.8211 29.4953 13.7038 29.4953 13.5864C29.4953 13.1278 29.4633 12.6904 29.3993 12.2744C29.3353 11.8478 29.2179 11.4798 29.0473 11.1704C28.8873 10.8504 28.6686 10.5998 28.3913 10.4184C28.1139 10.2264 27.7619 10.1304 27.3353 10.1304C26.9833 10.1304 26.6846 10.2051 26.4393 10.3544C26.1939 10.5038 25.9913 10.6958 25.8313 10.9304C25.6713 11.1544 25.5539 11.4051 25.4793 11.6824C25.4153 11.9491 25.3832 12.2104 25.3832 12.4664C25.3832 13.1918 25.5539 13.7464 25.8953 14.1304C26.2473 14.5038 26.7699 14.6904 27.4633 14.6904ZM35.2465 13.4264C36.8572 13.4904 38.0358 13.8424 38.7825 14.4824C39.5398 15.1224 39.9185 15.9918 39.9185 17.0904C39.9185 17.5811 39.8332 18.0344 39.6625 18.4504C39.5025 18.8664 39.2518 19.2238 38.9105 19.5224C38.5798 19.8211 38.1585 20.0558 37.6465 20.2264C37.1345 20.3971 36.5265 20.4824 35.8225 20.4824C35.5452 20.4824 35.2625 20.4611 34.9745 20.4184C34.6865 20.3758 34.4198 20.3224 34.1745 20.2584C33.9292 20.1944 33.7105 20.1304 33.5185 20.0664C33.3265 20.0024 33.1878 19.9491 33.1025 19.9064L33.3905 18.6104C33.5718 18.6958 33.8652 18.8078 34.2705 18.9464C34.6865 19.0851 35.1932 19.1544 35.7905 19.1544C36.2705 19.1544 36.6705 19.1011 36.9905 18.9944C37.3212 18.8878 37.5878 18.7438 37.7905 18.5624C37.9932 18.3811 38.1372 18.1731 38.2225 17.9384C38.3185 17.6931 38.3665 17.4371 38.3665 17.1704C38.3665 16.7651 38.2972 16.4078 38.1585 16.0984C38.0198 15.7784 37.7745 15.5118 37.4225 15.2984C37.0705 15.0851 36.6012 14.9251 36.0145 14.8184C35.4278 14.7011 34.6865 14.6424 33.7905 14.6424C33.8545 14.1198 33.9025 13.6291 33.9345 13.1704C33.9772 12.7118 34.0145 12.2638 34.0465 11.8264C34.0785 11.3891 34.1052 10.9571 34.1265 10.5304C34.1478 10.0931 34.1692 9.63443 34.1905 9.15443H39.5345V10.4184H35.4865C35.4758 10.5784 35.4598 10.7971 35.4385 11.0744C35.4172 11.3411 35.3958 11.6238 35.3745 11.9224C35.3532 12.2104 35.3318 12.4931 35.3105 12.7704C35.2892 13.0478 35.2678 13.2664 35.2465 13.4264ZM49.6929 20.4344C49.0209 20.4344 48.4289 20.3278 47.9169 20.1144C47.4155 19.9011 46.9889 19.6024 46.6369 19.2184C46.2955 18.8344 46.0395 18.3811 45.8689 17.8584C45.6982 17.3251 45.6129 16.7384 45.6129 16.0984C45.6129 15.4584 45.7035 14.8718 45.8849 14.3384C46.0769 13.8051 46.3435 13.3464 46.6849 12.9624C47.0262 12.5678 47.4422 12.2638 47.9329 12.0504C48.4342 11.8264 48.9889 11.7144 49.5969 11.7144C49.9702 11.7144 50.3435 11.7464 50.7169 11.8104C51.0902 11.8744 51.4475 11.9758 51.7889 12.1144L51.4529 13.3784C51.2289 13.2718 50.9675 13.1864 50.6689 13.1224C50.3809 13.0584 50.0715 13.0264 49.7409 13.0264C48.9089 13.0264 48.2689 13.2878 47.8209 13.8104C47.3835 14.3331 47.1649 15.0958 47.1649 16.0984C47.1649 16.5464 47.2129 16.9571 47.3089 17.3304C47.4155 17.7038 47.5755 18.0238 47.7889 18.2904C48.0129 18.5571 48.2955 18.7651 48.6369 18.9144C48.9782 19.0531 49.3942 19.1224 49.8849 19.1224C50.2795 19.1224 50.6369 19.0851 50.9569 19.0104C51.2769 18.9358 51.5275 18.8558 51.7089 18.7704L51.9169 20.0184C51.8315 20.0718 51.7089 20.1251 51.5489 20.1784C51.3889 20.2211 51.2075 20.2584 51.0049 20.2904C50.8022 20.3331 50.5835 20.3651 50.3489 20.3864C50.1249 20.4184 49.9062 20.4344 49.6929 20.4344ZM56.3304 19.1704C56.6824 19.1704 56.9917 19.1651 57.2584 19.1544C57.5357 19.1331 57.765 19.1011 57.9464 19.0584V16.5784C57.8397 16.5251 57.6637 16.4824 57.4184 16.4504C57.1837 16.4078 56.8957 16.3864 56.5544 16.3864C56.3304 16.3864 56.0904 16.4024 55.8344 16.4344C55.589 16.4664 55.3597 16.5358 55.1464 16.6424C54.9437 16.7384 54.773 16.8771 54.6344 17.0584C54.4957 17.2291 54.4264 17.4584 54.4264 17.7464C54.4264 18.2798 54.597 18.6531 54.9384 18.8664C55.2797 19.0691 55.7437 19.1704 56.3304 19.1704ZM56.2024 11.7144C56.7997 11.7144 57.301 11.7944 57.7064 11.9544C58.1224 12.1038 58.453 12.3224 58.6984 12.6104C58.9544 12.8878 59.1357 13.2238 59.2424 13.6184C59.349 14.0024 59.4024 14.4291 59.4024 14.8984V20.0984C59.2744 20.1198 59.093 20.1518 58.8584 20.1944C58.6344 20.2264 58.3784 20.2584 58.0904 20.2904C57.8024 20.3224 57.4877 20.3491 57.1464 20.3704C56.8157 20.4024 56.485 20.4184 56.1544 20.4184C55.685 20.4184 55.253 20.3704 54.8584 20.2744C54.4637 20.1784 54.1224 20.0291 53.8344 19.8264C53.5464 19.6131 53.3224 19.3358 53.1624 18.9944C53.0024 18.6531 52.9224 18.2424 52.9224 17.7624C52.9224 17.3038 53.013 16.9091 53.1944 16.5784C53.3864 16.2478 53.6424 15.9811 53.9624 15.7784C54.2824 15.5758 54.6557 15.4264 55.0824 15.3304C55.509 15.2344 55.957 15.1864 56.4264 15.1864C56.5757 15.1864 56.7304 15.1971 56.8904 15.2184C57.0504 15.2291 57.1997 15.2504 57.3384 15.2824C57.4877 15.3038 57.6157 15.3251 57.7224 15.3464C57.829 15.3678 57.9037 15.3838 57.9464 15.3944V14.9784C57.9464 14.7331 57.9197 14.4931 57.8664 14.2584C57.813 14.0131 57.717 13.7998 57.5784 13.6184C57.4397 13.4264 57.2477 13.2771 57.0024 13.1704C56.7677 13.0531 56.4584 12.9944 56.0744 12.9944C55.5837 12.9944 55.1517 13.0318 54.7784 13.1064C54.4157 13.1704 54.1437 13.2398 53.9624 13.3144L53.7864 12.0824C53.9784 11.9971 54.2984 11.9171 54.7464 11.8424C55.1944 11.7571 55.6797 11.7144 56.2024 11.7144ZM64.9458 11.7464C65.0738 11.7464 65.2178 11.7571 65.3778 11.7784C65.5484 11.7891 65.7138 11.8104 65.8738 11.8424C66.0338 11.8638 66.1778 11.8904 66.3058 11.9224C66.4444 11.9438 66.5458 11.9651 66.6098 11.9864L66.3538 13.2824C66.2364 13.2398 66.0391 13.1918 65.7618 13.1384C65.4951 13.0744 65.1484 13.0424 64.7218 13.0424C64.4444 13.0424 64.1671 13.0744 63.8898 13.1384C63.6231 13.1918 63.4471 13.2291 63.3618 13.2504V20.2424H61.8738V12.2744C62.2258 12.1464 62.6631 12.0291 63.1858 11.9224C63.7084 11.8051 64.2951 11.7464 64.9458 11.7464ZM73.4216 13.6824C73.2403 13.5331 72.979 13.3891 72.6376 13.2504C72.2963 13.1118 71.923 13.0424 71.5176 13.0424C71.091 13.0424 70.723 13.1224 70.4136 13.2824C70.115 13.4318 69.8696 13.6451 69.6776 13.9224C69.4856 14.1891 69.347 14.5091 69.2616 14.8824C69.1763 15.2558 69.1336 15.6558 69.1336 16.0824C69.1336 17.0531 69.3736 17.8051 69.8536 18.3384C70.3336 18.8611 70.9736 19.1224 71.7736 19.1224C72.179 19.1224 72.515 19.1064 72.7816 19.0744C73.059 19.0318 73.2723 18.9891 73.4216 18.9464V13.6824ZM73.4216 8.08243L74.9096 7.82643V20.0024C74.5683 20.0984 74.131 20.1944 73.5976 20.2904C73.0643 20.3864 72.451 20.4344 71.7576 20.4344C71.1176 20.4344 70.5416 20.3331 70.0296 20.1304C69.5176 19.9278 69.0803 19.6398 68.7176 19.2664C68.355 18.8931 68.0723 18.4398 67.8696 17.9064C67.6776 17.3624 67.5816 16.7544 67.5816 16.0824C67.5816 15.4424 67.6616 14.8558 67.8216 14.3224C67.9923 13.7891 68.2376 13.3304 68.5576 12.9464C68.8776 12.5624 69.267 12.2638 69.7256 12.0504C70.195 11.8371 70.7283 11.7304 71.3256 11.7304C71.8056 11.7304 72.227 11.7944 72.5896 11.9224C72.963 12.0504 73.2403 12.1731 73.4216 12.2904V8.08243ZM79.4035 19.1704C80.0115 19.1704 80.4595 19.0904 80.7475 18.9304C81.0462 18.7704 81.1955 18.5144 81.1955 18.1624C81.1955 17.7998 81.0515 17.5118 80.7635 17.2984C80.4755 17.0851 80.0008 16.8451 79.3395 16.5784C79.0195 16.4504 78.7102 16.3224 78.4115 16.1944C78.1235 16.0558 77.8728 15.8958 77.6595 15.7144C77.4462 15.5331 77.2755 15.3144 77.1475 15.0584C77.0195 14.8024 76.9555 14.4878 76.9555 14.1144C76.9555 13.3784 77.2275 12.7971 77.7715 12.3704C78.3155 11.9331 79.0568 11.7144 79.9955 11.7144C80.2302 11.7144 80.4648 11.7304 80.6995 11.7624C80.9342 11.7838 81.1528 11.8158 81.3555 11.8584C81.5582 11.8904 81.7342 11.9278 81.8835 11.9704C82.0435 12.0131 82.1662 12.0504 82.2515 12.0824L81.9795 13.3624C81.8195 13.2771 81.5688 13.1918 81.2275 13.1064C80.8862 13.0104 80.4755 12.9624 79.9955 12.9624C79.5795 12.9624 79.2168 13.0478 78.9075 13.2184C78.5982 13.3784 78.4435 13.6344 78.4435 13.9864C78.4435 14.1678 78.4755 14.3278 78.5395 14.4664C78.6142 14.6051 78.7208 14.7331 78.8595 14.8504C79.0088 14.9571 79.1902 15.0584 79.4035 15.1544C79.6168 15.2504 79.8728 15.3518 80.1715 15.4584C80.5662 15.6078 80.9182 15.7571 81.2275 15.9064C81.5368 16.0451 81.7982 16.2104 82.0115 16.4024C82.2355 16.5944 82.4062 16.8291 82.5235 17.1064C82.6408 17.3731 82.6995 17.7038 82.6995 18.0984C82.6995 18.8664 82.4115 19.4478 81.8355 19.8424C81.2702 20.2371 80.4595 20.4344 79.4035 20.4344C78.6675 20.4344 78.0915 20.3704 77.6755 20.2424C77.2595 20.1251 76.9768 20.0344 76.8275 19.9704L77.0995 18.6904C77.2702 18.7544 77.5422 18.8504 77.9155 18.9784C78.2888 19.1064 78.7848 19.1704 79.4035 19.1704ZM95.6553 16.0824C95.6553 16.7438 95.5593 17.3411 95.3673 17.8744C95.1753 18.4078 94.9033 18.8664 94.5513 19.2504C94.2099 19.6344 93.7993 19.9331 93.3193 20.1464C92.8393 20.3491 92.3166 20.4504 91.7513 20.4504C91.1859 20.4504 90.6633 20.3491 90.1833 20.1464C89.7033 19.9331 89.2873 19.6344 88.9353 19.2504C88.5939 18.8664 88.3273 18.4078 88.1353 17.8744C87.9433 17.3411 87.8473 16.7438 87.8473 16.0824C87.8473 15.4318 87.9433 14.8398 88.1353 14.3064C88.3273 13.7624 88.5939 13.2984 88.9353 12.9144C89.2873 12.5304 89.7033 12.2371 90.1833 12.0344C90.6633 11.8211 91.1859 11.7144 91.7513 11.7144C92.3166 11.7144 92.8393 11.8211 93.3193 12.0344C93.7993 12.2371 94.2099 12.5304 94.5513 12.9144C94.9033 13.2984 95.1753 13.7624 95.3673 14.3064C95.5593 14.8398 95.6553 15.4318 95.6553 16.0824ZM94.1033 16.0824C94.1033 15.1438 93.8899 14.4024 93.4633 13.8584C93.0473 13.3038 92.4766 13.0264 91.7513 13.0264C91.0259 13.0264 90.4499 13.3038 90.0233 13.8584C89.6073 14.4024 89.3993 15.1438 89.3993 16.0824C89.3993 17.0211 89.6073 17.7678 90.0233 18.3224C90.4499 18.8664 91.0259 19.1384 91.7513 19.1384C92.4766 19.1384 93.0473 18.8664 93.4633 18.3224C93.8899 17.7678 94.1033 17.0211 94.1033 16.0824ZM97.7488 12.1624C98.0901 12.0771 98.5434 11.9864 99.1088 11.8904C99.6741 11.7944 100.325 11.7464 101.061 11.7464C101.722 11.7464 102.271 11.8424 102.709 12.0344C103.146 12.2158 103.493 12.4771 103.749 12.8184C104.015 13.1491 104.202 13.5491 104.309 14.0184C104.415 14.4878 104.469 15.0051 104.469 15.5704V20.2424H102.981V15.8904C102.981 15.3784 102.943 14.9411 102.869 14.5784C102.805 14.2158 102.693 13.9224 102.533 13.6984C102.373 13.4744 102.159 13.3144 101.893 13.2184C101.626 13.1118 101.295 13.0584 100.901 13.0584C100.741 13.0584 100.575 13.0638 100.405 13.0744C100.234 13.0851 100.069 13.1011 99.9088 13.1224C99.7594 13.1331 99.6208 13.1491 99.4928 13.1704C99.3754 13.1918 99.2901 13.2078 99.2368 13.2184V20.2424H97.7488V12.1624ZM109.432 20.4024C108.515 20.3811 107.864 20.1838 107.48 19.8104C107.096 19.4371 106.904 18.8558 106.904 18.0664V8.08243L108.392 7.82643V17.8264C108.392 18.0718 108.414 18.2744 108.456 18.4344C108.499 18.5944 108.568 18.7224 108.664 18.8184C108.76 18.9144 108.888 18.9891 109.048 19.0424C109.208 19.0851 109.406 19.1224 109.64 19.1544L109.432 20.4024ZM110.335 21.7944C110.453 21.8478 110.602 21.8958 110.783 21.9384C110.975 21.9918 111.162 22.0184 111.343 22.0184C111.93 22.0184 112.389 21.8851 112.719 21.6184C113.05 21.3624 113.349 20.9411 113.615 20.3544C112.943 19.0744 112.314 17.7198 111.727 16.2904C111.151 14.8504 110.671 13.3944 110.287 11.9224H111.887C112.005 12.4024 112.143 12.9198 112.303 13.4744C112.474 14.0291 112.661 14.5998 112.863 15.1864C113.066 15.7731 113.285 16.3598 113.519 16.9464C113.754 17.5331 113.999 18.0984 114.255 18.6424C114.661 17.5224 115.013 16.4131 115.311 15.3144C115.61 14.2158 115.893 13.0851 116.159 11.9224H117.695C117.311 13.4904 116.885 14.9998 116.415 16.4504C115.946 17.8904 115.439 19.2398 114.895 20.4984C114.682 20.9784 114.458 21.3891 114.223 21.7304C113.999 22.0824 113.749 22.3704 113.471 22.5944C113.194 22.8184 112.879 22.9838 112.527 23.0904C112.186 23.1971 111.797 23.2504 111.359 23.2504C111.242 23.2504 111.119 23.2398 110.991 23.2184C110.863 23.2078 110.735 23.1864 110.607 23.1544C110.49 23.1331 110.378 23.1064 110.271 23.0744C110.175 23.0424 110.106 23.0158 110.063 22.9944L110.335 21.7944Z" fill="#00F0FF"/>
<path d="M127.061 0.984848L126 0H129.561L131 1.43939V26.9697L129.561 28.4848H126L127.061 27.5758H128.803L129.561 26.8182V1.74242L128.803 0.984848H127.061Z" fill="#01FAFF"/>
<path d="M131 3.63635L130.242 4.54544V24.2424L131 25.1515" stroke="#000C1A"/>
<rect width="0.454545" height="0.454545" transform="matrix(-1 0 0 1 131 6.36365)" fill="#000C1A"/>
<rect width="0.454545" height="0.454545" transform="matrix(-1 0 0 1 131 18.6364)" fill="#000C1A"/>
</svg>
