<svg width="142" height="29" viewBox="0 0 142 29" fill="none" xmlns="http://www.w3.org/2000/svg">
<path d="M4.93939 0.984848L6 0H2.43939L1 1.43939V26.9697L2.43939 28.4848H6L4.93939 27.5758H3.19697L2.43939 26.8182V1.74242L3.19697 0.984848H4.93939Z" fill="#C4C4C4"/>
<path d="M1 3.63635L1.75758 4.54544V24.2424L1 25.1515" stroke="#000C1A"/>
<rect x="1" y="6.36365" width="0.454545" height="0.454545" fill="#000C1A"/>
<rect x="1" y="18.6364" width="0.454545" height="0.454545" fill="#000C1A"/>
<path d="M15.488 11.4424C16.096 11.2078 16.688 10.9091 17.264 10.5464C17.84 10.1731 18.368 9.7091 18.848 9.15443H19.904V20.2424H18.416V11.2184C18.288 11.3358 18.128 11.4584 17.936 11.5864C17.7547 11.7144 17.552 11.8371 17.328 11.9544C17.1147 12.0718 16.8853 12.1838 16.64 12.2904C16.4053 12.3971 16.176 12.4878 15.952 12.5624L15.488 11.4424ZM23.6713 16.4024C23.8739 15.9331 24.1513 15.3891 24.5033 14.7704C24.8553 14.1411 25.2499 13.4958 25.6873 12.8344C26.1353 12.1731 26.6099 11.5224 27.1113 10.8824C27.6233 10.2424 28.1353 9.66643 28.6473 9.15443H30.0713V16.1944H31.3833V17.4104H30.0713V20.2424H28.6313V17.4104H23.6713V16.4024ZM28.6313 10.9144C28.3113 11.2558 27.9859 11.6398 27.6553 12.0664C27.3353 12.4824 27.0206 12.9198 26.7113 13.3784C26.4019 13.8371 26.1086 14.3064 25.8313 14.7864C25.5646 15.2664 25.3246 15.7358 25.1113 16.1944H28.6313V10.9144ZM32.8625 14.6904C32.8625 12.8344 33.1878 11.4051 33.8385 10.4024C34.4998 9.39976 35.4118 8.89843 36.5745 8.89843C37.7372 8.89843 38.6438 9.39976 39.2945 10.4024C39.9558 11.4051 40.2865 12.8344 40.2865 14.6904C40.2865 16.5464 39.9558 17.9758 39.2945 18.9784C38.6438 19.9811 37.7372 20.4824 36.5745 20.4824C35.4118 20.4824 34.4998 19.9811 33.8385 18.9784C33.1878 17.9758 32.8625 16.5464 32.8625 14.6904ZM38.7185 14.6904C38.7185 14.0824 38.6812 13.5064 38.6065 12.9624C38.5425 12.4184 38.4252 11.9438 38.2545 11.5384C38.0945 11.1331 37.8758 10.8131 37.5985 10.5784C37.3212 10.3331 36.9798 10.2104 36.5745 10.2104C36.1692 10.2104 35.8278 10.3331 35.5505 10.5784C35.2732 10.8131 35.0492 11.1331 34.8785 11.5384C34.7185 11.9438 34.6012 12.4184 34.5265 12.9624C34.4625 13.5064 34.4305 14.0824 34.4305 14.6904C34.4305 15.2984 34.4625 15.8744 34.5265 16.4184C34.6012 16.9624 34.7185 17.4371 34.8785 17.8424C35.0492 18.2478 35.2732 18.5731 35.5505 18.8184C35.8278 19.0531 36.1692 19.1704 36.5745 19.1704C36.9798 19.1704 37.3212 19.0531 37.5985 18.8184C37.8758 18.5731 38.0945 18.2478 38.2545 17.8424C38.4252 17.4371 38.5425 16.9624 38.6065 16.4184C38.6812 15.8744 38.7185 15.2984 38.7185 14.6904ZM41.8938 14.6904C41.8938 12.8344 42.2191 11.4051 42.8698 10.4024C43.5311 9.39976 44.4431 8.89843 45.6058 8.89843C46.7684 8.89843 47.6751 9.39976 48.3258 10.4024C48.9871 11.4051 49.3177 12.8344 49.3177 14.6904C49.3177 16.5464 48.9871 17.9758 48.3258 18.9784C47.6751 19.9811 46.7684 20.4824 45.6058 20.4824C44.4431 20.4824 43.5311 19.9811 42.8698 18.9784C42.2191 17.9758 41.8938 16.5464 41.8938 14.6904ZM47.7498 14.6904C47.7498 14.0824 47.7124 13.5064 47.6378 12.9624C47.5738 12.4184 47.4564 11.9438 47.2858 11.5384C47.1258 11.1331 46.9071 10.8131 46.6298 10.5784C46.3524 10.3331 46.0111 10.2104 45.6058 10.2104C45.2004 10.2104 44.8591 10.3331 44.5818 10.5784C44.3044 10.8131 44.0804 11.1331 43.9098 11.5384C43.7498 11.9438 43.6324 12.4184 43.5578 12.9624C43.4938 13.5064 43.4618 14.0824 43.4618 14.6904C43.4618 15.2984 43.4938 15.8744 43.5578 16.4184C43.6324 16.9624 43.7498 17.4371 43.9098 17.8424C44.0804 18.2478 44.3044 18.5731 44.5818 18.8184C44.8591 19.0531 45.2004 19.1704 45.6058 19.1704C46.0111 19.1704 46.3524 19.0531 46.6298 18.8184C46.9071 18.5731 47.1258 18.2478 47.2858 17.8424C47.4564 17.4371 47.5738 16.9624 47.6378 16.4184C47.7124 15.8744 47.7498 15.2984 47.7498 14.6904ZM58.7241 20.4344C58.0521 20.4344 57.4601 20.3278 56.9481 20.1144C56.4468 19.9011 56.0201 19.6024 55.6681 19.2184C55.3268 18.8344 55.0708 18.3811 54.9001 17.8584C54.7295 17.3251 54.6441 16.7384 54.6441 16.0984C54.6441 15.4584 54.7348 14.8718 54.9161 14.3384C55.1081 13.8051 55.3748 13.3464 55.7161 12.9624C56.0575 12.5678 56.4735 12.2638 56.9641 12.0504C57.4655 11.8264 58.0201 11.7144 58.6281 11.7144C59.0015 11.7144 59.3748 11.7464 59.7481 11.8104C60.1215 11.8744 60.4788 11.9758 60.8201 12.1144L60.4841 13.3784C60.2601 13.2718 59.9988 13.1864 59.7001 13.1224C59.4121 13.0584 59.1028 13.0264 58.7721 13.0264C57.9401 13.0264 57.3001 13.2878 56.8521 13.8104C56.4148 14.3331 56.1961 15.0958 56.1961 16.0984C56.1961 16.5464 56.2441 16.9571 56.3401 17.3304C56.4468 17.7038 56.6068 18.0238 56.8201 18.2904C57.0441 18.5571 57.3268 18.7651 57.6681 18.9144C58.0095 19.0531 58.4255 19.1224 58.9161 19.1224C59.3108 19.1224 59.6681 19.0851 59.9881 19.0104C60.3081 18.9358 60.5588 18.8558 60.7401 18.7704L60.9481 20.0184C60.8628 20.0718 60.7401 20.1251 60.5801 20.1784C60.4201 20.2211 60.2388 20.2584 60.0361 20.2904C59.8335 20.3331 59.6148 20.3651 59.3801 20.3864C59.1561 20.4184 58.9375 20.4344 58.7241 20.4344ZM65.3616 19.1704C65.7136 19.1704 66.023 19.1651 66.2896 19.1544C66.567 19.1331 66.7963 19.1011 66.9776 19.0584V16.5784C66.871 16.5251 66.695 16.4824 66.4496 16.4504C66.215 16.4078 65.927 16.3864 65.5856 16.3864C65.3616 16.3864 65.1216 16.4024 64.8656 16.4344C64.6203 16.4664 64.391 16.5358 64.1776 16.6424C63.975 16.7384 63.8043 16.8771 63.6656 17.0584C63.527 17.2291 63.4576 17.4584 63.4576 17.7464C63.4576 18.2798 63.6283 18.6531 63.9696 18.8664C64.311 19.0691 64.775 19.1704 65.3616 19.1704ZM65.2336 11.7144C65.831 11.7144 66.3323 11.7944 66.7376 11.9544C67.1536 12.1038 67.4843 12.3224 67.7296 12.6104C67.9856 12.8878 68.167 13.2238 68.2736 13.6184C68.3803 14.0024 68.4336 14.4291 68.4336 14.8984V20.0984C68.3056 20.1198 68.1243 20.1518 67.8896 20.1944C67.6656 20.2264 67.4096 20.2584 67.1216 20.2904C66.8336 20.3224 66.519 20.3491 66.1776 20.3704C65.847 20.4024 65.5163 20.4184 65.1856 20.4184C64.7163 20.4184 64.2843 20.3704 63.8896 20.2744C63.495 20.1784 63.1536 20.0291 62.8656 19.8264C62.5776 19.6131 62.3536 19.3358 62.1936 18.9944C62.0336 18.6531 61.9536 18.2424 61.9536 17.7624C61.9536 17.3038 62.0443 16.9091 62.2256 16.5784C62.4176 16.2478 62.6736 15.9811 62.9936 15.7784C63.3136 15.5758 63.687 15.4264 64.1136 15.3304C64.5403 15.2344 64.9883 15.1864 65.4576 15.1864C65.607 15.1864 65.7616 15.1971 65.9216 15.2184C66.0816 15.2291 66.231 15.2504 66.3696 15.2824C66.519 15.3038 66.647 15.3251 66.7536 15.3464C66.8603 15.3678 66.935 15.3838 66.9776 15.3944V14.9784C66.9776 14.7331 66.951 14.4931 66.8976 14.2584C66.8443 14.0131 66.7483 13.7998 66.6096 13.6184C66.471 13.4264 66.279 13.2771 66.0336 13.1704C65.799 13.0531 65.4896 12.9944 65.1056 12.9944C64.615 12.9944 64.183 13.0318 63.8096 13.1064C63.447 13.1704 63.175 13.2398 62.9936 13.3144L62.8176 12.0824C63.0096 11.9971 63.3296 11.9171 63.7776 11.8424C64.2256 11.7571 64.711 11.7144 65.2336 11.7144ZM73.977 11.7464C74.105 11.7464 74.249 11.7571 74.409 11.7784C74.5797 11.7891 74.745 11.8104 74.905 11.8424C75.065 11.8638 75.209 11.8904 75.337 11.9224C75.4757 11.9438 75.577 11.9651 75.641 11.9864L75.385 13.2824C75.2677 13.2398 75.0703 13.1918 74.793 13.1384C74.5263 13.0744 74.1797 13.0424 73.753 13.0424C73.4757 13.0424 73.1983 13.0744 72.921 13.1384C72.6543 13.1918 72.4783 13.2291 72.393 13.2504V20.2424H70.905V12.2744C71.257 12.1464 71.6943 12.0291 72.217 11.9224C72.7397 11.8051 73.3263 11.7464 73.977 11.7464ZM82.4529 13.6824C82.2715 13.5331 82.0102 13.3891 81.6689 13.2504C81.3275 13.1118 80.9542 13.0424 80.5489 13.0424C80.1222 13.0424 79.7542 13.1224 79.4449 13.2824C79.1462 13.4318 78.9009 13.6451 78.7089 13.9224C78.5169 14.1891 78.3782 14.5091 78.2929 14.8824C78.2075 15.2558 78.1649 15.6558 78.1649 16.0824C78.1649 17.0531 78.4049 17.8051 78.8849 18.3384C79.3649 18.8611 80.0049 19.1224 80.8049 19.1224C81.2102 19.1224 81.5462 19.1064 81.8129 19.0744C82.0902 19.0318 82.3035 18.9891 82.4529 18.9464V13.6824ZM82.4529 8.08243L83.9409 7.82643V20.0024C83.5995 20.0984 83.1622 20.1944 82.6289 20.2904C82.0955 20.3864 81.4822 20.4344 80.7889 20.4344C80.1489 20.4344 79.5729 20.3331 79.0609 20.1304C78.5489 19.9278 78.1115 19.6398 77.7489 19.2664C77.3862 18.8931 77.1035 18.4398 76.9009 17.9064C76.7089 17.3624 76.6129 16.7544 76.6129 16.0824C76.6129 15.4424 76.6929 14.8558 76.8529 14.3224C77.0235 13.7891 77.2689 13.3304 77.5889 12.9464C77.9089 12.5624 78.2982 12.2638 78.7569 12.0504C79.2262 11.8371 79.7595 11.7304 80.3569 11.7304C80.8369 11.7304 81.2582 11.7944 81.6209 11.9224C81.9942 12.0504 82.2715 12.1731 82.4529 12.2904V8.08243ZM88.4348 19.1704C89.0428 19.1704 89.4908 19.0904 89.7788 18.9304C90.0774 18.7704 90.2268 18.5144 90.2268 18.1624C90.2268 17.7998 90.0828 17.5118 89.7948 17.2984C89.5068 17.0851 89.0321 16.8451 88.3708 16.5784C88.0508 16.4504 87.7414 16.3224 87.4428 16.1944C87.1548 16.0558 86.9041 15.8958 86.6908 15.7144C86.4774 15.5331 86.3068 15.3144 86.1788 15.0584C86.0508 14.8024 85.9868 14.4878 85.9868 14.1144C85.9868 13.3784 86.2588 12.7971 86.8028 12.3704C87.3468 11.9331 88.0881 11.7144 89.0268 11.7144C89.2614 11.7144 89.4961 11.7304 89.7308 11.7624C89.9654 11.7838 90.1841 11.8158 90.3868 11.8584C90.5894 11.8904 90.7654 11.9278 90.9148 11.9704C91.0748 12.0131 91.1974 12.0504 91.2828 12.0824L91.0108 13.3624C90.8508 13.2771 90.6001 13.1918 90.2588 13.1064C89.9174 13.0104 89.5068 12.9624 89.0268 12.9624C88.6108 12.9624 88.2481 13.0478 87.9388 13.2184C87.6294 13.3784 87.4748 13.6344 87.4748 13.9864C87.4748 14.1678 87.5068 14.3278 87.5707 14.4664C87.6454 14.6051 87.7521 14.7331 87.8908 14.8504C88.0401 14.9571 88.2214 15.0584 88.4348 15.1544C88.6481 15.2504 88.9041 15.3518 89.2028 15.4584C89.5974 15.6078 89.9494 15.7571 90.2588 15.9064C90.5681 16.0451 90.8294 16.2104 91.0428 16.4024C91.2668 16.5944 91.4374 16.8291 91.5548 17.1064C91.6721 17.3731 91.7308 17.7038 91.7308 18.0984C91.7308 18.8664 91.4428 19.4478 90.8668 19.8424C90.3014 20.2371 89.4908 20.4344 88.4348 20.4344C87.6988 20.4344 87.1228 20.3704 86.7068 20.2424C86.2908 20.1251 86.0081 20.0344 85.8588 19.9704L86.1308 18.6904C86.3014 18.7544 86.5734 18.8504 86.9468 18.9784C87.3201 19.1064 87.8161 19.1704 88.4348 19.1704ZM104.687 16.0824C104.687 16.7438 104.591 17.3411 104.399 17.8744C104.207 18.4078 103.935 18.8664 103.583 19.2504C103.241 19.6344 102.831 19.9331 102.351 20.1464C101.871 20.3491 101.348 20.4504 100.783 20.4504C100.217 20.4504 99.6945 20.3491 99.2145 20.1464C98.7345 19.9331 98.3185 19.6344 97.9665 19.2504C97.6252 18.8664 97.3585 18.4078 97.1665 17.8744C96.9745 17.3411 96.8785 16.7438 96.8785 16.0824C96.8785 15.4318 96.9745 14.8398 97.1665 14.3064C97.3585 13.7624 97.6252 13.2984 97.9665 12.9144C98.3185 12.5304 98.7345 12.2371 99.2145 12.0344C99.6945 11.8211 100.217 11.7144 100.783 11.7144C101.348 11.7144 101.871 11.8211 102.351 12.0344C102.831 12.2371 103.241 12.5304 103.583 12.9144C103.935 13.2984 104.207 13.7624 104.399 14.3064C104.591 14.8398 104.687 15.4318 104.687 16.0824ZM103.135 16.0824C103.135 15.1438 102.921 14.4024 102.495 13.8584C102.079 13.3038 101.508 13.0264 100.783 13.0264C100.057 13.0264 99.4812 13.3038 99.0545 13.8584C98.6385 14.4024 98.4305 15.1438 98.4305 16.0824C98.4305 17.0211 98.6385 17.7678 99.0545 18.3224C99.4812 18.8664 100.057 19.1384 100.783 19.1384C101.508 19.1384 102.079 18.8664 102.495 18.3224C102.921 17.7678 103.135 17.0211 103.135 16.0824ZM106.78 12.1624C107.121 12.0771 107.575 11.9864 108.14 11.8904C108.705 11.7944 109.356 11.7464 110.092 11.7464C110.753 11.7464 111.303 11.8424 111.74 12.0344C112.177 12.2158 112.524 12.4771 112.78 12.8184C113.047 13.1491 113.233 13.5491 113.34 14.0184C113.447 14.4878 113.5 15.0051 113.5 15.5704V20.2424H112.012V15.8904C112.012 15.3784 111.975 14.9411 111.9 14.5784C111.836 14.2158 111.724 13.9224 111.564 13.6984C111.404 13.4744 111.191 13.3144 110.924 13.2184C110.657 13.1118 110.327 13.0584 109.932 13.0584C109.772 13.0584 109.607 13.0638 109.436 13.0744C109.265 13.0851 109.1 13.1011 108.94 13.1224C108.791 13.1331 108.652 13.1491 108.524 13.1704C108.407 13.1918 108.321 13.2078 108.268 13.2184V20.2424H106.78V12.1624ZM118.464 20.4024C117.546 20.3811 116.896 20.1838 116.512 19.8104C116.128 19.4371 115.936 18.8558 115.936 18.0664V8.08243L117.424 7.82643V17.8264C117.424 18.0718 117.445 18.2744 117.488 18.4344C117.53 18.5944 117.6 18.7224 117.696 18.8184C117.792 18.9144 117.92 18.9891 118.08 19.0424C118.24 19.0851 118.437 19.1224 118.672 19.1544L118.464 20.4024ZM119.367 21.7944C119.484 21.8478 119.633 21.8958 119.815 21.9384C120.007 21.9918 120.193 22.0184 120.375 22.0184C120.961 22.0184 121.42 21.8851 121.751 21.6184C122.081 21.3624 122.38 20.9411 122.647 20.3544C121.975 19.0744 121.345 17.7198 120.759 16.2904C120.183 14.8504 119.703 13.3944 119.319 11.9224H120.919C121.036 12.4024 121.175 12.9198 121.335 13.4744C121.505 14.0291 121.692 14.5998 121.895 15.1864C122.097 15.7731 122.316 16.3598 122.551 16.9464C122.785 17.5331 123.031 18.0984 123.286 18.6424C123.692 17.5224 124.044 16.4131 124.343 15.3144C124.641 14.2158 124.924 13.0851 125.191 11.9224H126.727C126.343 13.4904 125.916 14.9998 125.447 16.4504C124.977 17.8904 124.471 19.2398 123.927 20.4984C123.713 20.9784 123.489 21.3891 123.255 21.7304C123.031 22.0824 122.78 22.3704 122.503 22.5944C122.225 22.8184 121.911 22.9838 121.559 23.0904C121.217 23.1971 120.828 23.2504 120.391 23.2504C120.273 23.2504 120.151 23.2398 120.023 23.2184C119.895 23.2078 119.767 23.1864 119.639 23.1544C119.521 23.1331 119.409 23.1064 119.303 23.0744C119.207 23.0424 119.137 23.0158 119.095 22.9944L119.367 21.7944Z" fill="white"/>
<path d="M137.061 0.984848L136 0H139.561L141 1.43939V26.9697L139.561 28.4848H136L137.061 27.5758H138.803L139.561 26.8182V1.74242L138.803 0.984848H137.061Z" fill="#C4C4C4"/>
<path d="M141 3.63635L140.242 4.54544V24.2424L141 25.1515" stroke="#000C1A"/>
<rect width="0.454545" height="0.454545" transform="matrix(-1 0 0 1 141 6.36365)" fill="#000C1A"/>
<rect width="0.454545" height="0.454545" transform="matrix(-1 0 0 1 141 18.6364)" fill="#000C1A"/>
</svg>
