<svg width="808" height="158" viewBox="0 0 808 158" fill="none" xmlns="http://www.w3.org/2000/svg">
<path d="M-158 93.2206C-135.103 67.8893 -79.9952 26.7092 -42.7391 64.6389C-5.48309 102.569 46.132 80.4429 67.2826 64.6389C84.7464 42.446 126.776 4.71799 155.184 31.3495C190.693 64.6389 215.725 134.58 262.295 104.317C308.865 74.0541 380.466 -1.93989 399.676 31.3495C418.886 64.6389 457.307 161.481 523.087 104.317C588.867 47.1536 616.809 -17.7439 671.529 31.3495C715.305 70.6242 779.416 69.9069 806 64.6389" stroke="#A84DFF" stroke-width="2"/>
<path d="M801.5 78.5C779.044 94.4493 710.938 135.998 674.399 112.116C637.86 88.2347 587.239 102.166 566.495 112.116C549.368 126.09 508.147 149.844 480.287 133.076C445.461 112.116 420.911 68.0793 375.238 87.1337C329.564 106.188 259.341 154.036 240.501 133.076C221.661 112.116 183.98 51.1419 119.466 87.1337C54.9525 123.125 27.5484 163.987 -26.1179 133.076C-69.0509 108.348 -131.928 108.799 -158 112.116" stroke="#A84DFF" stroke-width="2"/>
<path d="M-158 91.8996C-113.6 69.3594 -20.1728 29.4342 -1.66042 50.0551C21.4801 75.8313 36.1546 162.533 71.1475 147.804C106.141 133.075 172.74 44.3643 213.377 50.0551C254.014 55.746 256.836 165.211 309.89 156.507C362.944 147.804 335.852 52.7332 400.194 35.9954C464.536 19.2576 447.604 109.307 487.112 124.706C526.621 140.104 540.731 135.753 557.098 85.8741C573.466 35.9954 615.232 -22.2521 645.145 10.554C675.059 43.3601 651.354 92.5691 697.07 112.32C742.787 132.07 776.651 48.0466 777.78 42.021C778.683 37.2005 798.47 35.4506 807.5 34" stroke="#A84DFF"/>
</svg>
