<svg width="86" height="86" viewBox="0 0 86 86" fill="none" xmlns="http://www.w3.org/2000/svg">
<mask id="path-1-inside-1_120_1743" fill="white">
<path d="M65.2354 41.9484L33.9215 20.598C33.4845 20.302 32.9209 20.2692 32.454 20.5155C31.9886 20.7617 31.6968 21.2456 31.6968 21.7737V64.4744C31.6968 65.0025 31.9886 65.4864 32.4554 65.7327C32.6632 65.8437 32.8924 65.8978 33.1201 65.8978C33.4005 65.8978 33.6809 65.8138 33.9215 65.6501L65.2354 44.2998C65.6239 44.035 65.8574 43.5952 65.8574 43.1241C65.8574 42.6529 65.6239 42.2131 65.2354 41.9484ZM34.5435 61.78V24.4681L61.9075 43.1241L34.5435 61.78Z"/>
</mask>
<path d="M65.2354 41.9484L33.9215 20.598C33.4845 20.302 32.9209 20.2692 32.454 20.5155C31.9886 20.7617 31.6968 21.2456 31.6968 21.7737V64.4744C31.6968 65.0025 31.9886 65.4864 32.4554 65.7327C32.6632 65.8437 32.8924 65.8978 33.1201 65.8978C33.4005 65.8978 33.6809 65.8138 33.9215 65.6501L65.2354 44.2998C65.6239 44.035 65.8574 43.5952 65.8574 43.1241C65.8574 42.6529 65.6239 42.2131 65.2354 41.9484ZM34.5435 61.78V24.4681L61.9075 43.1241L34.5435 61.78Z" fill="white"/>
<path d="M65.2354 41.9484L63.2463 44.8657L63.2473 44.8664L65.2354 41.9484ZM33.9215 20.598L35.9106 17.6807L35.902 17.6749L33.9215 20.598ZM32.454 20.5155L30.8068 17.3924L30.8028 17.3944L32.454 20.5155ZM32.4554 65.7327L34.1192 62.6184L34.111 62.614L34.1027 62.6096L32.4554 65.7327ZM33.9215 65.6501L35.9079 68.5693L35.9106 68.5674L33.9215 65.6501ZM65.2354 44.2998L63.2473 41.3818L63.2463 41.3824L65.2354 44.2998ZM34.5435 61.78H31.0126V68.4607L36.5325 64.6974L34.5435 61.78ZM34.5435 24.4681L36.5325 21.5507L31.0126 17.7875V24.4681H34.5435ZM61.9075 43.1241L63.8965 46.0414L68.1757 43.1241L63.8965 40.2067L61.9075 43.1241ZM67.2244 39.0311L35.9106 17.6807L31.9324 23.5153L63.2463 44.8657L67.2244 39.0311ZM35.902 17.6749C34.3929 16.6524 32.435 16.5336 30.8068 17.3924L34.1012 23.6386C33.4068 24.0048 32.5761 23.9515 31.941 23.5212L35.902 17.6749ZM30.8028 17.3944C29.1805 18.2527 28.1659 19.938 28.1659 21.7737H35.2277C35.2277 22.5533 34.7966 23.2707 34.1052 23.6365L30.8028 17.3944ZM28.1659 21.7737V64.4744H35.2277V21.7737H28.1659ZM28.1659 64.4744C28.1659 66.3116 29.1821 67.9981 30.8082 68.8558L34.1027 62.6096C34.795 62.9748 35.2277 63.6934 35.2277 64.4744H28.1659ZM30.7916 68.847C31.5319 69.2425 32.3358 69.4287 33.1201 69.4287V62.3669C33.449 62.3669 33.7945 62.4449 34.1192 62.6184L30.7916 68.847ZM33.1201 69.4287C34.1028 69.4287 35.0764 69.1351 35.9079 68.5693L31.9351 62.731C32.2855 62.4926 32.6983 62.3669 33.1201 62.3669V69.4287ZM35.9106 68.5674L67.2244 47.2171L63.2463 41.3824L31.9324 62.7328L35.9106 68.5674ZM67.2234 47.2178C68.5745 46.2972 69.3882 44.7665 69.3882 43.1241H62.3265C62.3265 42.4239 62.6734 41.7728 63.2473 41.3818L67.2234 47.2178ZM69.3882 43.1241C69.3882 41.4817 68.5745 39.9509 67.2234 39.0304L63.2473 44.8664C62.6734 44.4753 62.3265 43.8242 62.3265 43.1241H69.3882ZM38.0744 61.78V24.4681H31.0126V61.78H38.0744ZM32.5545 27.3855L59.9186 46.0414L63.8965 40.2067L36.5325 21.5507L32.5545 27.3855ZM59.9186 40.2067L32.5545 58.8626L36.5325 64.6974L63.8965 46.0414L59.9186 40.2067Z" fill="white" mask="url(#path-1-inside-1_120_1743)"/>
<mask id="path-3-inside-2_120_1743" fill="white">
<path d="M43.0835 0.42334C19.5384 0.42334 0.382812 19.5789 0.382812 43.1241C0.382812 66.6693 19.5384 85.8248 43.0835 85.8248C66.6287 85.8248 85.7843 66.6693 85.7843 43.1241C85.7843 19.5789 66.6287 0.42334 43.0835 0.42334ZM43.0835 82.9781C21.1083 82.9781 3.22953 65.0993 3.22953 43.1241C3.22953 21.1488 21.1083 3.27006 43.0835 3.27006C65.0588 3.27006 82.9376 21.1488 82.9376 43.1241C82.9376 65.0993 65.0588 82.9781 43.0835 82.9781Z"/>
</mask>
<path d="M43.0835 0.42334C19.5384 0.42334 0.382812 19.5789 0.382812 43.1241C0.382812 66.6693 19.5384 85.8248 43.0835 85.8248C66.6287 85.8248 85.7843 66.6693 85.7843 43.1241C85.7843 19.5789 66.6287 0.42334 43.0835 0.42334ZM43.0835 82.9781C21.1083 82.9781 3.22953 65.0993 3.22953 43.1241C3.22953 21.1488 21.1083 3.27006 43.0835 3.27006C65.0588 3.27006 82.9376 21.1488 82.9376 43.1241C82.9376 65.0993 65.0588 82.9781 43.0835 82.9781Z" fill="white"/>
<path d="M43.0835 -3.10754C17.5883 -3.10754 -3.14807 17.6288 -3.14807 43.1241H3.9137C3.9137 21.5289 21.4884 3.95422 43.0835 3.95422V-3.10754ZM-3.14807 43.1241C-3.14807 68.6193 17.5883 89.3557 43.0835 89.3557V82.2939C21.4884 82.2939 3.9137 64.7192 3.9137 43.1241H-3.14807ZM43.0835 89.3557C68.5788 89.3557 89.3152 68.6193 89.3152 43.1241H82.2534C82.2534 64.7192 64.6787 82.2939 43.0835 82.2939V89.3557ZM89.3152 43.1241C89.3152 17.6288 68.5788 -3.10754 43.0835 -3.10754V3.95422C64.6787 3.95422 82.2534 21.5289 82.2534 43.1241H89.3152ZM43.0835 79.4472C23.0584 79.4472 6.76041 63.1492 6.76041 43.1241H-0.301356C-0.301356 67.0493 19.1583 86.509 43.0835 86.509V79.4472ZM6.76041 43.1241C6.76041 23.0989 23.0584 6.80094 43.0835 6.80094V-0.260829C19.1583 -0.260829 -0.301356 19.1988 -0.301356 43.1241H6.76041ZM43.0835 6.80094C63.1087 6.80094 79.4067 23.0989 79.4067 43.1241H86.4684C86.4684 19.1988 67.0088 -0.260829 43.0835 -0.260829V6.80094ZM79.4067 43.1241C79.4067 63.1492 63.1087 79.4472 43.0835 79.4472V86.509C67.0088 86.509 86.4684 67.0493 86.4684 43.1241H79.4067Z" fill="white" mask="url(#path-3-inside-2_120_1743)"/>
</svg>
