<svg width="566" height="117" viewBox="0 0 566 117" fill="none" xmlns="http://www.w3.org/2000/svg">
<g filter="url(#filter0_b_120_1755)">
<rect width="566" height="117" rx="20" fill="white" fill-opacity="0.1"/>
</g>
<path d="M66.2188 56.4834C66.2188 58.2178 65.625 59.5537 64.4375 60.4912C63.2578 61.4209 61.5664 61.8857 59.3633 61.8857H57.3477V68.624H55.3555V51.4912H59.7969C64.0781 51.4912 66.2188 53.1553 66.2188 56.4834ZM57.3477 60.1748H59.1406C60.9062 60.1748 62.1836 59.8896 62.9727 59.3193C63.7617 58.749 64.1562 57.835 64.1562 56.5771C64.1562 55.4443 63.7852 54.6006 63.043 54.0459C62.3008 53.4912 61.1445 53.2139 59.5742 53.2139H57.3477V60.1748ZM75.3828 55.5459C75.9531 55.5459 76.4648 55.5928 76.918 55.6865L76.6484 57.4912C76.1172 57.374 75.6484 57.3154 75.2422 57.3154C74.2031 57.3154 73.3125 57.7373 72.5703 58.5811C71.8359 59.4248 71.4688 60.4756 71.4688 61.7334V68.624H69.5234V55.7803H71.1289L71.3516 58.1592H71.4453C71.9219 57.3232 72.4961 56.6787 73.168 56.2256C73.8398 55.7725 74.5781 55.5459 75.3828 55.5459ZM84.7461 68.8584C82.8477 68.8584 81.3477 68.2803 80.2461 67.124C79.1523 65.9678 78.6055 64.3623 78.6055 62.3076C78.6055 60.2373 79.1133 58.5928 80.1289 57.374C81.1523 56.1553 82.5234 55.5459 84.2422 55.5459C85.8516 55.5459 87.125 56.0771 88.0625 57.1396C89 58.1943 89.4688 59.5889 89.4688 61.3232V62.5537H80.6211C80.6602 64.0615 81.0391 65.2061 81.7578 65.9873C82.4844 66.7686 83.5039 67.1592 84.8164 67.1592C86.1992 67.1592 87.5664 66.8701 88.918 66.292V68.0264C88.2305 68.3232 87.5781 68.5342 86.9609 68.6592C86.3516 68.792 85.6133 68.8584 84.7461 68.8584ZM84.2188 57.1748C83.1875 57.1748 82.3633 57.5107 81.7461 58.1826C81.1367 58.8545 80.7773 59.7842 80.668 60.9717H87.3828C87.3828 59.7451 87.1094 58.8076 86.5625 58.1592C86.0156 57.5029 85.2344 57.1748 84.2188 57.1748ZM95.6094 68.624L90.7344 55.7803H92.8203L95.5859 63.3975C96.2109 65.1787 96.5781 66.335 96.6875 66.8662H96.7812C96.8672 66.4521 97.1367 65.5967 97.5898 64.2998C98.0508 62.9951 99.0781 60.1553 100.672 55.7803H102.758L97.8828 68.624H95.6094ZM106.766 68.624H104.82V55.7803H106.766V68.624ZM104.656 52.2998C104.656 51.8545 104.766 51.5303 104.984 51.3271C105.203 51.1162 105.477 51.0107 105.805 51.0107C106.117 51.0107 106.387 51.1162 106.613 51.3271C106.84 51.5381 106.953 51.8623 106.953 52.2998C106.953 52.7373 106.84 53.0654 106.613 53.2842C106.387 53.4951 106.117 53.6006 105.805 53.6006C105.477 53.6006 105.203 53.4951 104.984 53.2842C104.766 53.0654 104.656 52.7373 104.656 52.2998ZM116.316 68.8584C114.418 68.8584 112.918 68.2803 111.816 67.124C110.723 65.9678 110.176 64.3623 110.176 62.3076C110.176 60.2373 110.684 58.5928 111.699 57.374C112.723 56.1553 114.094 55.5459 115.812 55.5459C117.422 55.5459 118.695 56.0771 119.633 57.1396C120.57 58.1943 121.039 59.5889 121.039 61.3232V62.5537H112.191C112.23 64.0615 112.609 65.2061 113.328 65.9873C114.055 66.7686 115.074 67.1592 116.387 67.1592C117.77 67.1592 119.137 66.8701 120.488 66.292V68.0264C119.801 68.3232 119.148 68.5342 118.531 68.6592C117.922 68.792 117.184 68.8584 116.316 68.8584ZM115.789 57.1748C114.758 57.1748 113.934 57.5107 113.316 58.1826C112.707 58.8545 112.348 59.7842 112.238 60.9717H118.953C118.953 59.7451 118.68 58.8076 118.133 58.1592C117.586 57.5029 116.805 57.1748 115.789 57.1748ZM134.855 68.624L132.5 61.0889C132.352 60.6279 132.074 59.5811 131.668 57.9482H131.574C131.262 59.3154 130.988 60.3701 130.754 61.1123L128.328 68.624H126.078L122.574 55.7803H124.613C125.441 59.0068 126.07 61.4639 126.5 63.1514C126.938 64.8389 127.188 65.9756 127.25 66.5615H127.344C127.43 66.1162 127.566 65.542 127.754 64.8389C127.949 64.1279 128.117 63.5654 128.258 63.1514L130.613 55.7803H132.723L135.02 63.1514C135.457 64.4951 135.754 65.624 135.91 66.5381H136.004C136.035 66.2568 136.117 65.8232 136.25 65.2373C136.391 64.6514 137.207 61.499 138.699 55.7803H140.715L137.164 68.624H134.855Z" fill="white"/>
<mask id="path-3-inside-1_120_1755" fill="white">
<path d="M411.235 57.9484L379.921 36.598C379.485 36.302 378.921 36.2692 378.454 36.5155C377.989 36.7617 377.697 37.2456 377.697 37.7737V80.4744C377.697 81.0025 377.989 81.4864 378.455 81.7327C378.663 81.8437 378.892 81.8978 379.12 81.8978C379.401 81.8978 379.681 81.8138 379.921 81.6501L411.235 60.2998C411.624 60.035 411.857 59.5952 411.857 59.1241C411.857 58.6529 411.624 58.2131 411.235 57.9484ZM380.543 77.78V40.4681L407.908 59.1241L380.543 77.78Z"/>
</mask>
<path d="M411.235 57.9484L379.921 36.598C379.485 36.302 378.921 36.2692 378.454 36.5155C377.989 36.7617 377.697 37.2456 377.697 37.7737V80.4744C377.697 81.0025 377.989 81.4864 378.455 81.7327C378.663 81.8437 378.892 81.8978 379.12 81.8978C379.401 81.8978 379.681 81.8138 379.921 81.6501L411.235 60.2998C411.624 60.035 411.857 59.5952 411.857 59.1241C411.857 58.6529 411.624 58.2131 411.235 57.9484ZM380.543 77.78V40.4681L407.908 59.1241L380.543 77.78Z" fill="white"/>
<path d="M411.235 57.9484L409.246 60.8657L409.247 60.8664L411.235 57.9484ZM379.921 36.598L381.911 33.6807L381.902 33.6749L379.921 36.598ZM378.454 36.5155L376.807 33.3924L376.803 33.3944L378.454 36.5155ZM378.455 81.7327L380.119 78.6184L380.111 78.614L380.103 78.6096L378.455 81.7327ZM379.921 81.6501L381.908 84.5693L381.911 84.5674L379.921 81.6501ZM411.235 60.2998L409.247 57.3818L409.246 57.3824L411.235 60.2998ZM380.543 77.78H377.013V84.4607L382.532 80.6974L380.543 77.78ZM380.543 40.4681L382.532 37.5507L377.013 33.7875V40.4681H380.543ZM407.908 59.1241L409.897 62.0414L414.176 59.1241L409.897 56.2067L407.908 59.1241ZM413.224 55.0311L381.911 33.6807L377.932 39.5153L409.246 60.8657L413.224 55.0311ZM381.902 33.6749C380.393 32.6524 378.435 32.5336 376.807 33.3924L380.101 39.6386C379.407 40.0048 378.576 39.9515 377.941 39.5212L381.902 33.6749ZM376.803 33.3944C375.18 34.2527 374.166 35.938 374.166 37.7737H381.228C381.228 38.5533 380.797 39.2707 380.105 39.6365L376.803 33.3944ZM374.166 37.7737V80.4744H381.228V37.7737H374.166ZM374.166 80.4744C374.166 82.3116 375.182 83.9981 376.808 84.8558L380.103 78.6096C380.795 78.9748 381.228 79.6934 381.228 80.4744H374.166ZM376.792 84.847C377.532 85.2425 378.336 85.4287 379.12 85.4287V78.3669C379.449 78.3669 379.795 78.4449 380.119 78.6184L376.792 84.847ZM379.12 85.4287C380.103 85.4287 381.076 85.1351 381.908 84.5693L377.935 78.731C378.285 78.4926 378.698 78.3669 379.12 78.3669V85.4287ZM381.911 84.5674L413.224 63.2171L409.246 57.3824L377.932 78.7328L381.911 84.5674ZM413.223 63.2178C414.575 62.2972 415.388 60.7665 415.388 59.1241H408.326C408.326 58.4239 408.673 57.7728 409.247 57.3818L413.223 63.2178ZM415.388 59.1241C415.388 57.4817 414.575 55.9509 413.223 55.0304L409.247 60.8664C408.673 60.4753 408.326 59.8242 408.326 59.1241H415.388ZM384.074 77.78V40.4681H377.013V77.78H384.074ZM378.555 43.3855L405.919 62.0414L409.897 56.2067L382.532 37.5507L378.555 43.3855ZM405.919 56.2067L378.555 74.8626L382.532 80.6974L409.897 62.0414L405.919 56.2067Z" fill="white" mask="url(#path-3-inside-1_120_1755)"/>
<mask id="path-5-inside-2_120_1755" fill="white">
<path d="M389.084 16.4233C365.538 16.4233 346.383 35.5789 346.383 59.1241C346.383 82.6693 365.538 101.825 389.084 101.825C412.629 101.825 431.784 82.6693 431.784 59.1241C431.784 35.5789 412.629 16.4233 389.084 16.4233ZM389.084 98.9781C367.108 98.9781 349.23 81.0993 349.23 59.1241C349.23 37.1488 367.108 19.2701 389.084 19.2701C411.059 19.2701 428.938 37.1488 428.938 59.1241C428.938 81.0993 411.059 98.9781 389.084 98.9781Z"/>
</mask>
<path d="M389.084 16.4233C365.538 16.4233 346.383 35.5789 346.383 59.1241C346.383 82.6693 365.538 101.825 389.084 101.825C412.629 101.825 431.784 82.6693 431.784 59.1241C431.784 35.5789 412.629 16.4233 389.084 16.4233ZM389.084 98.9781C367.108 98.9781 349.23 81.0993 349.23 59.1241C349.23 37.1488 367.108 19.2701 389.084 19.2701C411.059 19.2701 428.938 37.1488 428.938 59.1241C428.938 81.0993 411.059 98.9781 389.084 98.9781Z" fill="white"/>
<path d="M389.084 12.8925C363.588 12.8925 342.852 33.6288 342.852 59.1241H349.914C349.914 37.5289 367.488 19.9542 389.084 19.9542V12.8925ZM342.852 59.1241C342.852 84.6193 363.588 105.356 389.084 105.356V98.2939C367.488 98.2939 349.914 80.7192 349.914 59.1241H342.852ZM389.084 105.356C414.579 105.356 435.315 84.6193 435.315 59.1241H428.253C428.253 80.7192 410.679 98.2939 389.084 98.2939V105.356ZM435.315 59.1241C435.315 33.6288 414.579 12.8925 389.084 12.8925V19.9542C410.679 19.9542 428.253 37.5289 428.253 59.1241H435.315ZM389.084 95.4472C369.058 95.4472 352.76 79.1492 352.76 59.1241H345.699C345.699 83.0493 365.158 102.509 389.084 102.509V95.4472ZM352.76 59.1241C352.76 39.0989 369.058 22.8009 389.084 22.8009V15.7392C365.158 15.7392 345.699 35.1988 345.699 59.1241H352.76ZM389.084 22.8009C409.109 22.8009 425.407 39.0989 425.407 59.1241H432.468C432.468 35.1988 413.009 15.7392 389.084 15.7392V22.8009ZM425.407 59.1241C425.407 79.1492 409.109 95.4472 389.084 95.4472V102.509C413.009 102.509 432.468 83.0493 432.468 59.1241H425.407Z" fill="white" mask="url(#path-5-inside-2_120_1755)"/>
<mask id="path-7-inside-3_120_1755" fill="white">
<path d="M511.735 58.6893L484.607 39.5996C484.3 39.3826 483.901 39.3565 483.566 39.5293C483.234 39.7011 483.025 40.0457 483.025 40.4205V58.2814L456.475 39.6107C456.169 39.3966 455.769 39.3685 455.434 39.5413C455.102 39.7141 454.893 40.0588 454.893 40.4335V78.5879C454.893 78.9626 455.102 79.3073 455.434 79.4801C455.581 79.5544 455.74 79.5916 455.897 79.5916C456.1 79.5916 456.302 79.5293 456.475 79.4087L483.025 60.739V78.5999C483.025 78.9747 483.234 79.3193 483.566 79.4921C483.713 79.5675 483.872 79.6047 484.03 79.6047C484.233 79.6047 484.435 79.5424 484.607 79.4208L511.735 60.3311C512.003 60.1442 512.162 59.8367 512.162 59.5102C512.162 59.1837 512.003 58.8762 511.735 58.6893ZM456.902 76.6528V42.3686L481.279 59.5102L456.902 76.6528ZM485.034 76.6638V42.3566L509.412 59.5102L485.034 76.6638Z"/>
</mask>
<path d="M511.735 58.6893L484.607 39.5996C484.3 39.3826 483.901 39.3565 483.566 39.5293C483.234 39.7011 483.025 40.0457 483.025 40.4205V58.2814L456.475 39.6107C456.169 39.3966 455.769 39.3685 455.434 39.5413C455.102 39.7141 454.893 40.0588 454.893 40.4335V78.5879C454.893 78.9626 455.102 79.3073 455.434 79.4801C455.581 79.5544 455.74 79.5916 455.897 79.5916C456.1 79.5916 456.302 79.5293 456.475 79.4087L483.025 60.739V78.5999C483.025 78.9747 483.234 79.3193 483.566 79.4921C483.713 79.5675 483.872 79.6047 484.03 79.6047C484.233 79.6047 484.435 79.5424 484.607 79.4208L511.735 60.3311C512.003 60.1442 512.162 59.8367 512.162 59.5102C512.162 59.1837 512.003 58.8762 511.735 58.6893ZM456.902 76.6528V42.3686L481.279 59.5102L456.902 76.6528ZM485.034 76.6638V42.3566L509.412 59.5102L485.034 76.6638Z" fill="white"/>
<path d="M511.735 58.6893L509.703 61.5769L509.71 61.5817L509.717 61.5865L511.735 58.6893ZM484.607 39.5996L482.571 42.4842L482.575 42.4872L484.607 39.5996ZM483.566 39.5293L481.946 36.3922L481.946 36.3923L483.566 39.5293ZM483.025 58.2814L480.994 61.1696L486.556 65.081V58.2814H483.025ZM456.475 39.6107L458.506 36.7224L458.497 36.7158L456.475 39.6107ZM455.434 39.5413L453.814 36.4042L453.806 36.4082L455.434 39.5413ZM455.434 79.4801L453.806 82.6132L453.822 82.6214L453.838 82.6295L455.434 79.4801ZM456.475 79.4087L458.495 82.3045L458.506 82.297L456.475 79.4087ZM483.025 60.739H486.556V53.9396L480.994 57.8507L483.025 60.739ZM483.566 79.4921L481.938 82.6253L481.946 82.6291L481.953 82.6329L483.566 79.4921ZM484.607 79.4208L482.575 76.5332L482.568 76.5385L484.607 79.4208ZM511.735 60.3311L509.717 57.4339L509.71 57.4387L509.703 57.4435L511.735 60.3311ZM456.902 76.6528H453.371V83.4524L458.933 79.541L456.902 76.6528ZM456.902 42.3686L458.933 39.4804L453.371 35.5692V42.3686H456.902ZM481.279 59.5102L483.31 62.3984L487.417 59.5101L483.31 56.6219L481.279 59.5102ZM485.034 76.6638H481.503V83.4658L487.066 79.5515L485.034 76.6638ZM485.034 42.3566L487.066 39.4689L481.503 35.5546V42.3566H485.034ZM509.412 59.5102L511.444 62.3978L515.548 59.5102L511.444 56.6226L509.412 59.5102ZM513.767 55.8018L486.639 36.712L482.575 42.4872L509.703 61.5769L513.767 55.8018ZM486.643 36.715C485.25 35.7317 483.441 35.6199 481.946 36.3922L485.187 42.6664C484.361 43.093 483.349 43.0335 482.571 42.4842L486.643 36.715ZM481.946 36.3923C480.434 37.1732 479.494 38.7316 479.494 40.4205H486.556C486.556 41.3598 486.034 42.2289 485.187 42.6663L481.946 36.3923ZM479.494 40.4205V58.2814H486.556V40.4205H479.494ZM485.056 55.3932L458.506 36.7224L454.444 42.4989L480.994 61.1696L485.056 55.3932ZM458.497 36.7158C457.12 35.7547 455.319 35.6269 453.814 36.4042L457.054 42.6785C456.219 43.1101 455.217 43.0386 454.453 42.5055L458.497 36.7158ZM453.806 36.4082C452.303 37.1895 451.362 38.7431 451.362 40.4335H458.423C458.423 41.3744 457.901 42.2388 457.062 42.6745L453.806 36.4082ZM451.362 40.4335V78.5879H458.423V40.4335H451.362ZM451.362 78.5879C451.362 80.2783 452.303 81.8319 453.806 82.6132L457.062 76.347C457.901 76.7826 458.423 77.647 458.423 78.5879H451.362ZM453.838 82.6295C454.479 82.9543 455.184 83.1225 455.897 83.1225V76.0607C456.295 76.0607 456.683 76.1545 457.03 76.3306L453.838 82.6295ZM455.897 83.1225C456.823 83.1225 457.73 82.8383 458.495 82.3045L454.455 76.513C454.874 76.2203 455.377 76.0607 455.897 76.0607V83.1225ZM458.506 82.297L485.056 63.6272L480.994 57.8507L454.444 76.5205L458.506 82.297ZM479.494 60.739V78.5999H486.556V60.739H479.494ZM479.494 78.5999C479.494 80.2903 480.435 81.844 481.938 82.6253L485.194 76.359C486.033 76.7947 486.556 77.6591 486.556 78.5999H479.494ZM481.953 82.6329C482.603 82.967 483.316 83.1355 484.03 83.1355V76.0738C484.428 76.0738 484.823 76.168 485.18 76.3514L481.953 82.6329ZM484.03 83.1355C484.951 83.1355 485.869 82.8536 486.647 82.3031L482.568 76.5385C483.002 76.2311 483.514 76.0738 484.03 76.0738V83.1355ZM486.639 82.3084L513.767 63.2186L509.703 57.4435L482.575 76.5332L486.639 82.3084ZM513.753 63.2283C514.979 62.3741 515.693 60.9794 515.693 59.5102H508.631C508.631 58.6941 509.027 57.9142 509.717 57.4339L513.753 63.2283ZM515.693 59.5102C515.693 58.041 514.979 56.6463 513.753 55.7921L509.717 61.5865C509.027 61.1062 508.631 60.3263 508.631 59.5102H515.693ZM460.433 76.6528V42.3686H453.371V76.6528H460.433ZM454.871 45.2569L479.248 62.3985L483.31 56.6219L458.933 39.4804L454.871 45.2569ZM479.248 56.622L454.871 73.7646L458.933 79.541L483.31 62.3984L479.248 56.622ZM488.565 76.6638V42.3566H481.503V76.6638H488.565ZM483.002 45.2442L507.38 62.3978L511.444 56.6226L487.066 39.4689L483.002 45.2442ZM507.38 56.6226L483.002 73.7762L487.066 79.5515L511.444 62.3978L507.38 56.6226Z" fill="white" mask="url(#path-7-inside-3_120_1755)"/>
<mask id="path-9-inside-4_120_1755" fill="white">
<path d="M265.427 60.6537L292.554 79.7434C292.862 79.9604 293.261 79.9866 293.595 79.8137C293.928 79.6419 294.137 79.2973 294.137 78.9226L294.137 61.0616L320.687 79.7324C320.993 79.9464 321.393 79.9745 321.727 79.8017C322.06 79.6289 322.269 79.2843 322.269 78.9095L322.269 40.7551C322.269 40.3804 322.06 40.0358 321.728 39.8629C321.581 39.7886 321.422 39.7514 321.264 39.7514C321.061 39.7514 320.859 39.8137 320.687 39.9343L294.137 58.604L294.137 40.7431C294.137 40.3683 293.928 40.0237 293.595 39.8509C293.449 39.7755 293.29 39.7384 293.132 39.7384C292.929 39.7384 292.726 39.8006 292.554 39.9222L265.427 59.012C265.159 59.1988 265 59.5063 265 59.8328C265 60.1593 265.159 60.4668 265.427 60.6537ZM320.26 42.6902L320.26 76.9744L295.883 59.8328L320.26 42.6902ZM292.127 42.6792L292.127 76.9865L267.75 59.8328L292.127 42.6792Z"/>
</mask>
<path d="M265.427 60.6537L292.554 79.7434C292.862 79.9604 293.261 79.9866 293.595 79.8137C293.928 79.6419 294.137 79.2973 294.137 78.9226L294.137 61.0616L320.687 79.7324C320.993 79.9464 321.393 79.9745 321.727 79.8017C322.06 79.6289 322.269 79.2843 322.269 78.9095L322.269 40.7551C322.269 40.3804 322.06 40.0358 321.728 39.8629C321.581 39.7886 321.422 39.7514 321.264 39.7514C321.061 39.7514 320.859 39.8137 320.687 39.9343L294.137 58.604L294.137 40.7431C294.137 40.3683 293.928 40.0237 293.595 39.8509C293.449 39.7755 293.29 39.7384 293.132 39.7384C292.929 39.7384 292.726 39.8006 292.554 39.9222L265.427 59.012C265.159 59.1988 265 59.5063 265 59.8328C265 60.1593 265.159 60.4668 265.427 60.6537ZM320.26 42.6902L320.26 76.9744L295.883 59.8328L320.26 42.6902ZM292.127 42.6792L292.127 76.9865L267.75 59.8328L292.127 42.6792Z" fill="white"/>
<path d="M265.427 60.6537L267.459 57.7661L267.452 57.7613L267.445 57.7565L265.427 60.6537ZM292.554 79.7434L294.591 76.8588L294.586 76.8558L292.554 79.7434ZM293.595 79.8137L295.216 82.9509L295.216 82.9507L293.595 79.8137ZM294.137 61.0616L296.168 58.1734L290.606 54.262L290.606 61.0616L294.137 61.0616ZM320.687 79.7324L318.655 82.6206L318.665 82.6272L320.687 79.7324ZM321.727 79.8017L323.348 82.9388L323.356 82.9348L321.727 79.8017ZM321.728 39.8629L323.356 36.7298L323.34 36.7216L323.324 36.7135L321.728 39.8629ZM320.687 39.9343L318.666 37.0385L318.656 37.046L320.687 39.9343ZM294.137 58.604L290.606 58.604L290.606 65.4034L296.168 61.4923L294.137 58.604ZM293.595 39.8509L295.223 36.7178L295.216 36.7139L295.209 36.7102L293.595 39.8509ZM292.554 39.9222L294.586 42.8098L294.594 42.8045L292.554 39.9222ZM265.427 59.012L267.445 61.9091L267.452 61.9044L267.459 61.8995L265.427 59.012ZM320.26 42.6902L323.79 42.6902L323.79 35.8906L318.228 39.802L320.26 42.6902ZM320.26 76.9744L318.229 79.8627L323.79 83.7738L323.79 76.9744L320.26 76.9744ZM295.883 59.8328L293.852 56.9446L289.745 59.8329L293.852 62.7211L295.883 59.8328ZM292.127 42.6792L295.658 42.6792L295.658 35.8772L290.095 39.7915L292.127 42.6792ZM292.127 76.9865L290.095 79.8741L295.658 83.7884L295.658 76.9865L292.127 76.9865ZM267.75 59.8328L265.718 56.9452L261.614 59.8328L265.718 62.7204L267.75 59.8328ZM263.395 63.5412L290.522 82.631L294.586 76.8558L267.459 57.7661L263.395 63.5412ZM290.518 82.628C291.911 83.6113 293.721 83.7231 295.216 82.9509L291.975 76.6766C292.801 76.25 293.812 76.3096 294.591 76.8588L290.518 82.628ZM295.216 82.9507C296.728 82.1698 297.668 80.6114 297.668 78.9226L290.606 78.9226C290.606 77.9833 291.128 77.1141 291.975 76.6767L295.216 82.9507ZM297.668 78.9226L297.668 61.0616L290.606 61.0616L290.606 78.9226L297.668 78.9226ZM292.106 63.9498L318.656 82.6206L322.718 76.8441L296.168 58.1734L292.106 63.9498ZM318.665 82.6272C320.041 83.5883 321.843 83.7161 323.348 82.9388L320.107 76.6646C320.943 76.2329 321.945 76.3044 322.708 76.8375L318.665 82.6272ZM323.356 82.9348C324.859 82.1535 325.8 80.5999 325.8 78.9095L318.738 78.9095C318.738 77.9686 319.261 77.1042 320.099 76.6686L323.356 82.9348ZM325.8 78.9095L325.8 40.7551L318.738 40.7551L318.738 78.9095L325.8 78.9095ZM325.8 40.7551C325.8 39.0648 324.859 37.5111 323.356 36.7298L320.099 42.9961C319.261 42.5604 318.738 41.696 318.738 40.7551L325.8 40.7551ZM323.324 36.7135C322.683 36.3887 321.977 36.2205 321.264 36.2205L321.264 43.2823C320.867 43.2823 320.479 43.1885 320.131 43.0124L323.324 36.7135ZM321.264 36.2205C320.339 36.2205 319.431 36.5047 318.666 37.0385L322.707 42.83C322.287 43.1227 321.784 43.2823 321.264 43.2823L321.264 36.2205ZM318.656 37.046L292.106 55.7158L296.168 61.4923L322.718 42.8225L318.656 37.046ZM297.668 58.604L297.668 40.7431L290.606 40.7431L290.606 58.604L297.668 58.604ZM297.668 40.7431C297.668 39.0527 296.727 37.499 295.223 36.7178L291.967 42.984C291.129 42.5484 290.606 41.6839 290.606 40.7431L297.668 40.7431ZM295.209 36.7102C294.558 36.3761 293.846 36.2075 293.132 36.2075L293.132 43.2692C292.734 43.2692 292.339 43.175 291.982 42.9916L295.209 36.7102ZM293.132 36.2075C292.211 36.2075 291.293 36.4894 290.515 37.0399L294.594 42.8045C294.159 43.1119 293.647 43.2692 293.132 43.2692L293.132 36.2075ZM290.522 37.0346L263.395 56.1244L267.459 61.8995L294.586 42.8098L290.522 37.0346ZM263.409 56.1148C262.182 56.9689 261.469 58.3636 261.469 59.8328L268.531 59.8328C268.531 60.6489 268.135 61.4288 267.445 61.9091L263.409 56.1148ZM261.469 59.8328C261.469 61.302 262.182 62.6967 263.409 63.5509L267.445 57.7565C268.135 58.2368 268.531 59.0167 268.531 59.8328L261.469 59.8328ZM316.729 42.6902L316.729 76.9744L323.79 76.9744L323.79 42.6902L316.729 42.6902ZM322.291 74.0861L297.914 56.9445L293.852 62.7211L318.229 79.8627L322.291 74.0861ZM297.914 62.721L322.291 45.5784L318.228 39.802L293.852 56.9446L297.914 62.721ZM288.596 42.6792L288.596 76.9865L295.658 76.9865L295.658 42.6792L288.596 42.6792ZM294.159 74.0988L269.782 56.9452L265.718 62.7204L290.095 79.8741L294.159 74.0988ZM269.782 62.7204L294.159 45.5668L290.095 39.7915L265.718 56.9452L269.782 62.7204Z" fill="white" mask="url(#path-9-inside-4_120_1755)"/>
<defs>
<filter id="filter0_b_120_1755" x="-62.4857" y="-62.4857" width="690.971" height="241.971" filterUnits="userSpaceOnUse" color-interpolation-filters="sRGB">
<feFlood flood-opacity="0" result="BackgroundImageFix"/>
<feGaussianBlur in="BackgroundImage" stdDeviation="31.2429"/>
<feComposite in2="SourceAlpha" operator="in" result="effect1_backgroundBlur_120_1755"/>
<feBlend mode="normal" in="SourceGraphic" in2="effect1_backgroundBlur_120_1755" result="shape"/>
</filter>
</defs>
</svg>
