<svg width="1900" height="190" viewBox="0 0 1900 190" fill="none" xmlns="http://www.w3.org/2000/svg">
<g clip-path="url(#clip0_328_47)">
<rect x="1961.48" y="4.64514" width="1338.94" height="4.64516" transform="rotate(-180 1961.48 4.64514)" fill="white" fill-opacity="0.6"/>
<path d="M975.131 9.29028H-37.9999V-3.91006e-05H988.521L975.131 9.29028Z" fill="#BF935F"/>
<path d="M64.652 11.6129H118.21L109.283 20.9032H55.7258L64.652 11.6129Z" fill="#A77032"/>
<path d="M-15.6843 11.6129H37.8733L28.947 20.9032H-24.6106L-15.6843 11.6129Z" fill="#A77032"/>
<path d="M144.988 11.6129H198.546L189.62 20.9032H136.062L144.988 11.6129Z" fill="#A77032"/>
<path d="M225.325 11.6129H278.883L269.956 20.9032H216.399L225.325 11.6129Z" fill="#A77032"/>
<path d="M305.661 11.6129H359.219L350.293 20.9032H296.735L305.661 11.6129Z" fill="#A77032"/>
<path d="M385.998 11.6129H439.555L430.629 20.9032H377.071L385.998 11.6129Z" fill="#A77032"/>
<path d="M466.334 11.6129H519.892L510.965 20.9032H457.408L466.334 11.6129Z" fill="#A77032"/>
<path d="M546.67 11.6129H600.228L591.302 20.9032H537.744L546.67 11.6129Z" fill="#A77032"/>
<path d="M627.007 11.6129H680.565L671.638 20.9032H618.081L627.007 11.6129Z" fill="#A77032"/>
<path d="M707.343 11.6129H760.901L751.975 20.9032H698.417L707.343 11.6129Z" fill="#A77032"/>
<path d="M787.68 11.6129H841.237L832.311 20.9032H778.753L787.68 11.6129Z" fill="#A77032"/>
<path d="M868.016 11.6129H921.574L912.647 20.9032H859.09L868.016 11.6129Z" fill="#A77032"/>
<path d="M1059.93 6.96777H1113.49L1091.17 20.9033H1037.62L1059.93 6.96777Z" fill="#A77032"/>
<path d="M977.363 11.6129L984.058 6.96777H1019.76L997.447 20.9033H943.889L960.126 11.693L977.363 11.6129Z" fill="#A77032"/>
<path d="M1153.66 6.96777H1207.21L1184.9 20.9033H1131.34L1153.66 6.96777Z" fill="#A77032"/>
<path d="M1247.38 6.96777H1300.94L1278.62 20.9033H1225.07L1247.38 6.96777Z" fill="#A77032"/>
<path d="M1341.11 6.96777H1394.67L1372.35 20.9033H1318.79L1341.11 6.96777Z" fill="#A77032"/>
<path d="M1434.83 6.96777H1488.39L1466.08 20.9033H1412.52L1434.83 6.96777Z" fill="#A77032"/>
<path d="M1528.56 6.96777H1582.12L1559.8 20.9033H1506.24L1528.56 6.96777Z" fill="#A77032"/>
<path d="M1622.29 6.96777H1675.84L1653.53 20.9033H1599.97L1622.29 6.96777Z" fill="#A77032"/>
<path d="M1716.01 6.96777H1769.57L1747.25 20.9033H1693.7L1716.01 6.96777Z" fill="#A77032"/>
<path d="M1809.74 6.96777H1863.3L1840.98 20.9033H1787.42L1809.74 6.96777Z" fill="#A77032"/>
<path d="M1903.46 6.96777H1957.02L1934.71 20.9033H1881.15L1903.46 6.96777Z" fill="#A77032"/>
<rect width="1470.19" height="4.64516" transform="matrix(-1 0 0 1 2049 185.258)" fill="white" fill-opacity="0.6"/>
<path d="M961.059 180.613H-146.484V189.903H980.662L961.059 180.613Z" fill="#BF935F"/>
<path d="M-33.7693 169H25.0383L15.237 178.29H-43.5706L-33.7693 169Z" fill="#A77032"/>
<path d="M54.4421 169H113.25L103.448 178.29H44.6408L54.4421 169Z" fill="#A77032"/>
<path d="M142.654 169H201.461L191.66 178.29H132.853L142.654 169Z" fill="#A77032"/>
<path d="M230.865 169H289.673L279.871 178.29H221.064L230.865 169Z" fill="#A77032"/>
<path d="M319.076 169H377.884L368.083 178.29H309.275L319.076 169Z" fill="#A77032"/>
<path d="M407.288 169H466.095L456.294 178.29H397.486L407.288 169Z" fill="#A77032"/>
<path d="M495.499 169H554.307L544.505 178.29H485.698L495.499 169Z" fill="#A77032"/>
<path d="M583.711 169H642.518L632.717 178.29H573.91L583.711 169Z" fill="#A77032"/>
<path d="M671.922 169H730.73L720.928 178.29H662.121L671.922 169Z" fill="#A77032"/>
<path d="M760.133 169H818.941L809.14 178.29H750.332L760.133 169Z" fill="#A77032"/>
<path d="M848.345 169H907.152L897.351 178.29H838.543L848.345 169Z" fill="#A77032"/>
<path d="M1059.07 169H1117.88L1093.38 182.935H1034.57L1059.07 169Z" fill="#A77032"/>
<path d="M956.159 169H1014.97L990.463 182.935H973.311L963.51 178.29H936.556L956.159 169Z" fill="#A77032"/>
<path d="M1161.99 169H1220.79L1196.29 182.935H1137.48L1161.99 169Z" fill="#A77032"/>
<path d="M1264.9 169H1323.71L1299.2 182.935H1240.4L1264.9 169Z" fill="#A77032"/>
<path d="M1367.81 169H1426.62L1402.12 182.935H1343.31L1367.81 169Z" fill="#A77032"/>
<path d="M1470.73 169H1529.53L1505.03 182.935H1446.22L1470.73 169Z" fill="#A77032"/>
<path d="M1573.64 169H1632.45L1607.94 182.935H1549.14L1573.64 169Z" fill="#A77032"/>
<path d="M1676.55 169H1735.36L1710.86 182.935H1652.05L1676.55 169Z" fill="#A77032"/>
<path d="M1779.47 169H1838.27L1813.77 182.935H1754.96L1779.47 169Z" fill="#A77032"/>
<path d="M1882.38 169H1941.19L1916.68 182.935H1857.88L1882.38 169Z" fill="#A77032"/>
</g>
<defs>
<clipPath id="clip0_328_47">
<rect width="1920" height="190" fill="white" transform="translate(-20)"/>
</clipPath>
</defs>
</svg>
