<svg width="231" height="79" viewBox="0 0 231 79" fill="none" xmlns="http://www.w3.org/2000/svg">
<rect width="231" height="79" fill="white"/>
<path d="M44.312 15.464V41H51.032V15.464H44.312ZM51.032 6.2H44.312V12.44H51.032V6.2ZM80.5674 23.336C80.5674 17.72 76.6794 14.792 71.6874 14.792C66.8394 14.792 64.9194 17.672 64.0074 19.208H63.9114V15.464H57.4794V41H64.1994V26.36C64.1994 22.472 66.5034 20.456 69.4794 20.456C73.7514 20.456 73.8474 23.624 73.8474 25.496V41H80.5674V23.336ZM98.3911 24.44H84.9991V30.68H98.3911V24.44ZM109.72 32.936L112.504 30.056L118.6 41H126.664L117.4 25.352L126.424 15.464H118.168L109.72 25.16V6.536H103V41H109.72V32.936ZM150.167 22.184C150.167 15.896 143.591 14.792 139.991 14.792C134.759 14.792 129.335 15.896 128.567 23.72H135.047C135.239 22.232 135.815 20.168 139.175 20.168C140.903 20.168 143.591 20.312 143.591 23.144C143.591 24.584 142.295 25.016 141.239 25.16L135.191 26.072C130.919 26.696 127.751 29.24 127.751 34.232C127.751 39.512 131.687 41.672 135.527 41.672C140.087 41.672 142.247 39.56 143.783 37.976C143.927 39.416 144.023 39.8 144.407 41H151.655V39.992C150.839 39.704 150.167 39.032 150.167 36.008V22.184ZM143.591 31.832C143.591 34.952 140.567 36.872 137.591 36.872C136.295 36.872 134.471 36.152 134.471 33.8C134.471 31.016 136.535 30.392 139.031 29.96C141.815 29.528 142.919 29.096 143.591 28.568V31.832ZM163.063 6.536H156.343V41H163.063V6.536ZM190.199 22.184C190.199 15.896 183.623 14.792 180.023 14.792C174.791 14.792 169.367 15.896 168.599 23.72H175.079C175.271 22.232 175.847 20.168 179.207 20.168C180.935 20.168 183.623 20.312 183.623 23.144C183.623 24.584 182.327 25.016 181.271 25.16L175.223 26.072C170.951 26.696 167.783 29.24 167.783 34.232C167.783 39.512 171.719 41.672 175.559 41.672C180.119 41.672 182.279 39.56 183.815 37.976C183.959 39.416 184.055 39.8 184.439 41H191.687V39.992C190.871 39.704 190.199 39.032 190.199 36.008V22.184ZM183.623 31.832C183.623 34.952 180.599 36.872 177.623 36.872C176.327 36.872 174.503 36.152 174.503 33.8C174.503 31.016 176.567 30.392 179.063 29.96C181.847 29.528 182.951 29.096 183.623 28.568V31.832Z" fill="#00072D"/>
<path d="M50.9234 5.47286C54.2461 7.1296 54.2461 11.8704 50.9234 13.5271L49.008 14.4822C46.0163 15.974 42.5 13.7981 42.5 10.4551L42.5 8.54493C42.5 5.20188 46.0163 3.02603 49.008 4.51779L50.9234 5.47286Z" fill="white"/>
<path d="M51.5 8.13397C52.1667 8.51887 52.1667 9.48113 51.5 9.86603L45.5 13.3301C44.8333 13.715 44 13.2339 44 12.4641V5.5359C44 4.7661 44.8333 4.28497 45.5 4.66987L51.5 8.13397Z" fill="#F64C71"/>
<path d="M2.088 72V55.08H4.056V72H2.088ZM13.1246 72V60.336H15.0206V62.328C15.4046 61.592 15.9486 61.04 16.6526 60.672C17.3566 60.304 18.1486 60.12 19.0286 60.12C21.7966 60.12 23.1806 61.656 23.1806 64.728V72H21.2366V64.848C21.2366 63.76 21.0206 62.968 20.5886 62.472C20.1726 61.96 19.5006 61.704 18.5726 61.704C17.5006 61.704 16.6446 62.04 16.0046 62.712C15.3806 63.368 15.0686 64.248 15.0686 65.352V72H13.1246ZM35.2401 72L30.2241 60.336H32.3361L36.2001 69.792L40.1121 60.336H42.1041L37.0641 72H35.2401ZM54.4116 72.216C52.5716 72.216 51.1156 71.68 50.0436 70.608C48.9716 69.52 48.4356 68.048 48.4356 66.192C48.4356 64.992 48.6756 63.936 49.1556 63.024C49.6356 62.096 50.2916 61.384 51.1236 60.888C51.9716 60.376 52.9476 60.12 54.0516 60.12C55.6356 60.12 56.8756 60.632 57.7716 61.656C58.6676 62.664 59.1156 64.056 59.1156 65.832V66.576H50.3316C50.3956 67.904 50.7796 68.92 51.4836 69.624C52.1876 70.312 53.1636 70.656 54.4116 70.656C55.1156 70.656 55.7876 70.552 56.4276 70.344C57.0676 70.12 57.6756 69.76 58.2516 69.264L58.9236 70.632C58.3956 71.128 57.7236 71.52 56.9076 71.808C56.0916 72.08 55.2596 72.216 54.4116 72.216ZM54.0996 61.56C52.9956 61.56 52.1236 61.904 51.4836 62.592C50.8436 63.28 50.4676 64.184 50.3556 65.304H57.4356C57.3876 64.12 57.0756 63.2 56.4996 62.544C55.9396 61.888 55.1396 61.56 54.0996 61.56ZM71.025 72.216C70.113 72.216 69.249 72.088 68.433 71.832C67.617 71.576 66.945 71.216 66.417 70.752L67.041 69.384C67.617 69.848 68.249 70.192 68.937 70.416C69.641 70.624 70.353 70.728 71.073 70.728C71.985 70.728 72.673 70.56 73.137 70.224C73.601 69.888 73.833 69.432 73.833 68.856C73.833 68.408 73.681 68.056 73.377 67.8C73.073 67.528 72.593 67.32 71.937 67.176L69.753 66.696C67.769 66.264 66.777 65.24 66.777 63.624C66.777 62.568 67.193 61.72 68.025 61.08C68.873 60.44 69.977 60.12 71.337 60.12C72.137 60.12 72.897 60.248 73.617 60.504C74.353 60.744 74.961 61.104 75.441 61.584L74.793 62.952C74.329 62.52 73.785 62.192 73.161 61.968C72.553 61.728 71.945 61.608 71.337 61.608C70.441 61.608 69.761 61.784 69.297 62.136C68.833 62.488 68.601 62.952 68.601 63.528C68.601 64.424 69.193 65 70.377 65.256L72.561 65.712C73.585 65.936 74.361 66.296 74.889 66.792C75.417 67.272 75.681 67.928 75.681 68.76C75.681 69.832 75.257 70.68 74.409 71.304C73.561 71.912 72.433 72.216 71.025 72.216ZM88.3665 72.216C86.9905 72.216 85.9585 71.856 85.2705 71.136C84.5825 70.4 84.2385 69.344 84.2385 67.968V61.848H81.9585V60.336H84.2385V56.76H86.1825V60.336H89.8785V61.848H86.1825V67.776C86.1825 68.688 86.3745 69.384 86.7585 69.864C87.1425 70.328 87.7665 70.56 88.6305 70.56C88.8865 70.56 89.1425 70.528 89.3985 70.464C89.6545 70.4 89.8865 70.336 90.0945 70.272L90.4305 71.76C90.2225 71.872 89.9185 71.976 89.5185 72.072C89.1185 72.168 88.7345 72.216 88.3665 72.216ZM108.321 57.432V55.248H110.721V57.432H108.321ZM108.561 72V60.336H110.505V72H108.561ZM119.299 72V60.336H121.195V62.328C121.579 61.592 122.123 61.04 122.827 60.672C123.531 60.304 124.323 60.12 125.203 60.12C127.971 60.12 129.355 61.656 129.355 64.728V72H127.411V64.848C127.411 63.76 127.195 62.968 126.763 62.472C126.347 61.96 125.675 61.704 124.747 61.704C123.675 61.704 122.819 62.04 122.179 62.712C121.555 63.368 121.243 64.248 121.243 65.352V72H119.299ZM149.472 72V60.336H151.368V62.304C151.72 61.6 152.208 61.064 152.832 60.696C153.456 60.312 154.184 60.12 155.016 60.12C156.84 60.12 158.008 60.912 158.52 62.496C158.872 61.76 159.392 61.184 160.08 60.768C160.768 60.336 161.56 60.12 162.456 60.12C165.048 60.12 166.344 61.656 166.344 64.728V72H164.4V64.824C164.4 63.752 164.208 62.968 163.824 62.472C163.456 61.96 162.84 61.704 161.976 61.704C161.032 61.704 160.28 62.04 159.72 62.712C159.16 63.384 158.88 64.28 158.88 65.4V72H156.936V64.824C156.936 63.752 156.744 62.968 156.36 62.472C155.992 61.96 155.376 61.704 154.512 61.704C153.552 61.704 152.792 62.04 152.232 62.712C151.688 63.384 151.416 64.28 151.416 65.4V72H149.472ZM179.267 72.216C176.467 72.216 175.067 70.672 175.067 67.584V60.336H177.011V67.56C177.011 68.6 177.219 69.368 177.635 69.864C178.067 70.36 178.739 70.608 179.651 70.608C180.643 70.608 181.451 70.28 182.075 69.624C182.699 68.952 183.011 68.064 183.011 66.96V60.336H184.955V72H183.059V70.032C182.691 70.736 182.171 71.28 181.499 71.664C180.843 72.032 180.099 72.216 179.267 72.216ZM197.688 72.216C196.776 72.216 195.912 72.088 195.096 71.832C194.28 71.576 193.608 71.216 193.08 70.752L193.704 69.384C194.28 69.848 194.912 70.192 195.6 70.416C196.304 70.624 197.016 70.728 197.736 70.728C198.648 70.728 199.336 70.56 199.8 70.224C200.264 69.888 200.496 69.432 200.496 68.856C200.496 68.408 200.344 68.056 200.04 67.8C199.736 67.528 199.256 67.32 198.6 67.176L196.416 66.696C194.432 66.264 193.44 65.24 193.44 63.624C193.44 62.568 193.856 61.72 194.688 61.08C195.536 60.44 196.64 60.12 198 60.12C198.8 60.12 199.56 60.248 200.28 60.504C201.016 60.744 201.624 61.104 202.104 61.584L201.456 62.952C200.992 62.52 200.448 62.192 199.824 61.968C199.216 61.728 198.608 61.608 198 61.608C197.104 61.608 196.424 61.784 195.96 62.136C195.496 62.488 195.264 62.952 195.264 63.528C195.264 64.424 195.856 65 197.04 65.256L199.224 65.712C200.248 65.936 201.024 66.296 201.552 66.792C202.08 67.272 202.344 67.928 202.344 68.76C202.344 69.832 201.92 70.68 201.072 71.304C200.224 71.912 199.096 72.216 197.688 72.216ZM210.227 57.432V55.248H212.627V57.432H210.227ZM210.467 72V60.336H212.411V72H210.467ZM226.149 72.216C224.981 72.216 223.973 71.968 223.125 71.472C222.277 70.96 221.621 70.248 221.157 69.336C220.709 68.408 220.485 67.328 220.485 66.096C220.485 64.24 220.989 62.784 221.997 61.728C223.005 60.656 224.389 60.12 226.149 60.12C226.869 60.12 227.581 60.248 228.285 60.504C228.989 60.76 229.573 61.12 230.037 61.584L229.365 63C228.901 62.552 228.389 62.224 227.829 62.016C227.285 61.808 226.765 61.704 226.269 61.704C225.053 61.704 224.117 62.088 223.461 62.856C222.805 63.608 222.477 64.696 222.477 66.12C222.477 67.512 222.805 68.616 223.461 69.432C224.117 70.232 225.053 70.632 226.269 70.632C226.765 70.632 227.285 70.528 227.829 70.32C228.389 70.112 228.901 69.776 229.365 69.312L230.037 70.728C229.573 71.192 228.981 71.56 228.261 71.832C227.557 72.088 226.853 72.216 226.149 72.216Z" fill="#F64C71"/>
</svg>
